<svg width="266" height="40" viewBox="0 0 266 40" fill="none" xmlns="http://www.w3.org/2000/svg">
<path d="M0 30.0999H1.1C3.1 30.0999 3.9 29.4 3.9 27.5V4.49995C3.9 2.59995 3.1 1.89995 1.1 1.89995H0V1.19995H12.1C18.7 1.19995 23.3 3.19995 23.3 8.19995C23.3 12.3 19.6 14.5 15.2 15.4C20.3 16.3 24.2 18.4 24.2 22.9C24.2 27.8 19.9 30.7999 12.7 30.7999H0V30.0999ZM11.9 15.2C16.2 15.2 18.2 12.7 18.2 8.49995C18.2 4.29995 16.1 1.89995 12 1.89995H11.3C9.3 1.89995 8.7 2.49995 8.7 4.49995V15.2H11.9ZM12.8 30.0999C17.4 30.0999 19.1 26.8999 19.1 23.0999C19.1 18.8999 17.2 16 12.4 16H8.7V27.5999C8.7 29.4999 9.5 30.2 11.4 30.2H12.8V30.0999Z" fill="white"/>
<path d="M25.9004 30.1001H26.1004C28.0004 30.1001 28.4004 29.4001 28.4004 27.7001V15.6001C28.4004 13.9001 28.0004 13.2001 26.1004 13.2001H25.9004V12.5001L32.7004 12.1001L32.3004 18.9001H32.4004C33.7004 14.9001 35.9004 11.9001 38.8004 11.9001C40.8004 11.9001 42.3004 13.1001 42.3004 15.1001C42.3004 16.7001 41.3004 17.9001 39.8004 17.9001C38.5004 17.9001 37.6004 17.1001 37.6004 15.8001C37.6004 14.8001 38.1004 14.2001 38.6004 13.9001C38.9004 13.7001 39.1004 13.6001 39.1004 13.4001C39.1004 13.2001 38.8004 13.0001 38.4004 13.0001C35.6004 13.0001 32.8004 17.8001 32.8004 22.3001V27.7001C32.8004 29.5001 33.2004 30.1001 35.1004 30.1001H36.1004V30.8001H25.9004V30.1001Z" fill="white"/>
<path d="M43.4004 27.1001C43.4004 23.8001 46.3004 21.6001 54.8004 19.7001V18.5001C54.8004 14.3001 53.5004 12.7001 50.8004 12.7001C48.5004 12.7001 46.5004 13.8001 46.5004 14.5001C46.5004 14.8001 46.7004 14.8001 47.1004 14.8001C48.1004 14.8001 49.1004 15.6001 49.1004 16.9001C49.1004 18.1001 48.1004 19.1001 46.9004 19.1001C45.6004 19.1001 44.6004 18.1001 44.6004 16.8001C44.6004 14.3001 46.9004 12.1001 51.9004 12.1001C56.0004 12.1001 59.0004 13.7001 59.0004 18.7001V27.8001C59.0004 29.2001 59.5004 29.8001 60.1004 29.8001C60.9004 29.8001 61.3004 28.9001 61.6004 27.8001L62.1004 28.0001C61.6004 30.5001 60.3004 31.3001 58.3004 31.3001C56.5004 31.3001 54.6004 30.0001 54.8004 27.1001H54.7004C53.8004 29.4001 51.2004 31.5001 48.2004 31.5001C45.5004 31.3001 43.4004 29.8001 43.4004 27.1001ZM54.8004 23.4001V20.4001C49.2004 21.6001 48.0004 23.9001 48.0004 26.3001C48.0004 28.1001 48.9004 29.3001 50.5004 29.3001C52.2004 29.2001 54.8004 27.3001 54.8004 23.4001Z" fill="white"/>
<path d="M63.3002 30.1001H63.5002C65.4002 30.1001 65.8002 29.4001 65.8002 27.7001V15.6001C65.8002 13.9001 65.4002 13.2001 63.5002 13.2001H63.3002V12.5001L70.1002 12.1001L69.9002 17.2001H70.0002C71.0002 14.3001 73.4002 12.1001 76.6002 12.1001C80.3002 12.1001 81.8002 14.4001 81.8002 18.7001V27.7001C81.8002 29.5001 82.2002 30.1001 84.1002 30.1001H84.2002V30.8001H75.0002V30.1001H75.3002C77.2002 30.1001 77.6002 29.5001 77.6002 27.7001V17.6001C77.6002 14.8001 76.8002 13.9001 75.0002 13.9001C72.1002 13.9001 70.1002 17.1001 70.1002 20.9001V27.7001C70.1002 29.5001 70.5002 30.1001 72.4002 30.1001H72.7002V30.8001H63.2002V30.1001H63.3002Z" fill="white"/>
<path d="M85.2002 21.6001C85.2002 16.1001 88.4002 12.0001 92.7002 12.0001C95.5002 12.0001 97.5002 13.8001 98.6002 16.2001H98.7002C98.7002 15.6001 98.6002 12.5001 98.6002 11.1001V4.30015C98.6002 2.40015 98.1002 1.90015 96.2002 1.80015H95.2002V1.10015L102.8 0.400146V27.3001C102.8 29.3001 103.2 29.8001 105.1 29.8001H105.4V30.5001L98.6002 31.2001L98.8002 26.6001H98.7002C97.3002 29.3001 95.5002 31.1001 92.5002 31.1001C88.8002 31.2001 85.2002 27.3001 85.2002 21.6001ZM98.6002 21.7001C98.6002 16.2001 95.8002 13.0001 93.7002 13.0001C90.8002 13.0001 90.0002 16.7001 90.0002 21.4001C90.0002 26.4001 91.1002 29.9001 93.7002 29.9001C96.2002 30.0001 98.6002 26.1001 98.6002 21.7001Z" fill="white"/>
<path d="M109.5 29.8001C108.8 29.8001 108.3 30.3001 108 31.2001H107.5V23.9001H108.2C109 27.9001 112.2 30.6001 115.6 30.6001C118.2 30.6001 119.6 29.2001 119.6 27.5001C119.6 25.7001 118.4 24.9001 114.4 23.8001C110.5 22.7001 107.7 21.5001 107.7 17.6001C107.7 14.1001 110.3 12.1001 113.9 12.1001C116.5 12.1001 117.5 13.2001 118.8 13.2001C119.6 13.2001 120.1 12.9001 120.4 12.1001H120.9V18.5001H120.3C119.6 15.2001 117.2 12.8001 113.8 12.8001C111.9 12.8001 110.5 14.0001 110.5 15.7001C110.5 17.7001 112.2 18.3001 115.5 19.2001C119.8 20.4001 122.4 21.8001 122.4 25.4001C122.4 29.0001 119.7 31.3001 115.4 31.3001C112.5 31.2001 110.6 29.8001 109.5 29.8001Z" fill="white"/>
<path d="M126 23.2999C126 18.7999 128.9 15.9 133.3 13.7C132.7 11.5 132.5 9.89995 132.5 8.49995C132.5 3.69995 135.3 0.699951 139.2 0.699951C142.7 0.699951 144.7 2.69995 144.7 5.39995C144.7 8.29995 142.4 10.2999 137.5 12.5999C138.1 14.1999 138.8 16 139.8 17.9C140.9 20.1 142.4 22.7999 143.8 24.7999C145.4 22.4999 146.6 19.5999 146.6 16.7999C146.6 14.6999 145 14.1999 142.6 14.0999V13.4H152.4V14.0999C149.6 14.1999 148.5 15.1 147.8 17.9C147.3 19.9 146.2 22.8999 144.5 25.5999C145.9 27.2999 147.2 28.4 148.7 28.4C150.7 28.4 151.8 26.7999 151.9 23.7999H152.5C152.5 28.3999 150.4 31.2 146.7 31.2C144.9 31.2 143.2 30.3999 141.6 28.7999C139.8 30.2999 137.6 31.2999 134.8 31.2999C129.5 31.1999 126 27.8999 126 23.2999ZM140.9 28C139.2 26.1 137.4 23.2999 135.7 19.7999C134.8 17.8999 134.1 16.2 133.6 14.5C131.4 16.3 130.5 18.5 130.5 21.4C130.5 26.3 132.7 29.5 136.5 29.5C138.1 29.6 139.6 29 140.9 28ZM141.2 5.59995C141.2 2.89995 140.5 1.39995 139.2 1.39995C137.4 1.39995 136.5 3.59995 136.5 6.39995C136.5 8.19995 136.8 9.99995 137.4 11.9C140.3 9.79995 141.2 7.89995 141.2 5.59995Z" fill="white"/>
<path d="M154.8 30.0999H155.9C157.9 30.0999 158.7 29.6 158.7 27.5V4.49995C158.7 2.39995 157.9 1.89995 155.9 1.89995H154.8V1.19995H167.3C174.1 1.19995 178.3 3.99995 178.3 9.29995C178.3 14.9999 173.4 17.9 166.6 17.9H163.5V27.5C163.5 29.6 164.2 30.0999 166.2 30.0999H168V30.7999H154.7V30.0999H154.8ZM166.7 17.0999C171.9 17.0999 172.8 13.4 172.8 9.49995C172.8 5.39995 171.8 1.99995 167.1 1.99995H166.2C164.2 1.99995 163.5 2.49995 163.5 4.59995V17.2H166.7V17.0999Z" fill="white"/>
<path d="M178 21.7001C178 15.9001 182.4 11.8 186.9 11.8C190.9 11.8 194.9 14.9 194.9 20.5C194.9 20.7 194.9 21.5001 194.8 21.7001H182.7C182.7 26.7001 184.5 29.8 188 29.8C191 29.8 193 28.2001 194.5 25.9001L195.1 26.2001C193.4 29.2001 190.8 31.4001 186.8 31.4001C181.8 31.5001 178 27.7001 178 21.7001ZM188.1 21C189.8 21 190.3 20.4 190.3 18.8C190.3 15.3 189.3 12.5 186.8 12.5C184.2 12.5 182.8 15.7001 182.7 20.9001H188.1V21Z" fill="white"/>
<path d="M197.1 21.6C197.1 15.9 201.6 11.8 206.1 11.8C210.6 11.8 215 15.8 215 21.5C215 27.2 210.5 31.4001 206 31.4001C201.6 31.5001 197.1 27.3 197.1 21.6ZM210.2 21.7001C210.2 16.5001 209.1 12.5 206.1 12.5C203 12.5 202 16.4 202 21.6C202 26.8 203 30.8 206.2 30.8C209.2 30.8 210.2 26.8001 210.2 21.7001Z" fill="white"/>
<path d="M215.9 39.0001H216.3C218.2 39.0001 218.6 38.3001 218.6 36.5001V15.7001C218.6 13.9001 218.2 13.2001 216.3 13.2001H216.1V12.5001L222.9 12.1001L222.7 16.8001H222.8C224.2 13.9001 226.1 11.9001 229 11.9001C232.8 11.9001 236.4 16.1001 236.4 21.5001C236.4 27.2001 232.8 31.2001 228.8 31.2001C225.7 31.2001 223.9 29.0001 222.9 27.0001H222.8C222.8 27.0001 223 29.7001 223 32.2001V36.5001C223 38.4001 223.4 38.9001 225.3 39.0001H226.3V39.7001H216V39.0001H215.9ZM231.4 21.7001C231.4 16.7001 230.3 13.3001 227.8 13.3001C225.5 13.3001 222.8 16.8001 222.8 21.9001C222.8 26.1001 224.9 30.3001 227.7 30.3001C230.3 30.2001 231.4 27.1001 231.4 21.7001Z" fill="white"/>
<path d="M237.5 30.1H237.7C239.5 30.1 240.1 29.6 240.1 27.5V4.50005C240.1 2.40005 239.6 1.80005 237.5 1.80005H237.2V1.10005L244.2 0.300049V27.4001C244.2 29.5001 244.7 30 246.6 30H246.8V30.7001H237.4V30.1H237.5Z" fill="white"/>
<path d="M248.1 21.7001C248.1 15.9001 252.5 11.8 257 11.8C261 11.8 265 14.9 265 20.5C265 20.7 265 21.5001 264.9 21.7001H252.8C252.8 26.7001 254.6 29.8 258.1 29.8C261.1 29.8 263.1 28.2001 264.6 25.9001L265.2 26.2001C263.5 29.2001 260.9 31.4001 256.9 31.4001C251.8 31.5001 248.1 27.7001 248.1 21.7001ZM258.1 21C259.8 21 260.3 20.4 260.3 18.8C260.3 15.3 259.3 12.5 256.8 12.5C254.2 12.5 252.8 15.7001 252.7 20.9001H258.1V21Z" fill="white"/>
</svg>
