<svg width="44" height="50" viewBox="0 0 44 50" fill="none" xmlns="http://www.w3.org/2000/svg">
<g clip-path="url(#clip0_157_120)">
<path d="M21.7488 49.603C21.7488 49.603 29.8568 45.734 36.5538 42.286C43.2508 38.838 43.2268 32.712 43.2268 32.712V22.737C43.1828 22.739 43.1378 22.74 43.0918 22.74H41.7968C40.8468 22.74 40.0758 22.223 40.0758 21.587C40.0758 20.95 40.8468 20.434 41.7968 20.434H43.0918C43.1618 20.434 43.2318 20.437 43.2998 20.442L43.2508 20.434V11.703C34.5698 8.87499 33.1308 1.68199 33.1308 1.68199L27.8478 0.664992L26.2478 3.59199L24.8218 0.416992H21.7488H21.6838H18.6108L17.1848 3.59199L15.5848 0.664992L10.3018 1.68199C10.3018 1.68199 8.86281 8.87499 0.181812 11.703V20.434L0.132812 20.442C0.200813 20.437 0.269812 20.434 0.340812 20.434H1.63581C2.58681 20.434 3.35681 20.95 3.35681 21.587C3.35681 22.224 2.58581 22.74 1.63581 22.74H0.339813C0.294813 22.74 0.249812 22.739 0.204812 22.737V32.712C0.204812 32.712 0.180812 38.838 6.87781 42.286C13.5748 45.734 21.6828 49.603 21.6828 49.603H21.7488Z" fill="#C7C7C7"/>
<path d="M21.749 48.8089C21.749 48.8089 29.113 45.2119 35.884 41.6899C42.655 38.1679 42.407 32.9349 42.407 32.9349V23.6339H40.871C40.061 23.6339 39.406 22.9349 39.406 22.0739V21.3739C39.406 20.5119 40.062 19.8139 40.871 19.8139H42.432V19.6649V12.2479C34.494 9.74294 32.524 2.42594 32.524 2.42594L28.27 1.63194L26.062 5.15394L24.202 1.21094H21.749H21.684H19.231L17.371 5.15394L15.163 1.63194L10.908 2.42594C10.908 2.42594 8.937 9.74294 1 12.2479V19.6649V19.8139H2.561C3.371 19.8139 4.026 20.5119 4.026 21.3739V22.0739C4.026 22.9349 3.37 23.6339 2.561 23.6339H1.025V32.9349C1.025 32.9349 0.777 38.1679 7.548 41.6899C14.319 45.2119 21.683 48.8089 21.683 48.8089H21.749Z" fill="white"/>
<path d="M17.185 6.96516C17.185 6.96516 14.469 3.69116 14.469 2.91016L11.976 3.43116C11.976 3.43116 11.046 6.22216 8.66504 8.63916V9.08616C8.66504 9.08616 14.06 7.30016 17.185 6.96516Z" fill="#C7C7C7"/>
<path d="M21.6921 6.59278C24.1591 6.59278 25.9961 6.96478 25.9961 6.96478C25.3271 6.70478 23.2431 2.42578 23.2431 2.42578H21.6921H21.6741H20.1241C20.1241 2.42578 18.0401 6.70378 17.3711 6.96478C17.3711 6.96478 19.2071 6.59278 21.6751 6.59278H21.6921Z" fill="#C7C7C7"/>
<path d="M26.1821 6.96516C26.1821 6.96516 28.8981 3.69116 28.8981 2.91016L31.3911 3.43116C31.3911 3.43116 32.3211 6.22216 34.7021 8.63916V9.08616C34.7021 9.08616 29.3071 7.30016 26.1821 6.96516Z" fill="#C7C7C7"/>
<path d="M21.6921 47.3331C21.6921 47.3331 28.5261 43.7611 34.8141 40.7481C41.1021 37.7351 41.1021 32.0421 41.1021 32.0421V24.7871C37.6791 24.4521 37.9391 21.4011 37.9391 21.4011C37.9391 18.6481 41.1021 18.2381 41.1021 18.2381V13.1411C39.6881 12.6951 36.1911 10.2021 36.1911 10.2021L36.1541 33.3811C36.1541 33.3811 36.6001 36.2461 31.7261 38.8501C26.8521 41.4541 21.6931 44.3191 21.6931 44.3191H21.6751C21.6751 44.3191 16.5151 41.4541 11.6421 38.8501C6.76814 36.2461 7.21414 33.3811 7.21414 33.3811L7.17614 10.2021C7.17614 10.2021 3.67914 12.6951 2.26514 13.1411V18.2381C2.26514 18.2381 5.42814 18.6481 5.42814 21.4011C5.42814 21.4011 5.68814 24.4521 2.26514 24.7871V32.0421C2.26514 32.0421 2.26514 37.7341 8.55314 40.7481C14.8411 43.7621 21.6751 47.3331 21.6751 47.3331H21.6921Z" fill="#C7C7C7"/>
<path d="M14.506 32.4882L16.85 33.8272V29.6972L20.273 27.2412V39.7802C20.273 39.7802 14.767 36.6172 12.497 35.3152C10.227 34.0132 10.488 32.3762 10.488 32.3762C10.488 32.3762 10.414 16.0062 10.488 13.3642C10.563 10.7222 20.273 10.2012 20.273 10.2012V20.5812L16.775 23.0002V13.9222L14.635 14.4432C14.635 14.4432 13.91 14.7042 13.91 16.2852V31.3162C13.91 31.3162 13.798 32.0842 14.506 32.4882Z" fill="#C7C7C7"/>
<path d="M23.063 39.7802V10.2022C23.063 10.2022 27.565 10.1272 31.471 11.7272C31.471 11.7272 32.848 12.1182 32.829 13.5872C32.81 15.0562 32.829 20.5632 32.829 20.5632C32.829 20.5632 32.996 22.3312 30.503 23.7262L32.363 25.1592C32.363 25.1592 32.851 25.4012 32.83 26.5732C32.809 27.7452 32.83 33.0472 32.83 33.0472C32.83 33.0472 32.716 34.2562 31.637 34.9442L29.367 36.2462V27.3912C29.367 27.3912 28.958 26.7962 28.4 26.4062C27.842 26.0152 26.577 25.1042 26.577 25.1042V23.5402C26.577 23.5402 28.939 21.9772 29.144 21.6802C29.349 21.3832 29.386 21.2342 29.386 20.4712C29.386 19.7082 29.386 15.2812 29.386 15.2812C29.386 15.2812 29.311 14.6302 28.474 14.4442L26.577 13.9612V37.0282C26.577 37.0282 26.428 37.8652 25.907 38.1442C25.388 38.4222 23.063 39.7802 23.063 39.7802Z" fill="#C7C7C7"/>
</g>
<defs>
<clipPath id="clip0_157_120">
<rect width="43.75" height="50.001" fill="white"/>
</clipPath>
</defs>
</svg>
