<svg width="201" height="201" viewBox="0 0 201 201" fill="none" xmlns="http://www.w3.org/2000/svg">
<g clip-path="url(#clip0_157_5)">
<mask id="mask0_157_5" style="mask-type:luminance" maskUnits="userSpaceOnUse" x="0" y="0" width="201" height="201">
<path d="M200.158 0.076416H0.722656V200.631H200.158V0.076416Z" fill="white"/>
</mask>
<g mask="url(#mask0_157_5)">
<g opacity="0.9">
<path d="M100.417 187.662C77.5669 187.662 56.0089 178.8 39.6272 162.646C23.0486 146.294 13.7917 124.47 13.5752 101.188C13.3587 77.9063 22.1958 55.9037 38.466 39.2419C54.7362 22.5801 76.4516 13.2833 99.617 13.0591C122.775 12.8415 144.674 21.723 161.253 38.0749C177.831 54.4268 187.082 76.2513 187.305 99.533C187.521 122.815 178.684 144.811 162.414 161.473C146.144 178.134 124.429 187.431 101.263 187.655C100.981 187.655 100.699 187.655 100.417 187.655V187.662ZM99.6432 15.0371C77.0027 15.2547 55.7793 24.3406 39.8765 40.6266C23.9737 56.9126 15.3334 78.414 15.5499 101.168C15.7664 123.922 24.8069 145.252 41.0115 161.235C57.0192 177.02 78.0918 185.684 100.423 185.684C100.699 185.684 100.974 185.684 101.25 185.684C123.891 185.473 145.114 176.38 161.017 160.094C176.92 143.808 185.56 122.307 185.343 99.5594C185.133 76.8052 176.086 55.4752 159.882 39.4925C143.677 23.5098 122.277 14.8195 99.6432 15.0437V15.0371Z" fill="white"/>
<path d="M198.963 103.245L197.579 103.192C196.227 103.133 195.217 101.959 195.23 100.601C195.243 99.289 196.286 98.2143 197.592 98.1681L198.976 98.122C199.652 98.0956 200.183 97.5286 200.157 96.8494C200.131 96.1703 199.58 95.6296 198.891 95.656L197.507 95.7088C196.168 95.7549 195.053 94.7131 194.955 93.3747C194.856 92.0362 195.821 90.8493 197.146 90.7043L198.523 90.5526C199.193 90.4801 199.678 89.8669 199.599 89.1944C199.527 88.5218 198.937 88.0339 198.248 88.1064L196.87 88.2581C195.538 88.4097 194.344 87.4537 194.154 86.1218C193.951 84.7965 194.817 83.5371 196.129 83.2932L197.493 83.0294C198.156 82.9042 198.589 82.258 198.471 81.592C198.346 80.9195 197.697 80.4843 197.041 80.6096L195.676 80.8668C194.364 81.1173 193.104 80.2602 192.803 78.948C192.501 77.6425 193.268 76.3172 194.554 75.9744L195.893 75.6117C196.549 75.4337 196.936 74.7612 196.759 74.1018C196.588 73.4491 195.912 73.06 195.256 73.2381L193.905 73.6073C192.612 73.9567 191.294 73.2051 190.894 71.9194C190.5 70.6402 191.156 69.2688 192.416 68.8204L193.741 68.3457C194.377 68.1215 194.712 67.416 194.482 66.7764C194.253 66.1303 193.557 65.8006 192.921 66.0313L191.609 66.4995C190.349 66.9478 188.971 66.2951 188.479 65.0489C187.987 63.8027 188.538 62.3851 189.752 61.8379L191.025 61.2708C191.641 60.9939 191.924 60.262 191.648 59.6422C191.372 59.0224 190.651 58.7455 190.028 59.0224L188.735 59.6027C187.515 60.1433 186.091 59.6027 185.501 58.4027C184.91 57.2026 185.35 55.7389 186.524 55.0993L187.771 54.4202C188.368 54.0905 188.591 53.3454 188.269 52.7454C187.948 52.1454 187.2 51.9278 186.603 52.2509L185.376 52.9168C184.202 53.5564 182.739 53.1278 182.056 51.974C181.374 50.8201 181.702 49.33 182.824 48.5981L184.005 47.8332C184.569 47.464 184.74 46.7058 184.372 46.1321C184.005 45.5585 183.244 45.3936 182.68 45.7629L181.479 46.5409C180.357 47.2662 178.868 46.9497 178.107 45.8552C177.339 44.7541 177.556 43.2442 178.619 42.4332L179.754 41.5694C180.292 41.154 180.403 40.3826 179.99 39.8419C179.583 39.3012 178.816 39.1957 178.271 39.6045L177.136 40.4683C176.073 41.2727 174.564 41.0749 173.718 40.0397C172.872 39.0045 172.97 37.4814 173.967 36.5913L175.03 35.6418C175.542 35.1935 175.588 34.4154 175.135 33.9011C174.689 33.3934 173.915 33.3407 173.41 33.7957L172.347 34.7451C171.35 35.6352 169.828 35.5495 168.909 34.5803C167.984 33.611 167.971 32.0813 168.896 31.1187L169.88 30.0967C170.352 29.6088 170.339 28.8307 169.854 28.356C169.368 27.8813 168.588 27.8945 168.122 28.3824L167.125 29.4176C166.2 30.3802 164.678 30.4132 163.687 29.5165C162.696 28.6197 162.558 27.0966 163.418 26.0681L164.33 24.9603C164.763 24.4329 164.691 23.6614 164.172 23.2262C163.654 22.7911 162.88 22.8636 162.447 23.3845L161.548 24.4724C160.695 25.501 159.18 25.6527 158.124 24.8351C157.067 24.0241 156.818 22.5076 157.592 21.4196L158.406 20.2658C158.799 19.7119 158.668 18.9405 158.117 18.5514C157.566 18.1558 156.798 18.2877 156.411 18.8482L155.585 20.0152C154.81 21.1097 153.315 21.3735 152.199 20.6416C151.084 19.9097 150.723 18.4196 151.406 17.2723L152.14 16.0459C152.488 15.4591 152.298 14.7074 151.72 14.358C151.143 14.0085 150.389 14.1931 150.041 14.78L149.313 15.9998C148.624 17.147 147.154 17.5229 145.98 16.8833C144.812 16.2371 144.333 14.78 144.93 13.5865L145.56 12.314C145.862 11.7074 145.619 10.9623 145.009 10.6656C144.399 10.3557 143.664 10.6063 143.362 11.2195L142.732 12.4854C142.135 13.6854 140.699 14.1734 139.485 13.6195C138.271 13.0656 137.681 11.6546 138.186 10.4085L138.711 9.10294C138.967 8.47655 138.665 7.75127 138.042 7.50071C137.418 7.24357 136.703 7.54687 136.447 8.17985L135.916 9.49196C135.411 10.7315 134.013 11.3381 132.767 10.8766C131.507 10.4216 130.818 9.05678 131.225 7.77764L131.652 6.43256C131.862 5.7864 131.501 5.09408 130.858 4.88309C130.208 4.6721 129.519 5.03474 129.316 5.6809L128.896 7.0062C128.489 8.28534 127.145 8.99085 125.859 8.62821C124.573 8.27216 123.779 6.96005 124.087 5.65453L124.409 4.30286C124.566 3.64351 124.16 2.97756 123.497 2.81932C122.847 2.66107 122.178 3.06987 122.027 3.73582L121.699 5.10067C121.397 6.40619 120.105 7.21719 118.8 6.96005C117.487 6.69631 116.595 5.45672 116.805 4.13143L117.022 2.7402C117.127 2.06766 116.667 1.44127 115.998 1.33578C115.322 1.23028 114.706 1.69183 114.601 2.36437L114.391 3.71604C114.181 5.04133 112.961 5.95124 111.635 5.79299C110.31 5.63475 109.326 4.4677 109.431 3.12921L109.536 1.76436C109.588 1.08522 109.083 0.491807 108.408 0.439059C107.738 0.392905 107.141 0.894012 107.089 1.57314L106.977 2.96438C106.872 4.29627 105.724 5.29848 104.393 5.24573C103.054 5.18639 101.985 4.10505 101.991 2.75998V1.3094C101.991 0.630271 101.453 0.076416 100.771 0.076416H100.758C100.089 0.076416 99.5445 0.623678 99.5445 1.30281V2.66767C99.5379 4.01274 98.4554 5.09408 97.1171 5.14024C95.7853 5.18639 94.6437 4.17758 94.5453 2.84569L94.4469 1.48083C94.401 0.801703 93.8237 0.294002 93.1348 0.340157C92.4591 0.386311 91.9539 0.979728 91.9998 1.65886L92.0982 3.05668C92.1966 4.39517 91.1994 5.55563 89.8742 5.70728C88.549 5.85234 87.3287 4.93584 87.1319 3.61054L86.9219 2.2259C86.8235 1.55336 86.1937 1.08522 85.5311 1.19072C84.8619 1.28962 84.4027 1.9226 84.5011 2.59514L84.7045 3.9534C84.9013 5.28529 84.0025 6.51828 82.6838 6.76883C81.3783 7.01939 80.0924 6.20179 79.7972 4.89628L79.4888 3.5512C79.3379 2.88525 78.6753 2.46986 78.0193 2.62811C77.3566 2.77976 76.9499 3.4457 77.1008 4.10505L77.4157 5.4765C77.7109 6.78202 76.9105 8.08754 75.6181 8.4304C74.3322 8.78645 72.9939 8.06776 72.5937 6.78861L72.1738 5.44354C71.977 4.79737 71.2881 4.42814 70.6386 4.63253C69.9957 4.83693 69.6349 5.52925 69.8382 6.17542L70.2515 7.50731C70.6517 8.78645 69.9498 10.1447 68.6901 10.5997C67.4305 11.048 66.0397 10.4414 65.5476 9.19525L65.0293 7.89633C64.78 7.26994 64.0649 6.95345 63.4351 7.2106C62.8119 7.46115 62.5035 8.17985 62.7528 8.81282L63.2777 10.1249C63.7697 11.3711 63.1727 12.7821 61.959 13.3228C60.7453 13.8635 59.302 13.3623 58.7181 12.1623L58.0948 10.8898C57.7996 10.2766 57.0648 10.0326 56.4547 10.3293C55.8445 10.626 55.5952 11.3711 55.897 11.9777L56.5203 13.2503C57.1107 14.4569 56.6253 15.9074 55.4575 16.5404C54.2831 17.18 52.8136 16.791 52.1313 15.6371L51.4162 14.4173C51.0685 13.8305 50.3206 13.6327 49.7367 13.9821C49.1528 14.3316 48.956 15.0833 49.3037 15.6701L50.0253 16.8899C50.7076 18.0437 50.3337 19.5273 49.2118 20.2526C48.09 20.9779 46.5942 20.7075 45.8266 19.6064L45.0196 18.4459C44.6325 17.8855 43.8715 17.7536 43.3139 18.1426C42.7562 18.5317 42.625 19.3031 43.0121 19.857L43.8322 21.0306C44.5932 22.1317 44.3373 23.635 43.2745 24.446C42.2117 25.257 40.6962 25.0988 39.8565 24.0636L38.9445 22.9493C38.5181 22.4218 37.744 22.3493 37.2191 22.7779C36.7008 23.2065 36.6221 23.9845 37.0485 24.512L37.9408 25.6065C38.7871 26.6417 38.6427 28.1648 37.6455 29.0615C36.6483 29.9516 35.1263 29.9121 34.2078 28.9428L33.2303 27.9208C32.7645 27.4263 31.9838 27.4131 31.4983 27.8813C31.0063 28.3494 30.9931 29.134 31.4589 29.622L32.4496 30.6571C33.3681 31.6198 33.3418 33.1561 32.4168 34.1187C31.4917 35.0814 29.9697 35.1539 28.979 34.2572L27.9162 33.3011C27.4111 32.8462 26.6369 32.8857 26.1842 33.4C25.7316 33.9011 25.7775 34.6792 26.2761 35.1341L27.3389 36.0902C28.3295 36.9869 28.4214 38.51 27.5685 39.5452C26.7156 40.5804 25.2067 40.7716 24.1505 39.9474L23.022 39.0771C22.4841 38.6617 21.7165 38.7606 21.3032 39.3012C20.8899 39.8419 20.9883 40.6199 21.5262 41.0287L22.6481 41.8991C23.7043 42.7167 23.9077 44.2332 23.1401 45.3211C22.3594 46.409 20.8767 46.7189 19.7549 45.9871L18.574 45.209C18.0032 44.8332 17.2488 44.998 16.8748 45.5651C16.5074 46.1387 16.6649 46.897 17.2291 47.2662L18.4165 48.0508C19.5318 48.7827 19.8533 50.2728 19.1644 51.4267C18.4821 52.5806 17.0126 52.996 15.8448 52.3498L14.5983 51.6575C14.0013 51.3278 13.2599 51.5454 12.9319 52.1454C12.6039 52.7454 12.8204 53.4971 13.4174 53.8202L14.6376 54.4993C15.8054 55.1455 16.245 56.6092 15.6414 57.8026C15.0444 59.0027 13.6142 59.5367 12.4005 58.9829L11.1343 58.4027C10.5176 58.1191 9.78943 58.3961 9.50733 59.0159C9.23178 59.6356 9.50733 60.3675 10.1174 60.6444L11.4099 61.2313C12.6236 61.7851 13.1681 63.2159 12.6629 64.4555C12.1578 65.6951 10.7735 66.3347 9.52045 65.8797L8.19521 65.3984C7.5654 65.161 6.85686 65.4907 6.62724 66.1368C6.39762 66.7764 6.72565 67.4819 7.36202 67.7127L8.66757 68.194C9.9272 68.649 10.5701 70.0336 10.1699 71.3062C9.76319 72.5853 8.43139 73.337 7.14552 72.9743L5.80717 72.5985C5.15111 72.4139 4.47537 72.7963 4.29824 73.4557C4.1211 74.1084 4.50162 74.7875 5.15111 74.9722L6.49603 75.348C7.77534 75.704 8.53636 77.0293 8.22802 78.3349C7.91967 79.6404 6.65348 80.4909 5.34137 80.2338L3.97677 79.9634C3.30759 79.8316 2.66466 80.2667 2.53345 80.9327C2.40224 81.6052 2.83523 82.2448 3.49785 82.3767L4.86245 82.647C6.17456 82.9042 7.02743 84.1701 6.82406 85.4888C6.62068 86.8141 5.4201 87.7636 4.09486 87.6053L2.71714 87.4471C2.04797 87.368 1.43783 87.8493 1.35911 88.5284C1.28038 89.201 1.7593 89.8142 2.43504 89.8933L3.81276 90.0581C5.13799 90.2164 6.08927 91.4098 5.9843 92.7417C5.87934 94.0802 4.75748 95.1153 3.41912 95.0626L2.04141 95.0033C1.38535 94.9703 0.794902 95.5044 0.76866 96.1835C0.742418 96.8626 1.26726 97.4363 1.943 97.4626L3.32728 97.5154C4.67875 97.5681 5.68908 98.7418 5.67596 100.107C5.66284 101.419 4.61315 102.487 3.30759 102.533L1.92988 102.579C1.25414 102.599 0.722737 103.173 0.748979 103.852C0.775222 104.518 1.31974 105.045 1.98236 105.039H2.01516L3.39944 104.992C4.7378 104.946 5.85309 105.988 5.9515 107.327C6.04991 108.665 5.08551 109.852 3.76027 109.997L2.38255 110.149C1.70682 110.221 1.22133 110.834 1.30006 111.507C1.37223 112.146 1.90363 112.608 2.52689 112.601C2.57281 112.601 2.60561 112.601 2.65154 112.601L4.02926 112.45C5.36105 112.298 6.54851 113.254 6.75189 114.579C6.95527 115.905 6.08927 117.157 4.77716 117.408L3.406 117.665C2.74339 117.79 2.31039 118.437 2.43504 119.103C2.54657 119.696 3.06485 120.111 3.64874 120.105C3.72091 120.105 3.79308 120.105 3.86524 120.085L5.22984 119.828C6.54195 119.577 7.80814 120.434 8.10337 121.74C8.40515 123.045 7.63757 124.364 6.3517 124.72L5.01334 125.083C4.36384 125.261 3.97021 125.933 4.14735 126.593C4.29824 127.147 4.79684 127.509 5.34137 127.503C5.44634 127.503 5.55131 127.49 5.64972 127.457L7.00119 127.094C8.28706 126.744 9.6123 127.496 10.0124 128.775C10.4061 130.054 9.75007 131.432 8.497 131.881L7.17177 132.349C6.53539 132.58 6.2008 133.285 6.43042 133.918C6.60756 134.426 7.08648 134.742 7.5982 134.742C7.72941 134.742 7.86719 134.716 7.9984 134.67L9.30395 134.202C10.5635 133.753 11.9413 134.406 12.4333 135.652C12.9253 136.892 12.3743 138.316 11.1605 138.863L9.88784 139.43C9.26459 139.707 8.98904 140.439 9.26459 141.059C9.47452 141.527 9.92064 141.797 10.3995 141.791C10.5635 141.791 10.7276 141.758 10.885 141.685L12.1774 141.105C13.3977 140.558 14.8213 141.105 15.4118 142.305C16.0022 143.505 15.5627 144.962 14.3883 145.608L13.1418 146.288C12.5448 146.611 12.3218 147.362 12.6432 147.956C12.8663 148.371 13.2993 148.609 13.7323 148.602C13.9225 148.602 14.1194 148.556 14.3031 148.457L15.5299 147.784C16.7042 147.145 18.1672 147.58 18.843 148.727C19.5253 149.881 19.1972 151.371 18.0754 152.096L16.8945 152.861C16.3237 153.231 16.1597 153.989 16.5271 154.562C16.7633 154.938 17.1635 155.136 17.5702 155.13C17.7933 155.13 18.0229 155.064 18.2197 154.932L19.4203 154.154C20.5422 153.428 22.0314 153.745 22.799 154.839C23.56 155.934 23.3501 157.45 22.2873 158.261L21.1523 159.125C20.6143 159.541 20.5028 160.312 20.9161 160.853C21.1588 161.176 21.5262 161.341 21.9002 161.341C22.1561 161.341 22.4119 161.255 22.6284 161.09L23.7634 160.226C24.8262 159.415 26.3351 159.62 27.1814 160.655C28.0278 161.69 27.9293 163.22 26.9321 164.103L25.8693 165.046C25.3642 165.495 25.3117 166.279 25.7644 166.787C26.0071 167.064 26.3483 167.202 26.6894 167.202C26.9781 167.202 27.2602 167.097 27.4898 166.892L28.5592 165.943C29.5564 165.053 31.0719 165.138 31.9903 166.108C32.9154 167.077 32.9285 168.607 32.0035 169.569L31.0194 170.591C30.547 171.079 30.5536 171.857 31.0456 172.332C31.2884 172.569 31.5967 172.681 31.9116 172.681C32.2265 172.681 32.5414 172.55 32.7776 172.306L33.7748 171.27C34.6999 170.308 36.2285 170.275 37.2191 171.172C38.2098 172.068 38.3475 173.591 37.4881 174.62L36.5696 175.728C36.1366 176.249 36.2088 177.027 36.7271 177.462C36.9632 177.653 37.2388 177.745 37.5209 177.745C37.8686 177.745 38.2163 177.594 38.4525 177.304L39.3513 176.222C40.2042 175.187 41.7197 175.042 42.7759 175.86C43.8387 176.671 44.0815 178.18 43.3073 179.275L42.4938 180.422C42.1002 180.976 42.2314 181.748 42.7825 182.143C42.999 182.301 43.2548 182.374 43.5041 182.367C43.8846 182.367 44.2586 182.183 44.4948 181.846L45.3214 180.679C46.0955 179.585 47.5914 179.321 48.7067 180.06C49.8219 180.798 50.1828 182.282 49.5005 183.429L48.7657 184.655C48.418 185.242 48.6082 185.994 49.1856 186.35C49.389 186.469 49.6054 186.528 49.8285 186.528C50.2418 186.528 50.642 186.31 50.8716 185.928L51.5999 184.715C52.2822 183.561 53.7583 183.185 54.9326 183.831C56.1004 184.477 56.5728 185.928 55.9758 187.128L55.3459 188.4C55.0442 189.007 55.2869 189.745 55.8905 190.049C56.0742 190.141 56.2644 190.181 56.4547 190.181C56.9008 190.181 57.3272 189.924 57.5437 189.502L58.1735 188.236C58.7706 187.036 60.2073 186.541 61.421 187.101C62.6347 187.662 63.2252 189.073 62.72 190.313L62.1886 191.618C61.9327 192.244 62.2345 192.963 62.8643 193.22C63.0152 193.286 63.1793 193.313 63.3367 193.313C63.8156 193.313 64.2683 193.022 64.4586 192.541L64.99 191.229C65.4951 189.989 66.8925 189.389 68.1456 189.844C69.3987 190.306 70.0875 191.671 69.6808 192.943L69.2543 194.288C69.051 194.935 69.4052 195.633 70.0482 195.838C70.1728 195.884 70.3106 195.904 70.4352 195.897C70.947 195.897 71.4193 195.561 71.5899 195.04L72.0098 193.715C72.4165 192.436 73.7614 191.73 75.0473 192.093C76.3332 192.455 77.127 193.761 76.8187 195.066L76.4972 196.418C76.3397 197.084 76.7465 197.743 77.4091 197.902C77.5075 197.921 77.6059 197.935 77.7043 197.935C78.2554 197.935 78.754 197.546 78.8852 196.992L79.2067 195.62C79.5151 194.315 80.8009 193.504 82.1065 193.761C83.4186 194.018 84.3108 195.264 84.1009 196.59L83.8844 197.981C83.7794 198.653 84.2387 199.28 84.9079 199.385C84.9735 199.392 85.0391 199.398 85.1112 199.398C85.6951 199.392 86.2134 198.963 86.3052 198.357L86.5152 196.998C86.7251 195.68 87.9454 194.77 89.2706 194.921C90.5959 195.08 91.5865 196.247 91.4815 197.585L91.37 198.95C91.3175 199.629 91.8227 200.223 92.4919 200.275C92.5312 200.275 92.564 200.275 92.6034 200.275C93.2332 200.275 93.7646 199.781 93.8171 199.141L93.9221 197.743C94.027 196.412 95.1751 195.409 96.5069 195.462C97.8453 195.515 98.9147 196.603 98.9081 197.948V199.346C98.9081 200.025 99.4461 200.579 100.128 200.579H100.141C100.81 200.579 101.355 200.031 101.355 199.352V197.987C101.362 196.642 102.444 195.568 103.776 195.515C105.108 195.469 106.256 196.477 106.348 197.809L106.446 199.174C106.492 199.827 107.036 200.321 107.679 200.315C107.706 200.315 107.732 200.315 107.758 200.315C108.434 200.262 108.946 199.675 108.893 198.996L108.788 197.598C108.69 196.26 109.687 195.106 111.019 194.948C112.337 194.803 113.558 195.719 113.754 197.045L113.964 198.429C114.056 199.042 114.581 199.478 115.185 199.478C115.237 199.478 115.296 199.478 115.355 199.458C116.024 199.359 116.484 198.732 116.385 198.053L116.182 196.695C115.985 195.37 116.884 194.13 118.196 193.88C119.501 193.629 120.787 194.447 121.083 195.752L121.391 197.097C121.522 197.671 122.034 198.06 122.598 198.053C122.69 198.053 122.775 198.04 122.861 198.027C123.523 197.875 123.93 197.209 123.779 196.55L123.464 195.179C123.169 193.873 123.969 192.574 125.262 192.218C126.548 191.869 127.886 192.587 128.286 193.866L128.706 195.212C128.87 195.739 129.362 196.082 129.887 196.075C130.005 196.075 130.123 196.055 130.241 196.022C130.891 195.818 131.251 195.126 131.048 194.48L130.628 193.148C130.228 191.869 130.937 190.51 132.19 190.055C133.443 189.607 134.84 190.22 135.332 191.46L135.85 192.759C136.041 193.24 136.513 193.537 136.999 193.53C137.149 193.53 137.3 193.497 137.445 193.444C138.068 193.194 138.376 192.475 138.127 191.849L137.602 190.537C137.11 189.291 137.701 187.88 138.921 187.339C140.141 186.792 141.578 187.293 142.162 188.499L142.785 189.772C143.001 190.214 143.448 190.464 143.894 190.458C144.071 190.458 144.255 190.418 144.425 190.332C145.035 190.036 145.285 189.291 144.983 188.684L144.359 187.411C143.769 186.205 144.255 184.761 145.429 184.115C146.603 183.475 148.073 183.864 148.755 185.018L149.477 186.244C149.706 186.64 150.12 186.858 150.546 186.851C150.749 186.851 150.959 186.792 151.15 186.68C151.734 186.33 151.924 185.578 151.583 184.992L150.861 183.772C150.179 182.618 150.559 181.134 151.674 180.409C152.796 179.684 154.292 179.961 155.06 181.062L155.867 182.222C156.109 182.565 156.49 182.75 156.884 182.75C157.12 182.75 157.363 182.677 157.572 182.526C158.13 182.13 158.261 181.365 157.874 180.811L157.054 179.638C156.293 178.536 156.549 177.033 157.612 176.222C158.675 175.411 160.184 175.569 161.036 176.605L161.942 177.719C162.185 178.016 162.545 178.174 162.9 178.167C163.169 178.167 163.444 178.075 163.667 177.89C164.185 177.455 164.264 176.684 163.838 176.156L162.946 175.062C162.099 174.027 162.244 172.503 163.241 171.613C164.238 170.723 165.76 170.763 166.679 171.732L167.656 172.754C167.899 173.011 168.227 173.136 168.555 173.136C168.857 173.136 169.158 173.024 169.388 172.794C169.88 172.325 169.893 171.541 169.427 171.046L168.443 170.011C167.518 169.042 167.544 167.512 168.476 166.549C169.401 165.587 170.923 165.514 171.914 166.411L172.977 167.367C173.213 167.585 173.515 167.69 173.81 167.684C174.144 167.684 174.472 167.539 174.709 167.275C175.161 166.767 175.122 165.989 174.617 165.534L173.561 164.585C172.57 163.688 172.478 162.165 173.324 161.13C174.177 160.094 175.686 159.903 176.742 160.721L177.871 161.591C178.094 161.769 178.363 161.848 178.632 161.842C178.993 161.842 179.354 161.677 179.59 161.36C180.003 160.826 179.905 160.048 179.367 159.633L178.238 158.763C177.182 157.945 176.979 156.428 177.746 155.341C178.52 154.253 180.016 153.943 181.125 154.675L182.306 155.453C182.516 155.591 182.752 155.657 182.988 155.65C183.382 155.65 183.769 155.446 184.005 155.09C184.372 154.523 184.215 153.758 183.651 153.389L182.463 152.604C181.348 151.872 181.026 150.376 181.709 149.228C182.398 148.081 183.861 147.659 185.028 148.305L186.275 148.991C186.465 149.096 186.669 149.149 186.872 149.143C187.298 149.143 187.718 148.912 187.935 148.503C188.263 147.903 188.04 147.158 187.449 146.828L186.229 146.156C185.061 145.51 184.622 144.046 185.225 142.846C185.822 141.646 187.246 141.112 188.466 141.666L189.732 142.246C189.903 142.325 190.08 142.358 190.251 142.358C190.71 142.358 191.149 142.088 191.359 141.639C191.641 141.013 191.359 140.288 190.749 140.011L189.463 139.424C188.243 138.87 187.705 137.446 188.21 136.206C188.715 134.967 190.093 134.327 191.353 134.782L192.678 135.263C192.822 135.316 192.967 135.336 193.104 135.336C193.603 135.336 194.062 135.019 194.246 134.525C194.482 133.885 194.148 133.18 193.511 132.942L192.206 132.468C190.953 132.013 190.303 130.628 190.71 129.355C191.117 128.076 192.442 127.331 193.734 127.694L195.073 128.07C195.184 128.103 195.302 128.116 195.414 128.116C195.945 128.116 196.431 127.753 196.582 127.213C196.765 126.56 196.378 125.881 195.729 125.696L194.377 125.32C193.091 124.964 192.337 123.639 192.645 122.333C192.954 121.028 194.22 120.177 195.532 120.434L196.903 120.705C196.988 120.725 197.067 120.731 197.152 120.731C197.723 120.731 198.228 120.322 198.34 119.736C198.471 119.07 198.038 118.423 197.375 118.292L196.017 118.021C194.705 117.764 193.852 116.498 194.056 115.173C194.266 113.848 195.466 112.898 196.785 113.063L198.163 113.221C198.215 113.228 198.268 113.234 198.32 113.234C198.93 113.221 199.449 112.766 199.521 112.146C199.599 111.474 199.12 110.861 198.451 110.775L197.074 110.61C195.755 110.458 194.804 109.265 194.909 107.927C195.014 106.588 196.135 105.553 197.474 105.606L198.858 105.658C198.858 105.658 198.904 105.658 198.924 105.658C199.573 105.658 200.105 105.137 200.131 104.478C200.164 103.799 199.632 103.225 198.956 103.199L198.963 103.245ZM101.316 193.154C50.4058 193.642 8.58885 152.4 8.10337 101.228C7.61788 50.0619 48.6542 8.03479 99.5707 7.55346C150.487 7.06554 192.304 48.308 192.783 99.4802C193.268 150.653 152.232 192.68 101.316 193.154Z" fill="white"/>
<path d="M45.584 47.5762L46.719 46.4883L51.2917 51.3081L55.497 47.2795L56.4549 48.2883L51.1146 53.3983L45.584 47.5696V47.5762Z" fill="white"/>
<path d="M57.5697 37.4749L59.0524 36.4792L66.7348 41.009L65.3571 41.9321L63.6383 40.8639L59.7938 43.4421L60.1087 45.453L58.7244 46.3828L57.5566 37.4815L57.5697 37.4749ZM62.3852 40.0793L59.0065 38.0288L59.597 41.952L62.3852 40.0793Z" fill="white"/>
<path d="M73.8794 28.8637L77.5599 27.7032C79.9808 26.9384 82.2376 27.3537 83.1036 30.123C83.9237 32.7472 82.5525 34.5736 80.0267 35.3715L76.2806 36.5517L73.8794 28.8637ZM78.8851 34.3099C81.4306 33.5055 82.1785 32.411 81.6143 30.6175C81.0239 28.7384 79.7971 28.4153 77.2909 29.2065L75.7754 29.6813L77.3697 34.7912L78.8851 34.3165V34.3099Z" fill="white"/>
<path d="M87.1909 25.3297L88.7326 25.0725L90.0382 33.0177L88.4964 33.2748L87.1909 25.3297Z" fill="white"/>
<path d="M93.7778 24.3209L95.4507 24.2813L98.6195 30.6309L101.525 24.1297L103.198 24.0835L99.4789 32.2397L97.8453 32.2792L93.7778 24.3209Z" fill="white"/>
<path d="M108.289 24.5649L109.844 24.743L108.945 32.7475L107.391 32.5695L108.289 24.5649Z" fill="white"/>
<path d="M115.664 25.5803L117.264 26.0023L120.978 32.9914L122.447 27.3672L123.897 27.7496L121.863 35.5431L120.479 35.1805L116.602 27.9276L115.08 33.7563L113.63 33.3739L115.664 25.5803Z" fill="white"/>
<path d="M132.301 31.1648L133.915 31.9362L133.987 40.8902L132.491 40.1781L132.524 38.1473L128.352 36.1561L126.797 37.4616L125.294 36.7429L132.301 31.1714V31.1648ZM132.544 36.6572L132.564 32.6945L129.519 35.2132L132.544 36.6572Z" fill="white"/>
<path d="M142.063 38.2201L139.111 36.1827L139.872 35.0684L147.076 40.0333L146.314 41.1476L143.362 39.1102L139.59 44.6356L138.297 43.7454L142.07 38.2201H142.063Z" fill="white"/>
<path d="M152.153 44.5234L153.452 45.7564L150.769 54.295L149.569 53.1543L150.225 51.229L146.872 48.0378L144.989 48.796L143.782 47.6422L152.16 44.5234H152.153ZM150.697 49.8246L151.937 46.0597L148.263 47.5103L150.697 49.8246Z" fill="white"/>
<path d="M33.1253 89.9131L32.6726 94.3769C32.5348 95.7351 32.3052 97.9572 29.8647 97.7066C27.4307 97.456 27.6538 95.2274 27.7915 93.8758L28.0868 90.9746L24.9902 90.6581L25.1476 89.0955L33.1253 89.9131ZM29.0905 94.3571C28.9987 95.2472 28.9987 96.0384 30.0287 96.1439C31.0521 96.2494 31.203 95.4714 31.2949 94.5813L31.6229 91.3373L29.4186 91.1131L29.0905 94.3571Z" fill="white"/>
<path d="M32.4824 104.043L32.594 105.836L24.8394 110.241L24.7344 108.586L26.5189 107.63L26.2302 102.995L24.3408 102.256L24.2358 100.588L32.4824 104.043ZM27.8244 106.924L31.2818 105.019L27.6145 103.562L27.8244 106.924Z" fill="white"/>
<path d="M32.6007 120.019C33.2371 119.604 33.6832 118.819 33.2305 116.953C32.9812 115.918 32.4695 114.935 31.7478 115.113C31.4132 115.193 31.1114 115.476 31.2951 117.085L31.4657 119.004C31.6232 120.823 31.2033 122.023 29.8977 122.347C28.0542 122.801 26.9389 121.206 26.4338 119.116C25.6137 115.76 27.0636 114.533 27.6081 114.204L28.4282 115.568C27.9296 115.99 27.2473 116.775 27.7459 118.839C28.0477 120.085 28.7103 121.021 29.386 120.856C29.8912 120.731 30.0814 120.072 29.9437 118.918L29.7468 116.979C29.55 115.113 30.088 113.907 31.2755 113.61C33.611 113.036 34.3524 116.083 34.4967 116.683C35.3168 120.052 33.9062 121.015 33.4208 121.344L32.6007 120.019Z" fill="white"/>
<path d="M36.5896 127.925L35.1463 124.628L36.3797 124.081L39.9027 132.111L38.6693 132.659L37.226 129.362L31.1181 132.065L30.4883 130.628L36.5962 127.925H36.5896Z" fill="white"/>
<path d="M41.7917 135.428L45.7542 141.454L44.6324 142.2L41.5358 137.485L39.9809 138.52L42.6511 142.582L41.5292 143.327L38.8591 139.265L37.0943 140.439L40.263 145.266L39.1412 146.011L35.1064 139.872L41.7917 135.435V135.428Z" fill="white"/>
<path d="M48.3002 144.646L49.363 145.8L44.5082 150.329L48.4576 154.609L47.4407 155.558L42.4219 150.125L48.2936 144.646H48.3002Z" fill="white"/>
<path d="M56.1987 152.637L61.8867 157.061L61.0666 158.13L56.6185 154.668L55.477 156.152L59.3018 159.132L58.4817 160.2L54.6569 157.226L53.3645 158.908L57.9175 162.448L57.0975 163.517L51.311 159.013L56.2183 152.644L56.1987 152.637Z" fill="white"/>
<path d="M65.2654 159.264L69.5232 161.525C71.2027 162.416 72.2065 163.438 71.2945 165.185C70.6057 166.497 69.287 166.728 68.2111 166.233L68.8606 170.288L67.1548 169.385L66.5709 165.488L64.3797 164.328L62.9101 167.13L61.5259 166.398L65.2654 159.277V159.264ZM67.66 164.578C68.7884 165.178 69.451 165.317 69.8971 164.473C70.3367 163.642 69.8447 163.167 68.7162 162.567L66.0461 161.15L64.9898 163.161L67.66 164.578Z" fill="white"/>
<path d="M76.6809 164.684L78.1505 165.218L75.4344 172.794L73.9648 172.26L76.6809 164.684ZM78.367 162.989L79.8168 163.517L77.6256 164.407L76.7137 164.077L78.367 162.989Z" fill="white"/>
<path d="M85.6951 167.361L87.4402 167.723L89.6183 176.407L87.9979 176.071L87.5517 174.086L83.0315 173.143L81.8244 174.778L80.1973 174.435L85.6885 167.361H85.6951ZM87.2303 172.635L86.3184 168.778L83.95 171.95L87.2303 172.635Z" fill="white"/>
<path d="M101.742 169.081L103.389 168.95L109.195 174.317L108.729 168.514L110.225 168.396L110.868 176.427L109.438 176.539L103.395 170.98L103.874 176.987L102.378 177.106L101.736 169.075L101.742 169.081Z" fill="white"/>
<path d="M118.668 166.279C122.067 165.33 123.825 166.998 124.409 169.128C124.855 170.736 124.573 173.407 120.919 174.429C117.264 175.451 115.657 173.314 115.211 171.699C114.62 169.576 115.27 167.235 118.668 166.286V166.279ZM122.88 169.464C122.362 167.598 120.794 167.09 119.029 167.585C117.264 168.079 116.182 169.325 116.7 171.191C117.31 173.387 119.121 173.525 120.564 173.123C122.008 172.721 123.49 171.66 122.88 169.464Z" fill="white"/>
<path d="M126.981 163.701L131.297 161.558C132.997 160.714 134.414 160.497 135.28 162.264C135.936 163.596 135.345 164.802 134.315 165.382L137.963 167.229L136.231 168.086L132.754 166.279L130.53 167.38L131.921 170.222L130.517 170.921L126.974 163.701H126.981ZM132.669 164.868C133.817 164.301 134.315 163.84 133.895 162.989C133.482 162.145 132.813 162.264 131.671 162.831L128.962 164.176L129.959 166.213L132.669 164.868Z" fill="white"/>
<path d="M137.897 157.774L143.69 153.501L144.484 154.589L139.951 157.932L141.053 159.442L144.957 156.567L145.75 157.655L141.847 160.53L143.1 162.244L147.738 158.822L148.532 159.91L142.628 164.262L137.891 157.767L137.897 157.774Z" fill="white"/>
<path d="M152.829 148.035C152.14 147.718 151.242 147.751 149.916 149.129C149.181 149.894 148.624 150.85 149.155 151.365C149.398 151.602 149.798 151.714 151.058 150.705L152.586 149.538C154.036 148.437 155.27 148.16 156.234 149.103C157.592 150.428 156.844 152.228 155.355 153.771C152.96 156.25 151.156 155.67 150.592 155.38L151.301 153.963C151.917 154.167 152.941 154.332 154.417 152.802C155.309 151.879 155.742 150.824 155.243 150.336C154.869 149.973 154.213 150.165 153.308 150.89L151.779 152.09C150.31 153.25 149.011 153.428 148.132 152.578C146.406 150.897 148.578 148.648 149.011 148.2C151.412 145.714 152.973 146.4 153.511 146.644L152.829 148.048V148.035Z" fill="white"/>
<path d="M157.382 140.452L155.368 143.426L154.259 142.668L159.173 135.415L160.282 136.173L158.268 139.147L163.779 142.918L162.9 144.217L157.389 140.446L157.382 140.452Z" fill="white"/>
<path d="M160.977 132.026L163.969 125.459L165.189 126.019L162.854 131.156L164.546 131.934L166.56 127.509L167.781 128.07L165.767 132.494L167.689 133.378L170.083 128.123L171.304 128.683L168.26 135.369L160.977 132.019V132.026Z" fill="white"/>
<path d="M165.327 121.687L165.734 120.078L172.668 116.3L167.059 114.863L167.426 113.406L175.194 115.397L174.84 116.795L167.649 120.738L173.462 122.228L173.095 123.685L165.327 121.694V121.687Z" fill="white"/>
<path d="M170.93 102.83C170.195 103.034 169.539 103.647 169.408 105.559C169.336 106.621 169.526 107.709 170.267 107.762C170.608 107.788 170.982 107.61 171.291 106.021L171.704 104.135C172.098 102.348 172.865 101.34 174.204 101.425C176.093 101.551 176.677 103.417 176.533 105.559C176.303 109.008 174.551 109.733 173.935 109.885L173.561 108.335C174.164 108.085 175.05 107.544 175.194 105.421C175.279 104.135 174.932 103.047 174.243 103.001C173.725 102.968 173.344 103.542 173.128 104.683L172.734 106.588C172.353 108.428 171.481 109.417 170.261 109.331C167.859 109.166 168.069 106.041 168.115 105.421C168.345 101.959 169.985 101.471 170.549 101.307L170.936 102.823L170.93 102.83Z" fill="white"/>
<path d="M168.483 97.0539L167.774 89.8669L169.113 89.7351L169.67 95.3593L171.527 95.1747L171.048 90.3351L172.386 90.2032L172.865 95.0429L174.971 94.8319L174.4 89.0757L175.739 88.9438L176.46 96.2627L168.483 97.0605V97.0539Z" fill="white"/>
<path d="M35.1787 68.4247C35.1787 68.0357 35.4936 67.7192 35.8807 67.7192C36.2678 67.7192 36.5827 68.0357 36.5827 68.4247C36.5827 68.8138 36.2678 69.1303 35.8807 69.1303C35.4936 69.1303 35.1787 68.8138 35.1787 68.4247Z" fill="white"/>
<path d="M35.8807 70.4491C34.772 70.4491 33.8667 69.5392 33.8667 68.4248C33.8667 67.3105 34.772 66.4072 35.8807 66.4006C36.996 66.4006 37.9014 67.3105 37.9014 68.4248C37.9014 69.5392 36.996 70.4491 35.8873 70.4491H35.8807ZM35.8807 67.8117C35.5462 67.8117 35.2706 68.0886 35.2706 68.4248C35.2706 68.7611 35.5462 69.038 35.8807 69.038C36.2153 69.038 36.4909 68.7611 36.4909 68.4248C36.4909 68.0886 36.2153 67.8117 35.8807 67.8117Z" fill="white"/>
<path d="M165.681 68.4247C165.681 68.0357 165.366 67.7192 164.979 67.7192C164.592 67.7192 164.277 68.0357 164.277 68.4247C164.277 68.8138 164.592 69.1303 164.979 69.1303C165.366 69.1303 165.681 68.8138 165.681 68.4247Z" fill="white"/>
<path d="M164.979 70.4491C163.871 70.4491 162.965 69.5392 162.965 68.4248C162.965 67.3105 163.871 66.4006 164.979 66.4006C166.095 66.4006 166.993 67.3105 166.993 68.4248C166.993 69.5392 166.088 70.4491 164.979 70.4491ZM164.979 67.8117C164.645 67.8117 164.369 68.0886 164.369 68.4248C164.369 68.7611 164.645 69.038 164.973 69.038C165.314 69.038 165.583 68.7611 165.583 68.4248C165.583 68.0886 165.307 67.8117 164.973 67.8117H164.979Z" fill="white"/>
<path d="M141.046 98.9726C141.046 107.472 139.118 114.823 135.26 121.008C131.251 127.496 125.426 132.23 117.783 135.217C112.587 137.228 104.832 138.237 94.519 138.237H67.3583C66.243 138.237 65.6919 137.94 65.6919 137.34C65.6919 136.595 66.7284 136.259 68.8081 136.331C71.9966 136.404 73.9254 135.844 74.5946 134.657C74.8898 134.136 75.0407 131.861 75.0407 127.832V70.8908C75.0407 67.6072 74.8176 65.5962 74.3715 64.8511C73.6302 63.5061 71.7342 62.8731 68.6966 62.9522C67.063 63.0247 66.2495 62.6555 66.2495 61.8313C66.2495 61.1588 66.7678 60.8225 67.8109 60.8225H69.8119C74.2665 60.8225 78.5703 60.8621 82.7231 60.9346C88.6604 61.0071 93.2594 61.0467 96.5265 61.0467C110.028 61.0467 120.381 63.8423 127.584 69.4336C136.559 76.4426 141.053 86.2867 141.053 98.966L141.046 98.9726ZM121.791 99.0253C121.791 86.7021 119.974 77.6821 116.339 71.9656C112.705 66.249 106.991 63.394 99.1967 63.394C96.3756 63.394 94.519 63.6907 93.6333 64.2907C92.4458 65.0358 91.8554 66.7962 91.8554 69.5523V126.916C91.8554 131.848 92.1506 134.571 92.7476 135.092C93.6399 135.916 95.6015 136.325 98.6456 136.325C114.076 136.325 121.798 123.889 121.798 99.0187L121.791 99.0253Z" fill="white"/>
</g>
</g>
</g>
<defs>
<clipPath id="clip0_157_5">
<rect width="201" height="201" fill="white"/>
</clipPath>
</defs>
</svg>
