<svg width="491" height="737" viewBox="0 0 491 737" fill="none" xmlns="http://www.w3.org/2000/svg">
<g clip-path="url(#clip0_157_129)">
<path d="M245 80C245 80 298 85 367 108C430 129 491 162 491 162V171C491 396 443 535 245 655C245 655 214 635 184 613C33 496 0 365 0 171V162C0 162 60 129 124 108C193 85 245 80 245 80Z" fill="#C7C7C7"/>
<path d="M125 113C194 90 245 85 245 85C245 85 297 90 366 113C428 134 485 165 485 165V171C485 364 453 494 303 609C274 631 245 648 245 648C245 648 217 631 188 609C38 494 6 364 6 171V165C6 165 63 134 125 113Z" fill="white"/>
<path d="M315 422L331 367L351 423L441 398L381 222H282L245 288L208 222H110L50 398L140 423L160 367L176 422H315Z" fill="#C7C7C7"/>
<path d="M99 134V209L39 384C25 335 16 269 16 171C16 171 51 152 99 134ZM99 425V504C80 477 62 450 48 411L99 425ZM305 434V593C273 619 245 636 245 636C245 636 217 619 184 592V436H305V434ZM391 505V425L443 410C428 450 410 478 391 505ZM305 209H276L245 264L215 209H184V107C222 98 245 96 245 96C245 96 269 98 305 107V209ZM391 209V133C439 152 475 171 475 171C475 270 465 336 451 386L391 209Z" fill="#C7C7C7"/>
<path d="M32 97L16 109L22 90L6 78H26L32 59L39 78H59L42 90L49 109L32 97ZM139 60L122 72L129 52L112 40H133L139 21L145 40H166L149 52L155 72L139 60ZM245 39L229 51L235 32L219 20H239L245 0L252 20H272L256 32L262 51L245 39ZM352 60L336 72L342 52L325 40H346L352 21L358 40H379L362 52L369 72L352 60ZM459 97L442 109L448 90L432 78H452L459 59L465 78H485L469 90L475 109L459 97Z" fill="#C7C7C7"/>
<path d="M86 605L69 617L75 597L59 585H79L86 566L92 585H112L96 597L102 617L86 605ZM166 674L149 686L155 666L139 654H159L166 635L172 654H192L176 666L182 686L166 674ZM245 725L229 737L235 718L219 706H239L245 686L252 706H272L256 718L262 737L245 725ZM325 674L309 686L315 666L299 654H319L325 635L332 654H352L336 666L342 686L325 674ZM405 605L389 617L395 597L379 585H399L405 566L412 585H432L416 597L422 617L405 605Z" fill="#C7C7C7"/>
</g>
<defs>
<clipPath id="clip0_157_129">
<rect width="491" height="737" fill="white"/>
</clipPath>
</defs>
</svg>
