<svg width="144" height="216" viewBox="0 0 144 216" fill="none" xmlns="http://www.w3.org/2000/svg">
<g clip-path="url(#clip0_285_15)">
<mask id="mask0_285_15" style="mask-type:luminance" maskUnits="userSpaceOnUse" x="0" y="0" width="144" height="216">
<path d="M143.902 0H0V216H143.902V0Z" fill="white"/>
</mask>
<g mask="url(#mask0_285_15)">
<path d="M71.8046 23.4463C71.8046 23.4463 87.3379 24.9117 107.56 31.6525C126.024 37.8072 143.902 47.4789 143.902 47.4789V50.1166C143.902 116.06 129.834 156.798 71.8046 191.967C71.8046 191.967 62.7191 186.106 53.9267 179.658C9.67164 145.368 0 106.974 0 50.1166V47.4789C0 47.4789 17.5848 37.8072 36.3419 31.6525C56.5645 24.9117 71.8046 23.4463 71.8046 23.4463Z" fill="#C7C7C7"/>
<path d="M36.6353 33.1181C56.8578 26.3773 71.8049 24.9119 71.8049 24.9119C71.8049 24.9119 87.0451 26.3773 107.268 33.1181C125.439 39.2728 142.144 48.3583 142.144 48.3583V50.1168C142.144 106.681 132.766 144.782 88.8036 178.486C80.3042 184.934 71.8049 189.916 71.8049 189.916C71.8049 189.916 63.5987 184.934 55.0994 178.486C11.1374 144.782 1.75879 106.681 1.75879 50.1168V48.3583C1.75879 48.3583 18.4644 39.2728 36.6353 33.1181Z" fill="white"/>
<path d="M92.3205 123.68L97.0098 107.56L102.871 123.973L129.249 116.646L111.664 65.0637H82.6489L71.8049 84.407L60.9609 65.0637H32.2391L14.6543 116.646L41.0315 123.973L46.8931 107.56L51.5824 123.68H92.3205Z" fill="#C7C7C7"/>
<path d="M29.0151 39.2728V61.2538L11.4303 112.543C7.32717 98.1819 4.68945 78.8386 4.68945 50.1167C4.68945 50.1167 14.9473 44.5482 29.0151 39.2728ZM29.0151 124.559V147.712C23.4466 139.799 18.1711 131.886 14.068 120.456L29.0151 124.559ZM89.3896 127.197V173.797C80.011 181.417 71.8048 186.399 71.8048 186.399C71.8048 186.399 63.5985 181.417 53.9269 173.503V127.783H89.3896V127.197ZM114.594 148.005V124.559L129.835 120.163C125.438 131.886 120.163 140.092 114.594 148.005ZM89.3896 61.2538H80.8903L71.8048 77.3732L63.0124 61.2538H53.9269V31.3596C65.0639 28.7219 71.8048 28.1357 71.8048 28.1357C71.8048 28.1357 78.8387 28.7219 89.3896 31.3596V61.2538ZM114.594 61.2538V38.9797C128.662 44.5482 139.213 50.1167 139.213 50.1167C139.213 79.1317 136.282 98.475 132.179 113.129L114.594 61.2538Z" fill="#C7C7C7"/>
<path d="M9.37887 28.4288L4.68959 31.9457L6.44807 26.3772L1.75879 22.8602H7.62039L9.37887 17.2917L11.4304 22.8602H17.292L12.3097 26.3772L14.3612 31.9457L9.37887 28.4288ZM40.7384 17.5848L35.7561 21.1018L37.8076 15.2402L32.8253 11.7232H38.98L40.7384 6.15468L42.4969 11.7232H48.6516L43.6692 15.2402L45.4277 21.1018L40.7384 17.5848ZM71.8049 11.4301L67.1156 14.9471L68.8741 9.37856L64.1848 5.8616H70.0464L71.8049 0L73.8565 5.8616H79.7181L75.0288 9.37856L76.7873 14.9471L71.8049 11.4301ZM103.164 17.5848L98.4752 21.1018L100.234 15.2402L95.2513 11.7232H101.406L103.164 6.15468L104.923 11.7232H111.078L106.095 15.2402L108.147 21.1018L103.164 17.5848ZM134.524 28.4288L129.542 31.9457L131.3 26.3772L126.611 22.8602H132.472L134.524 17.2917L136.283 22.8602H142.144L137.455 26.3772L139.213 31.9457L134.524 28.4288Z" fill="#C7C7C7"/>
<path d="M25.2052 177.313L20.2228 180.83L21.9813 174.969L17.292 171.452H23.1536L25.2052 165.883L26.9636 171.452H32.8252L28.136 174.969L29.8944 180.83L25.2052 177.313ZM48.6516 197.536L43.6692 201.053L45.4277 195.191L40.7384 191.674H46.6L48.6516 186.106L50.41 191.674H56.2716L51.5824 195.191L53.3408 201.053L48.6516 197.536ZM71.8049 212.483L67.1156 216L68.8741 210.431L64.1848 206.915H70.0464L71.8049 201.053L73.8564 206.915H79.718L75.0288 210.431L76.7872 216L71.8049 212.483ZM95.2513 197.536L90.562 201.053L92.3205 195.191L87.6312 191.674H93.4928L95.2513 186.106L97.3028 191.674H103.164L98.4752 195.191L100.234 201.053L95.2513 197.536ZM118.698 177.313L114.008 180.83L115.767 174.969L111.078 171.452H116.939L118.698 165.883L120.749 171.452H126.611L121.922 174.969L123.68 180.83L118.698 177.313Z" fill="#C7C7C7"/>
</g>
</g>
<defs>
<clipPath id="clip0_285_15">
<rect width="143.902" height="216" fill="white"/>
</clipPath>
</defs>
</svg>
