<svg width="158" height="42" viewBox="0 0 158 42" fill="none" xmlns="http://www.w3.org/2000/svg">
<path fill-rule="evenodd" clip-rule="evenodd" d="M30.8143 15.9803C29.485 17.3073 26.8498 19.8171 24.7362 21.9085C19.7465 26.4482 19.6667 29.374 19.935 30.7447C16.2619 26.4507 19.1751 23.2328 21.0435 21.4107C21.9005 20.5704 27.1943 15.3822 28.4066 14.2298C32.6936 10.1519 32.6924 8.93134 32.6924 8.93134C34.3216 12.7661 32.1423 14.6556 30.8143 15.9803ZM30.6871 22.3437C29.3823 23.6164 29.9061 23.1067 27.7922 25.1696C24.3538 28.5164 24.3343 30.7447 24.3343 30.7447C22.4153 28.6484 23.5932 25.1637 25.657 23.1535C26.5141 22.3161 28.1102 20.8106 29.2471 19.7363C31.5701 17.5435 32.2956 16.9016 32.6244 16.0557C33.5137 19.7319 31.5594 21.4152 30.6871 22.3437ZM16.4564 19.696C17.409 18.7789 23.4724 12.8453 24.6299 11.7252C28.3866 8.08708 28.2176 6.94476 28.2176 6.94476C29.8398 10.7791 27.6163 12.8744 26.2792 14.1894C24.8225 15.6226 21.1353 19.2278 19.0113 21.3054C13.6778 26.5216 15.5894 30.7438 15.5894 30.7438C12.203 28.2473 12.9625 23.0916 16.4564 19.696ZM14.2427 15.6019C15.2014 14.66 20.3527 9.63386 22.0965 7.94616C25.7586 4.40056 25.5462 2.99194 25.7118 2.2534C28.277 4.87115 26.7025 7.52726 25.3111 8.90673C24.0921 10.1153 18.3721 15.8618 16.0468 17.9709C15.4544 18.5085 11.6035 22.0218 11.8545 25.278C9.7054 22.5711 10.2834 19.1406 14.2427 15.6019ZM9.5342 14.1652C10.3975 13.2712 16.9458 6.91726 18.0561 5.8056C20.7651 3.10055 20.2294 0.919568 20.2294 0.919568C23.3643 3.29206 22.2114 5.85386 20.5105 7.4922C19.1306 8.82851 14.2405 13.7202 11.9815 15.8745C8.3962 19.3006 8.8315 22.13 9.5098 24.5512C6.8825 21.8686 5.6901 18.1481 9.5342 14.1652ZM20.3542 0.0732422C9.5269 0.0732422 0.75 8.80142 0.75 19.5684C0.75 29.51 8.2338 37.713 17.905 38.9118V36.1519C14.6737 35.6688 11.4497 34.5804 9.3012 31.6486H31.4067C29.2577 34.5804 26.0341 35.6688 22.8028 36.1519V38.9118C32.4741 37.713 39.9578 29.51 39.9578 19.5684C39.9578 8.80142 31.1806 0.0732422 20.3542 0.0732422Z" fill="white"/>
<path fill-rule="evenodd" clip-rule="evenodd" d="M58.4486 11.975C59.3908 11.975 60.2912 11.9543 61.2537 11.9134C61.5815 11.9134 61.7042 11.8322 61.7042 11.5063C61.7042 10.468 61.1716 9.45033 60.2507 9.45033C59.411 9.45033 58.6332 10.3661 58.4486 11.975ZM63.8538 15.9648C62.6052 17.6953 61.0695 18.1023 60.2912 18.1023C57.6505 18.1023 56.1562 16.0868 56.1562 13.7459C56.1562 12.2388 56.7494 10.977 57.6099 10.1219C58.4902 9.20617 59.616 8.65625 60.6804 8.65625H60.701C62.523 8.65625 63.9355 10.2238 63.9355 11.8529C63.9355 12.2596 63.8128 12.4836 63.3825 12.5648C63.035 12.6056 60.5169 12.809 58.3465 12.8906C58.4079 15.2932 59.7591 16.4129 61.2126 16.4129C62.0111 16.4129 62.7889 16.1277 63.5057 15.4763L63.8538 15.9648Z" fill="white"/>
<path fill-rule="evenodd" clip-rule="evenodd" d="M72.8002 15.9446C71.8787 17.2064 70.5272 18.1023 69.2996 18.1023C66.5767 18.1023 64.9795 16.0056 64.9795 13.8069C64.9795 12.2802 65.7166 10.875 67.047 9.87762C68.2757 8.96187 69.5856 8.65625 70.364 8.65625H70.3841C71.1416 8.65625 71.8175 8.90083 72.165 9.1652C72.452 9.38929 72.5338 9.59262 72.5338 9.87762C72.5136 10.4073 72.0224 10.8958 71.7149 10.8958C71.5922 10.8958 71.469 10.8348 71.2847 10.6713C70.5272 9.99984 69.852 9.6945 69.2173 9.6945C68.2143 9.6945 67.2114 10.6107 67.2114 12.7685C67.2114 15.5168 69.156 16.4129 70.1386 16.4129C70.9987 16.4129 71.6125 16.1892 72.4313 15.4763L72.8002 15.9446Z" fill="white"/>
<path fill-rule="evenodd" clip-rule="evenodd" d="M79.2082 17.8581V17.2477C80.1908 17.1251 80.3136 17.0232 80.3136 15.5984V12.1581C80.3136 10.7126 79.6998 10.1011 78.7373 10.1011C78.1031 10.1011 77.5298 10.4271 76.956 10.875V15.7412C76.956 17.0438 77.0794 17.1251 78.0408 17.2477V17.8581H73.292V17.2477C74.602 17.0843 74.7045 17.0232 74.7045 15.6796V11.4659C74.7045 10.2237 74.602 10.1425 73.5578 9.93862V9.40946C74.6425 9.24654 75.8511 8.98162 76.956 8.61523V10.1631C77.3655 9.87758 77.7957 9.55175 78.2664 9.24654C78.8601 8.85954 79.31 8.65621 79.9042 8.65621C81.5419 8.65621 82.566 9.83729 82.566 11.8529V15.7412C82.566 17.0438 82.689 17.105 83.795 17.2477V17.8581H79.2082Z" fill="white"/>
<path fill-rule="evenodd" clip-rule="evenodd" d="M87.1708 12.8706C87.1708 15.3947 88.0928 17.3491 89.5258 17.3491C90.4878 17.3491 91.3878 16.6979 91.3878 13.7661C91.3878 11.1193 90.5698 9.4095 89.0748 9.4095C88.0928 9.4095 87.1708 10.5492 87.1708 12.8706ZM93.9478 13.2166C93.9478 16.4945 91.5728 18.1023 89.3008 18.1023C86.2298 18.1023 84.6118 15.8224 84.6118 13.5828C84.6118 10.2848 87.2118 8.65625 89.3818 8.65625C92.1048 8.65625 93.9478 10.7531 93.9478 13.2166Z" fill="white"/>
<path fill-rule="evenodd" clip-rule="evenodd" d="M94.521 17.8582V17.2478C95.77 17.0843 95.914 16.9828 95.914 15.6595V6.23344C95.914 4.93081 95.811 4.88998 94.603 4.74742V4.19763C95.75 4.07555 97.183 3.77048 98.165 3.48535V15.6595C98.165 17.0233 98.309 17.1251 99.578 17.2478V17.8582H94.521Z" fill="white"/>
<path fill-rule="evenodd" clip-rule="evenodd" d="M104.266 7.59789C104.593 6.72215 105.269 4.68662 105.413 4.29962C105.617 4.17753 107.132 4.01462 107.439 4.0758L107.541 4.27954L104.88 7.8624L104.266 7.59789ZM102.874 12.8708C102.874 15.3949 103.795 17.3493 105.228 17.3493C106.19 17.3493 107.091 16.6981 107.091 13.7663C107.091 11.1196 106.272 9.40974 104.777 9.40974C103.795 9.40974 102.874 10.5494 102.874 12.8708ZM109.649 13.2168C109.649 16.4948 107.275 18.1026 105.003 18.1026C101.932 18.1026 100.314 15.8226 100.314 13.5831C100.314 10.2851 102.914 8.65649 105.085 8.65649C107.808 8.65649 109.649 10.7533 109.649 13.2168Z" fill="white"/>
<path fill-rule="evenodd" clip-rule="evenodd" d="M113.397 11.6895C113.397 13.1758 113.97 14.3159 114.994 14.3159C115.812 14.3159 116.386 13.5012 116.386 11.9543C116.386 10.5295 115.833 9.36867 114.768 9.36867C114.072 9.36867 113.397 10.1632 113.397 11.6895ZM113.295 18.6322C112.906 18.9778 112.66 19.3849 112.66 19.8738C112.66 20.9116 113.724 21.8283 115.321 21.8283C117 21.8283 117.941 20.9322 117.941 19.7921C117.941 19.0595 117.491 18.6116 116.877 18.4081C116.344 18.2452 115.853 18.2044 115.034 18.2044C114.052 18.2044 113.601 18.3269 113.295 18.6322ZM120.05 9.06333C119.907 9.4095 119.518 10.02 119.17 10.2439L117.982 10.1632C118.33 10.5906 118.556 11.1193 118.556 11.8115C118.556 13.9698 116.672 15.0283 114.768 15.0283C114.42 15.0283 114.072 14.9673 113.745 14.927C113.54 15.0895 113.335 15.3543 113.335 15.5984C113.335 15.9446 113.684 16.3723 114.645 16.3517C115.342 16.3517 115.976 16.3311 116.631 16.3311C117.901 16.3311 119.702 16.6979 119.702 18.7739C119.702 21.0342 117.102 22.9272 114.379 22.9272C111.882 22.9272 110.674 21.5842 110.653 20.4439C110.653 19.9758 110.879 19.6296 111.247 19.3036C111.718 18.8966 112.332 18.4894 112.823 18.1432C112.025 17.8789 111.575 17.4713 111.308 17.0233C111.103 16.7181 111.001 16.2704 111.022 16.0257C112.004 15.6595 112.66 15.1101 113.008 14.7231C111.882 14.3361 111.084 13.3181 111.084 12.0154C111.084 9.71471 113.192 8.65625 114.932 8.65625H114.953C115.73 8.65625 116.344 8.83937 117.061 9.18541C118.085 9.14513 119.149 9.0225 119.948 8.92104L120.05 9.06333Z" fill="white"/>
<path fill-rule="evenodd" clip-rule="evenodd" d="M121.523 5.90766C121.523 5.17462 122.117 4.60449 122.834 4.60449C123.55 4.60449 124.123 5.17462 124.123 5.90766C124.123 6.59946 123.55 7.19021 122.813 7.19021C122.117 7.19021 121.523 6.59946 121.523 5.90766ZM120.479 17.8578V17.2474C121.708 17.1248 121.83 17.0229 121.83 15.5981V11.506C121.83 10.2032 121.729 10.1216 120.643 9.95906V9.38893C121.81 9.24622 123.038 8.9813 124.083 8.63568V15.5981C124.083 16.9825 124.185 17.1047 125.454 17.2474V17.8578H120.479Z" fill="white"/>
<path fill-rule="evenodd" clip-rule="evenodd" d="M134.032 15.9446C133.111 17.2064 131.76 18.1023 130.532 18.1023C127.809 18.1023 126.212 16.0056 126.212 13.8069C126.212 12.2802 126.949 10.875 128.28 9.87762C129.508 8.96187 130.818 8.65625 131.596 8.65625H131.617C132.374 8.65625 133.05 8.90083 133.398 9.1652C133.685 9.38929 133.766 9.59262 133.766 9.87762C133.746 10.4073 133.254 10.8958 132.947 10.8958C132.825 10.8958 132.702 10.8348 132.517 10.6713C131.76 9.99984 131.084 9.6945 130.45 9.6945C129.447 9.6945 128.444 10.6107 128.444 12.7685C128.444 15.5168 130.388 16.4129 131.371 16.4129C132.231 16.4129 132.845 16.1892 133.664 15.4763L134.032 15.9446Z" fill="white"/>
<path fill-rule="evenodd" clip-rule="evenodd" d="M137.185 12.8706C137.185 15.3947 138.106 17.3491 139.539 17.3491C140.501 17.3491 141.403 16.6979 141.403 13.7661C141.403 11.1193 140.584 9.4095 139.09 9.4095C138.106 9.4095 137.185 10.5492 137.185 12.8706ZM143.962 13.2166C143.962 16.4945 141.586 18.1023 139.314 18.1023C136.243 18.1023 134.626 15.8224 134.626 13.5828C134.626 10.2848 137.226 8.65625 139.397 8.65625C142.119 8.65625 143.962 10.7531 143.962 13.2166Z" fill="white"/>
<path fill-rule="evenodd" clip-rule="evenodd" d="M52.8555 28.8249C52.4666 28.1126 51.8115 27.7866 51.1361 27.7866C50.4808 27.7866 48.8637 28.3976 48.8637 31.4516C48.8637 33.9151 50.3377 34.9529 51.4227 34.9529C51.9343 34.9529 52.3849 34.79 52.8555 34.4847V28.8249ZM56.5814 35.6245C56.0903 35.7063 54.3297 35.9504 52.8555 36.4192V35.1765L51.6068 35.9503C50.9926 36.3166 50.604 36.3984 50.3786 36.3984C48.659 36.3984 46.3252 34.9529 46.3252 31.9807C46.3252 29.2113 48.7817 26.9517 51.8321 26.9517C52.0369 26.9517 52.3849 26.9931 52.8555 27.0944V24.4886C52.8555 23.308 52.7327 23.2062 51.4022 23.084V22.4937C52.6305 22.3508 54.1659 22.0664 55.1075 21.7812V33.6704C55.1075 34.79 55.2305 34.8713 56.0497 34.9731L56.5814 35.0346V35.6245Z" fill="white"/>
<path fill-rule="evenodd" clip-rule="evenodd" d="M59.7222 30.2698C60.664 30.2698 61.5649 30.2497 62.5269 30.2088C62.8545 30.2088 62.9774 30.1276 62.9774 29.8017C62.9774 28.7633 62.4452 27.7457 61.5239 27.7457C60.6847 27.7457 59.9065 28.6614 59.7222 30.2698ZM65.127 34.2601C63.878 35.9907 62.3433 36.3978 61.5649 36.3978C58.9243 36.3978 57.4297 34.3824 57.4297 32.0412C57.4297 30.5347 58.0232 29.2724 58.8831 28.4173C59.7634 27.5015 60.8892 26.9512 61.9541 26.9512H61.9744C63.7963 26.9512 65.2087 28.5191 65.2087 30.1477C65.2087 30.5549 65.086 30.7794 64.6562 30.8601C64.3082 30.9011 61.7897 31.1043 59.6204 31.1861C59.6817 33.5886 61.0328 34.7082 62.4858 34.7082C63.2849 34.7082 64.0621 34.4225 64.7789 33.7717L65.127 34.2601Z" fill="white"/>
<path fill-rule="evenodd" clip-rule="evenodd" d="M81.9556 36.1542V35.5024C83.532 35.3399 83.635 35.197 83.614 33.2223L83.573 25.2216H83.471L78.7825 36.0113H78.2713L73.9512 25.4456H73.8695L73.6036 30.9424C73.5215 32.6321 73.5215 33.5482 73.5829 34.2606C73.6443 35.197 74.0739 35.3599 75.4458 35.4822V36.1542H70.5732V35.4822C71.7402 35.3801 72.1294 35.0547 72.2729 34.3011C72.3958 33.6295 72.5382 32.6321 72.6818 30.4944L72.9888 26.4022C73.1735 23.9593 73.0299 23.7352 71.2491 23.5723V22.9209H75.1592L79.356 32.286L83.635 22.9209H87.524V23.5723C85.825 23.7352 85.743 23.8578 85.784 25.6897L85.969 33.2223C86.03 35.197 86.112 35.3399 87.77 35.5024V36.1542H81.9556Z" fill="white"/>
<path fill-rule="evenodd" clip-rule="evenodd" d="M90.996 31.1653C90.996 33.69 91.917 35.6446 93.351 35.6446C94.313 35.6446 95.214 34.9932 95.214 32.0614C95.214 29.4147 94.395 27.7048 92.9 27.7048C91.917 27.7048 90.996 28.8445 90.996 31.1653ZM97.773 31.5119C97.773 34.7894 95.398 36.3978 93.125 36.3978C90.054 36.3978 88.438 34.1179 88.438 31.8783C88.438 28.5802 91.037 26.9512 93.207 26.9512C95.93 26.9512 97.773 29.0484 97.773 31.5119Z" fill="white"/>
<path fill-rule="evenodd" clip-rule="evenodd" d="M104.339 36.154V35.5429C105.321 35.421 105.443 35.3191 105.443 33.8943V30.4538C105.443 29.008 104.83 28.3974 103.867 28.3974C103.233 28.3974 102.659 28.7234 102.087 29.1709V34.037C102.087 35.3397 102.209 35.421 103.171 35.5429V36.154H98.4219V35.5429C99.7319 35.38 99.8339 35.3191 99.8339 33.9754V29.7616C99.8339 28.5195 99.7319 28.4383 98.6879 28.2345V27.7052C99.7729 27.5423 100.981 27.2774 102.087 26.9111V28.4585C102.496 28.1733 102.926 27.8475 103.397 27.5423C103.99 27.1553 104.44 26.9516 105.034 26.9516C106.672 26.9516 107.696 28.1325 107.696 30.1481V34.037C107.696 35.3397 107.819 35.4008 108.924 35.5429V36.154H104.339Z" fill="white"/>
<path fill-rule="evenodd" clip-rule="evenodd" d="M113.534 36.1538C113.166 36.3162 112.859 36.398 112.695 36.398C111.221 36.398 110.362 35.6447 110.362 33.8733V28.1122H109.031L108.928 27.8881L109.501 27.1959H110.362V25.7096L112.327 24.2031L112.613 24.305V27.1959H114.722C114.947 27.42 114.906 27.9492 114.599 28.1122H112.613V33.2019C112.613 34.8102 113.33 35.0342 113.781 35.0342C114.189 35.0342 114.579 34.9121 114.906 34.7694L115.09 35.4006L113.534 36.1538Z" fill="white"/>
<path fill-rule="evenodd" clip-rule="evenodd" d="M117.819 30.2698C118.761 30.2698 119.662 30.2497 120.624 30.2088C120.951 30.2088 121.074 30.1276 121.074 29.8017C121.074 28.7633 120.542 27.7457 119.621 27.7457C118.781 27.7457 118.004 28.6614 117.819 30.2698ZM123.224 34.2601C121.975 35.9907 120.44 36.3978 119.662 36.3978C117.021 36.3978 115.526 34.3824 115.526 32.0412C115.526 30.5347 116.12 29.2724 116.98 28.4173C117.86 27.5015 118.986 26.9512 120.051 26.9512H120.071C121.893 26.9512 123.306 28.5191 123.306 30.1477C123.306 30.5549 123.183 30.7794 122.753 30.8601C122.405 30.9011 119.887 31.1043 117.717 31.1861C117.778 33.5886 119.13 34.7082 120.583 34.7082C121.381 34.7082 122.159 34.4225 122.876 33.7717L123.224 34.2601Z" fill="white"/>
<path fill-rule="evenodd" clip-rule="evenodd" d="M127.569 29.1098C128.265 27.9085 129.104 26.9516 129.943 26.9516C130.721 26.9516 131.253 27.5217 131.253 28.1325C131.253 28.7435 130.865 29.2526 130.374 29.4357C130.107 29.5579 129.902 29.4967 129.779 29.3748C129.431 29.0892 129.185 28.9671 128.858 28.9671C128.408 28.9671 127.916 29.3338 127.528 30.2702V34.037C127.528 35.3191 127.63 35.421 129.206 35.5429V36.154H123.925V35.5429C125.091 35.421 125.276 35.3191 125.276 34.037V29.68C125.276 28.5195 125.153 28.4383 124.109 28.2345V27.7052C125.255 27.5625 126.36 27.3183 127.528 26.9111V29.1098H127.569Z" fill="white"/>
<path fill-rule="evenodd" clip-rule="evenodd" d="M135.608 29.1098C136.304 27.9085 137.143 26.9516 137.983 26.9516C138.761 26.9516 139.293 27.5217 139.293 28.1325C139.293 28.7435 138.904 29.2526 138.413 29.4357C138.146 29.5579 137.942 29.4967 137.819 29.3748C137.471 29.0892 137.225 28.9671 136.897 28.9671C136.447 28.9671 135.956 29.3338 135.567 30.2702V34.037C135.567 35.3191 135.669 35.421 137.246 35.5429V36.154H131.964V35.5429C133.131 35.421 133.315 35.3191 133.315 34.037V29.68C133.315 28.5195 133.192 28.4383 132.148 28.2345V27.7052C133.294 27.5625 134.4 27.3183 135.567 26.9111V29.1098H135.608Z" fill="white"/>
<path fill-rule="evenodd" clip-rule="evenodd" d="M141.883 30.2698C142.824 30.2698 143.726 30.2497 144.688 30.2088C145.016 30.2088 145.139 30.1276 145.139 29.8017C145.139 28.7633 144.606 27.7457 143.684 27.7457C142.845 27.7457 142.068 28.6614 141.883 30.2698ZM147.288 34.2601C146.039 35.9907 144.504 36.3978 143.726 36.3978C141.085 36.3978 139.591 34.3824 139.591 32.0412C139.591 30.5347 140.184 29.2724 141.044 28.4173C141.924 27.5015 143.05 26.9512 144.116 26.9512H144.135C145.957 26.9512 147.37 28.5191 147.37 30.1477C147.37 30.5549 147.247 30.7794 146.817 30.8601C146.469 30.9011 143.951 31.1043 141.782 31.1861C141.843 33.5886 143.194 34.7082 144.647 34.7082C145.446 34.7082 146.223 34.4225 146.94 33.7717L147.288 34.2601Z" fill="white"/>
<path fill-rule="evenodd" clip-rule="evenodd" d="M157.503 27.7866C156.48 27.9697 156.296 28.1534 155.764 29.2729C155.251 30.3517 154.596 32.0418 153.307 35.075C151.935 38.3322 151.525 39.5739 151.177 40.714C151.055 41.142 150.788 41.2438 150.461 41.2438C149.888 41.2438 149.131 40.6945 149.131 40.0627C149.131 39.7373 149.273 39.5542 149.663 39.2893C150.421 38.8826 150.87 38.4347 151.281 37.7011C151.567 37.2127 151.69 36.9074 151.771 36.6631C151.874 36.3373 151.834 36.0523 151.709 35.7062C150.728 32.9983 149.684 30.2503 149.212 29.1508C148.823 28.1943 148.599 27.9495 147.574 27.7866V27.1963H152.304V27.7866C151.402 27.9697 151.26 28.1126 151.505 28.8048L153.164 33.5483C153.675 32.3061 154.433 30.1282 154.821 28.9269C155.046 28.2139 154.883 27.9697 153.819 27.7866V27.1963H157.503V27.7866Z" fill="white"/>
<path fill-rule="evenodd" clip-rule="evenodd" d="M46.0304 4.35449C45.9771 5.55978 45.8801 6.65714 45.8105 7.85253H46.4994C46.7433 6.86047 46.9666 6.19878 47.2704 5.84684C47.555 5.45296 47.9393 5.26777 49.6028 5.26777H50.5152V15.1714C50.5152 16.8872 50.3117 17.052 48.5683 17.1979V17.8584H54.8944V17.1979C53.0493 17.052 52.8674 16.8872 52.8674 15.1714V5.26777H53.9619C55.2805 5.26777 55.7261 5.39191 56.0917 5.8049C56.3956 6.15795 56.6382 6.79751 56.8818 7.83191L57.5512 7.79053C57.467 6.72066 57.3828 5.4953 57.3571 4.35449H46.0304Z" fill="white"/>
</svg>
