<svg width="100" height="19" viewBox="0 0 100 19" fill="none" xmlns="http://www.w3.org/2000/svg">
<path fill-rule="evenodd" clip-rule="evenodd" d="M31.1869 6.23096V15.2565H32.8578V6.23096H31.1869ZM57.8089 6.44115C56.7365 6.44115 55.7513 6.99753 55.7513 8.54305V9.32185H54.9657V10.7561H55.7513V15.2565H57.4224V10.7561H58.6196V9.32185H57.4224V8.60489C57.4224 8.09794 57.7465 7.87542 58.2203 7.87542C58.4573 7.87542 58.6944 7.91258 58.8939 7.99904V6.63898C58.5571 6.50302 58.2453 6.44115 57.8089 6.44115ZM20.1069 7.04456V8.65674H22.1238V15.466H23.8165V8.65674H25.8335V7.04456H20.1069ZM36.2457 9.1612C34.5746 9.1612 33.6019 10.3729 33.6019 12.2894C33.6019 14.2305 34.6743 15.4173 36.6322 15.4173C37.2933 15.4173 37.8421 15.3307 38.3283 15.1081V13.8718C37.8294 14.0697 37.3557 14.1316 36.8568 14.1316C35.9963 14.1316 35.4725 13.7852 35.3354 12.9199H38.69C38.8893 10.5213 37.9542 9.1612 36.2457 9.1612ZM42.4738 9.1612C41.7007 9.1612 41.2143 9.54442 40.9399 9.92777V9.32199H39.4435V17.9765H41.1145V14.8114C41.4013 15.133 41.8379 15.4174 42.5113 15.4174C43.9952 15.4174 44.6685 14.1191 44.6685 12.2894C44.6685 10.6201 44.0825 9.1612 42.4738 9.1612ZM47.8173 9.1612C46.1461 9.1612 45.1733 10.3729 45.1733 12.2894C45.1733 14.2305 46.2459 15.4173 48.2038 15.4173C48.8648 15.4173 49.4135 15.3307 49.8998 15.1081V13.8718C49.401 14.0697 48.9271 14.1316 48.4282 14.1316C47.5678 14.1316 47.044 13.7852 46.9069 12.9199H50.2614C50.461 10.5213 49.5256 9.1612 47.8173 9.1612ZM71.8675 9.1612C71.219 9.1612 70.7077 9.43326 70.3585 9.87837V9.32199H68.8621V15.2566H70.5081V11.2507C70.7202 10.8921 71.0071 10.6943 71.3437 10.6943C71.7302 10.6943 71.9673 10.9293 71.9673 11.4114V15.2566H73.6009V11.2259C73.8129 10.8921 74.0872 10.6943 74.4365 10.6943C74.8355 10.6943 75.0601 10.9293 75.0601 11.4114V15.2566H76.7062V11.0653C76.7062 10.002 76.12 9.1612 74.9102 9.1612C74.2619 9.1612 73.7255 9.37155 73.2891 9.87837C73.0023 9.43326 72.516 9.1612 71.8675 9.1612ZM79.7712 9.1612C79.0852 9.1612 78.3495 9.30966 77.8007 9.50738V10.9293C78.2996 10.7191 78.9356 10.5584 79.609 10.5584C80.432 10.5584 80.6566 10.9788 80.6566 11.4609V11.7824C80.295 11.7082 80.0206 11.6711 79.6963 11.6711C78.3619 11.6711 77.4266 12.3016 77.4266 13.575C77.4266 14.8238 78.3121 15.4173 79.3346 15.4173C79.9582 15.4173 80.4944 15.2442 80.9434 14.8856C81.1928 15.207 81.6168 15.3431 82.0782 15.3431C82.3775 15.3431 82.6269 15.3059 82.8764 15.2318V14.0696C82.814 14.082 82.7391 14.0944 82.6768 14.0944C82.4399 14.0944 82.2903 13.9954 82.2903 13.6987V11.5845C82.2903 9.89071 81.4298 9.1612 79.7712 9.1612ZM86.6115 9.1612C85.8259 9.1612 85.3271 9.4828 84.9903 9.87837V9.32199H83.4938V15.2566H85.1649V11.2878C85.3271 10.9787 85.6263 10.6943 86.0629 10.6943C86.4993 10.6943 86.7486 10.9046 86.7486 11.4114V15.2566H88.4198V11.0529C88.4198 9.81666 87.5593 9.1612 86.6115 9.1612ZM96.4207 9.1612C94.7496 9.1612 93.7769 10.3729 93.7769 12.2894C93.7769 14.2305 94.8494 15.4173 96.8072 15.4173C97.4683 15.4173 98.017 15.3307 98.5034 15.1081V13.8718C98.0045 14.0697 97.5307 14.1316 97.0318 14.1316C96.1713 14.1316 95.6475 13.7852 95.5104 12.9199H98.8649C99.0646 10.5213 98.1291 9.1612 96.4207 9.1612ZM61.5411 9.16134C59.8078 9.16134 58.8474 10.3358 58.8474 12.2893C58.8474 14.2428 59.8078 15.4173 61.5411 15.4173C63.2621 15.4173 64.2224 14.2428 64.2224 12.2893C64.2224 10.3233 63.2621 9.16134 61.5411 9.16134ZM91.9602 9.16134C90.3141 9.16134 89.117 10.2988 89.117 12.3387C89.117 14.317 90.2767 15.4173 91.8855 15.4173C92.4965 15.4173 92.9579 15.3307 93.3321 15.1576V13.7235C93.0202 13.8595 92.6586 13.9707 92.1473 13.9707C91.2869 13.9707 90.8005 13.365 90.8005 12.2893C90.8005 11.2136 91.3491 10.583 92.2221 10.583C92.6336 10.583 92.9579 10.6697 93.2697 10.8303V9.43324C92.8581 9.23539 92.4715 9.16134 91.9602 9.16134ZM54.1155 9.18859C53.3406 9.19273 52.7568 9.54101 52.4291 10.2246V9.32199H50.9326V15.2566H52.6036V11.8935C52.9279 11.0654 53.5639 10.7809 54.362 10.8799V9.19838C54.2779 9.19143 54.1957 9.18817 54.1155 9.18859ZM68.0064 9.18859C67.2314 9.19273 66.6476 9.54101 66.3198 10.2246V9.32199H64.8235V15.2566H66.4944V11.8935C66.8188 11.0654 67.4547 10.7809 68.2529 10.8799V9.19838C68.1687 9.19143 68.0865 9.18817 68.0064 9.18859ZM27.9354 9.19782C26.2643 9.19782 25.2915 10.4096 25.2915 12.326C25.2915 14.2671 26.3641 15.454 28.322 15.454C28.9831 15.454 29.5316 15.3674 30.018 15.1448V13.9084C29.5191 14.1064 29.0453 14.1682 28.5464 14.1682C27.686 14.1682 27.1622 13.822 27.0251 12.9566H30.3797C30.5791 10.558 29.6439 9.19782 27.9354 9.19782ZM36.2707 10.5213C36.9066 10.5213 37.156 10.9787 37.156 11.8194H35.273C35.3354 11.0158 35.6347 10.5213 36.2707 10.5213ZM47.8421 10.5213C48.4781 10.5213 48.7275 10.9787 48.7275 11.8194H46.8446C46.907 11.0158 47.2062 10.5213 47.8421 10.5213ZM96.4456 10.5213C97.0816 10.5213 97.331 10.9787 97.331 11.8194H95.4481C95.5104 11.0158 95.8097 10.5213 96.4456 10.5213ZM27.9603 10.558C28.5964 10.558 28.8457 11.0155 28.8457 11.8563H26.9627C27.0251 11.0525 27.3244 10.558 27.9603 10.558ZM61.5411 10.5955C62.252 10.5955 62.5387 11.2012 62.5387 12.2893C62.5387 13.3773 62.252 13.9707 61.5411 13.9707C60.8178 13.9707 60.531 13.3773 60.531 12.2893C60.531 11.2012 60.8178 10.5955 61.5411 10.5955ZM42.0248 10.6079C42.7356 10.6079 43.01 11.2137 43.01 12.2894C43.01 13.365 42.7356 13.9707 42.0248 13.9707C41.6258 13.9707 41.3141 13.7359 41.1145 13.365V11.2137C41.3141 10.8427 41.6258 10.6079 42.0248 10.6079ZM80.0581 12.7343C80.2574 12.7343 80.4446 12.7591 80.6566 12.8086V13.946C80.3947 14.1811 80.1328 14.2921 79.7587 14.2921C79.3597 14.2921 79.0354 14.0572 79.0354 13.5256C79.0354 12.9322 79.4468 12.7343 80.0581 12.7343Z" fill="white"/>
<path d="M11.3022 0.871586L1.59958 0.874213C1.29391 0.867696 1.01692 1.14408 1.0293 1.4504C1.02735 2.42998 1.02937 3.40883 1.02808 4.38776C1.02417 4.55591 1.06649 4.73195 1.19488 4.84796L4.66087 8.27617L4.66413 4.70457C4.66483 4.61034 4.54686 4.58074 4.47126 4.58726C3.62203 4.5853 2.77282 4.59184 1.92424 4.58532C1.74044 4.60227 1.5638 4.44383 1.584 4.25547C1.58074 3.42905 1.58333 2.6027 1.58268 1.77628C1.55661 1.58205 1.72995 1.40739 1.92352 1.42759L10.7789 1.43085C10.9555 1.43215 11.0879 1.60552 11.0716 1.77628C11.0742 2.60204 11.0774 3.42838 11.0702 4.25415C11.08 4.41318 10.9595 4.55396 10.8076 4.58654C9.95315 4.58524 9.09934 4.58919 8.24489 4.58596C8.16343 4.59899 8.03892 4.55919 7.99591 4.655C7.95301 8.03536 7.97675 11.6238 7.979 14.5564C7.99464 14.6809 7.92814 14.7879 7.86688 14.8895C7.58467 14.9619 7.29134 14.928 7.00392 14.9338L4.89255 14.9105C4.89255 14.9105 6.28054 16.3879 6.97856 17.0618C7.26858 17.3202 7.55015 17.6496 7.85843 17.692L10.5312 17.679C10.7489 17.6549 10.9059 17.4398 10.8935 17.2267C10.8988 15.2707 10.889 13.3142 10.8981 11.3576C10.9066 11.1517 11.1836 11.2409 11.3172 11.2181C11.3172 11.2181 16.8906 11.4742 16.9114 6.16332C16.8906 0.919689 11.2791 0.875112 11.3022 0.871586Z" fill="white"/>
</svg>
