<svg width="83" height="20" viewBox="0 0 83 20" fill="none" xmlns="http://www.w3.org/2000/svg">
<path fill-rule="evenodd" clip-rule="evenodd" d="M34.7692 19.746V6.24302H34.6816L29.2744 19.746H27.2103L21.7902 6.24302H21.7036V19.746H19.1677V1.399H22.3873L28.1926 16.02H28.2921L34.0845 1.40004H37.317V19.747L34.7692 19.746ZM51.339 19.746H48.7653V17.483H48.7036C47.9821 19.085 46.6524 19.987 44.651 19.987C41.8046 19.987 40.0628 18.093 40.0628 15.029V6.37004H42.748V14.495C42.748 16.529 43.6936 17.622 45.5447 17.622C47.4855 17.622 48.6539 16.2491 48.6539 14.1641V6.37004H51.3381L51.339 19.746ZM58.6979 6.12797C61.7433 6.12797 63.72 7.85805 63.8075 10.324H61.2836C61.1343 9.028 60.2018 8.21402 58.6979 8.21402C57.2429 8.21402 56.2734 8.93802 56.2734 10.007C56.2734 10.846 56.8706 11.417 58.2869 11.748L60.4127 12.244C63.086 12.8799 64.1051 13.948 64.1051 15.88C64.1051 18.322 61.8798 20 58.7974 20C55.5281 20 53.5624 18.36 53.3146 15.817H55.9749C56.2237 17.215 57.1563 17.902 58.7974 17.902C60.4127 17.902 61.408 17.215 61.408 16.122C61.408 15.257 60.9233 14.749 59.4931 14.418L57.3672 13.91C54.8812 13.325 53.65 12.104 53.65 10.16C53.65 7.76903 55.6893 6.12797 58.6979 6.12797ZM65.9681 2.83599C65.9681 1.95807 66.6649 1.25905 67.5217 1.25905C68.3797 1.25905 69.0644 1.95903 69.0644 2.83599C69.0644 3.69993 68.3797 4.41206 67.5217 4.41206C67.0914 4.40847 66.7249 4.25298 66.4221 3.94558C66.1193 3.63835 65.9673 3.2684 65.9681 2.83599ZM66.1792 6.37004H68.8643V19.746H66.1792V6.37004ZM80.2012 10.9731C79.9275 9.54898 78.8835 8.41703 77.1309 8.41703C75.0548 8.41703 73.6873 10.184 73.6873 13.057C73.6873 15.995 75.0667 17.6991 77.1557 17.6991C78.8078 17.6991 79.8907 16.771 80.2011 15.219H82.7878C82.5022 18.067 80.2769 20 77.1318 20C73.3897 20 70.9534 17.38 70.9534 13.058C70.9534 8.81101 73.3897 6.12797 77.107 6.12797C80.4759 6.12797 82.5271 8.34103 82.763 10.9731H80.2012ZM10.9549 3.18899C10.2602 4.02297 9.15851 4.68504 8.05575 4.58703C7.91139 3.45901 8.46377 2.257 9.08686 1.52199C9.78047 0.662066 10.9788 0.0500546 11.9611 0C12.0815 1.17799 11.6267 2.33003 10.9558 3.19004L10.9549 3.18899ZM11.9491 4.80804C12.5702 4.85696 14.3626 5.05202 15.5101 6.78803C15.4146 6.86202 13.3833 8.06001 13.4072 10.578C13.431 13.588 15.9878 14.59 16.0117 14.615C15.9878 14.689 15.6067 16.034 14.6742 17.427C13.8611 18.651 13.025 19.8491 11.6864 19.874C10.3956 19.898 9.96457 19.091 8.48369 19.091C7.00186 19.091 6.52304 19.8491 5.30488 19.898C4.01401 19.946 3.03569 18.601 2.22259 17.378C0.548575 14.908 -0.717332 10.4079 1.00339 7.37497C1.83944 5.85901 3.3691 4.905 5.01825 4.88002C6.2852 4.85704 7.45667 5.73697 8.22098 5.73697C8.98624 5.73697 10.3478 4.71107 11.9491 4.80804Z" fill="white"/>
</svg>
