<svg width="144" height="127" viewBox="0 0 144 127" fill="none" xmlns="http://www.w3.org/2000/svg">
<path d="M120.228 94.3985C103.524 86.8774 86.7881 79.4209 70.1165 71.8352C61.117 67.7387 49.3854 62.0979 44.8209 52.6707C47.6567 53.1812 50.5314 53.5107 53.406 53.6722C61.3436 54.1181 69.5985 52.1344 72.2984 43.7798C74.5061 36.9566 71.7286 29.0155 65.3448 25.5393C58.5532 21.8369 49.5408 23.2002 44.0052 28.5309C39.4731 32.8923 37.4012 39.3344 37.7573 45.5632C35.3748 44.7943 33.3288 44.006 31.8786 43.3404C16.3464 36.1941 4.91909 20.8677 6.64128 3.2862C6.965 -0.0220369 1.78547 -0.0026529 1.46175 3.2862C-0.325191 21.5203 11.0763 38.4104 26.9192 46.6487C30.7132 48.6194 34.7079 50.1572 38.8127 51.2944C41.137 58.6152 46.705 64.256 52.9657 68.5012C61.8163 74.5103 72.13 78.3742 81.8352 82.7485L117.613 98.8568C120.63 100.214 123.265 95.7618 120.228 94.392V94.3985ZM42.9045 45.085C42.6067 38.0615 46.3165 30.7989 53.5355 29.022C59.8999 27.4518 67.0152 30.6438 67.8051 37.6286C69.2554 50.4286 54.6815 49.8729 43.1052 47.0687C43.0081 46.4225 42.9369 45.7635 42.911 45.085H42.9045Z" fill="white"/>
<path d="M141.962 100.136C131.283 90.1935 121.027 79.8073 111.222 69.0051C108.975 66.5369 105.324 70.2005 107.557 72.6623C116.41 82.4085 125.63 91.8165 135.197 100.866C121.367 105.622 108.36 112.452 96.6349 121.22C93.9998 123.19 96.5766 127.681 99.2506 125.685C111.824 116.283 125.815 109.098 140.823 104.452C142.616 103.897 143.438 101.506 141.969 100.13L141.962 100.136Z" fill="white"/>
</svg>
