<svg width="25" height="25" viewBox="0 0 25 25" fill="none" xmlns="http://www.w3.org/2000/svg">
<path d="M7.08911 10.167C7.08911 9.45967 7.3701 8.78131 7.87026 8.28115C8.37042 7.78099 9.04878 7.5 9.75611 7.5H18.4221C18.7723 7.5 19.1192 7.56898 19.4427 7.70301C19.7663 7.83704 20.0603 8.03349 20.308 8.28115C20.5556 8.5288 20.7521 8.82281 20.8861 9.14638C21.0201 9.46996 21.0891 9.81676 21.0891 10.167V18.833C21.0891 19.1832 21.0201 19.53 20.8861 19.8536C20.7521 20.1772 20.5556 20.4712 20.308 20.7189C20.0603 20.9665 19.7663 21.163 19.4427 21.297C19.1192 21.431 18.7723 21.5 18.4221 21.5H9.75611C9.40588 21.5 9.05907 21.431 8.73549 21.297C8.41192 21.163 8.11791 20.9665 7.87026 20.7189C7.6226 20.4712 7.42615 20.1772 7.29212 19.8536C7.1581 19.53 7.08911 19.1832 7.08911 18.833V10.167Z" stroke="white" stroke-width="2" strokeLinecap="round" strokeLinejoin="round"/>
<path d="M4.10111 17.237C3.79445 17.0622 3.53938 16.8095 3.36169 16.5045C3.18399 16.1995 3.08996 15.853 3.08911 15.5V5.5C3.08911 4.4 3.98911 3.5 5.08911 3.5H15.0891C15.8391 3.5 16.2471 3.885 16.5891 4.5" stroke="white" stroke-width="2" strokeLinecap="round" strokeLinejoin="round"/>
</svg>
