<svg width="81" height="80" viewBox="0 0 81 80" fill="none" xmlns="http://www.w3.org/2000/svg">
<rect x="0.375" width="80" height="80" rx="40" fill="#EA6891"/>
<path d="M48.7087 55V51.6667C48.7087 49.8986 48.0063 48.2029 46.756 46.9526C45.5058 45.7024 43.8101 45 42.042 45H28.7087C26.9405 45 25.2449 45.7024 23.9946 46.9526C22.7444 48.2029 22.042 49.8986 22.042 51.6667V55" stroke="white" stroke-width="2" strokeLinecap="round" strokeLinejoin="round"/>
<path d="M35.3747 38.3333C39.0566 38.3333 42.0413 35.3486 42.0413 31.6667C42.0413 27.9848 39.0566 25 35.3747 25C31.6928 25 28.708 27.9848 28.708 31.6667C28.708 35.3486 31.6928 38.3333 35.3747 38.3333Z" stroke="white" stroke-width="2" strokeLinecap="round" strokeLinejoin="round"/>
<path d="M58.708 55V51.6667C58.7069 50.1896 58.2153 48.7546 57.3103 47.5872C56.4053 46.4198 55.1382 45.586 53.708 45.2167" stroke="white" stroke-width="2" strokeLinecap="round" strokeLinejoin="round"/>
<path d="M47.042 25.2167C48.476 25.5838 49.7471 26.4178 50.6547 27.5872C51.5624 28.7565 52.0551 30.1947 52.0551 31.675C52.0551 33.1553 51.5624 34.5935 50.6547 35.7628C49.7471 36.9322 48.476 37.7662 47.042 38.1333" stroke="white" stroke-width="2" strokeLinecap="round" strokeLinejoin="round"/>
</svg>
