<svg width="60" height="74" viewBox="0 0 60 74" fill="none" xmlns="http://www.w3.org/2000/svg">
<path d="M53.5888 72.7442C53.3168 73.2155 52.8609 73.5688 52.3148 73.704C51.4578 73.9206 50.5488 73.5618 50.0648 72.8202L40.4915 58.2613C37.6843 53.9975 34.5091 49.1656 29.903 46.6255C26.9017 44.9642 23.3256 44.2989 19.869 43.6551L2.70174 40.4437C1.57568 40.2323 0.826638 39.1599 1.01836 38.0377C1.09124 37.6411 1.2734 37.284 1.53918 37.0106C1.68534 36.6327 1.95491 36.2904 2.3171 36.0371L55.894 0.411736C56.5541 -0.0251424 57.4049 -0.0437924 58.0981 0.356281C58.7912 0.756355 59.1903 1.52019 59.1242 2.3L53.8541 71.8897C53.8325 72.1973 53.7325 72.4953 53.5837 72.7531L53.5888 72.7442ZM7.96686 37.2473L20.5746 39.6051C24.1828 40.2772 28.2642 41.0445 31.8698 43.0309C37.3863 46.0728 41.0159 51.5937 43.9338 56.04L50.1645 65.5162L54.6515 6.20262L7.96172 37.2562L7.96686 37.2473Z" fill="#FFDA03"/>
<path d="M35.73 46.3851C35.1963 47.3098 34.0296 47.6678 33.0434 47.1934C32.0121 46.693 31.5689 45.465 32.0524 44.4402L38.6646 30.5938C39.1623 29.5652 40.388 29.1465 41.4244 29.638C42.4556 30.1384 42.8989 31.3664 42.4153 32.3913L35.8031 46.2376C35.7775 46.2821 35.7518 46.3265 35.721 46.3799L35.73 46.3851Z" fill="#FFDA03"/>
</svg>
