<svg width="43" height="52" viewBox="0 0 43 52" fill="none" xmlns="http://www.w3.org/2000/svg">
<path d="M20.7385 51.8481C17.2474 51.8481 13.8556 50.8517 11.1233 48.8242C8.52482 46.8958 6.69004 44.214 5.53959 42.365C2.68825 37.7944 -0.569715 30.7007 0.0848535 22.8535C0.382385 19.2596 1.48821 15.8788 2.41551 13.3308C3.36761 10.7134 4.61724 7.70934 6.65533 5.24066C8.89177 2.539 11.8671 0.85356 14.8226 0.62553C15.011 0.610658 15.1846 0.650322 15.3383 0.72468C21.6013 -1.18879 29.109 0.749461 34.2712 5.80083C39.1953 10.6192 42.0218 18.0203 42.0218 26.1055C42.0218 34.7557 38.8432 42.4394 33.3042 47.1784C29.6991 50.2618 25.1419 51.8431 20.7385 51.8431V51.8481ZM12.9927 3.02479C11.2423 3.62956 9.56122 4.83913 8.18266 6.50474C6.333 8.74043 5.17263 11.5561 4.27508 14.0099C3.39241 16.4389 2.34113 19.6562 2.05848 23.0171C1.44854 30.324 4.52798 37.0013 7.22064 41.314C8.91657 44.0355 10.5332 45.9193 12.3035 47.233C17.6739 51.2235 26.332 50.5394 32.0149 45.6814C37.1126 41.319 40.0383 34.1857 40.0433 26.1154C40.0433 18.5606 37.4349 11.6751 32.8876 7.22354C27.7354 2.18208 20.0393 0.566046 14.1729 3.2925C13.7564 3.48583 13.2754 3.36684 12.9927 3.02975V3.02479Z" fill="#FDE474"/>
<path d="M19.9698 39.2519C18.7103 39.2519 17.416 39.0189 16.1664 38.548C14.0837 37.7647 12.0902 36.3519 10.2455 34.3492C8.34134 32.2871 7.41403 30.3339 7.40907 28.3857C7.40907 27.8405 7.85041 27.3943 8.40084 27.3943C8.94632 27.3943 9.39261 27.8355 9.39261 28.3857C9.39261 29.8134 10.1513 31.3253 11.7034 33.0108C13.3399 34.7854 15.0755 36.0248 16.8656 36.6989C18.9136 37.4673 21.0806 37.4722 22.8162 36.7138C23.7733 36.2924 24.6857 35.6183 25.5238 34.7012C27.9387 32.059 28.99 28.3163 29.9123 25.0099L31.5686 19.091C31.7174 18.5656 32.2628 18.2533 32.7885 18.402C33.3141 18.5507 33.6265 19.096 33.4777 19.6214L31.8215 25.5403C30.8396 29.0599 29.7239 33.0504 26.9866 36.0396C25.9601 37.1599 24.8246 37.9977 23.6146 38.5281C22.5038 39.0139 21.2591 39.2618 19.9748 39.2618L19.9698 39.2519Z" fill="#FDE474"/>
<path d="M14.292 25.7634C14.2077 25.7634 14.1283 25.7585 14.044 25.7436C13.0473 25.5949 12.606 24.648 12.4621 24.3357C11.52 22.3132 11.0042 20.0626 10.9745 17.8269C10.9646 17.123 11.0092 16.31 11.4208 15.5764C11.4257 15.5665 11.4307 15.5565 11.4406 15.5466C11.5051 14.5552 12.4324 13.772 13.4837 13.767C14.2523 13.7819 15.011 14.2181 15.5069 14.9369C15.8788 15.4723 16.0573 16.0622 16.2061 16.6174C16.7416 18.6151 17.3317 21.5745 16.2259 24.2118C15.8143 25.1883 15.0953 25.7634 14.2969 25.7634H14.292ZM13.8605 16.0523C13.8209 16.0671 13.7762 16.082 13.7316 16.0969C13.4886 16.1613 13.2704 16.3299 13.1465 16.548C12.963 16.8702 12.9481 17.3411 12.9531 17.8021C12.9779 19.7602 13.4291 21.7283 14.2572 23.5029C14.2771 23.5426 14.292 23.5822 14.3118 23.612C14.3366 23.5674 14.3663 23.5128 14.3911 23.4484C15.2639 21.3713 14.7482 18.8531 14.287 17.1329C14.1779 16.7264 14.0639 16.3398 13.8754 16.0671C13.8754 16.0671 13.8705 16.0572 13.8655 16.0523H13.8605Z" fill="#FDE474"/>
<path d="M24.7601 23.9242C24.5518 23.9242 24.3634 23.9044 24.2196 23.8895C24.0014 23.8697 23.6741 23.835 23.3468 23.6466C22.7418 23.3046 22.5385 22.685 22.4393 22.3826C21.755 20.3204 21.3583 18.1789 21.2591 16.0076C21.2195 15.1302 21.2492 14.2032 21.7401 13.3803C22.0823 12.8003 22.5832 12.4087 22.9799 12.1262C23.2824 11.913 23.6592 11.685 24.1254 11.6156C24.8295 11.5115 25.5188 11.8337 25.8362 12.4087C25.8957 12.5178 25.9304 12.6268 25.9502 12.7408C26.332 13.3109 26.5254 13.9801 26.6494 14.5254C27.18 16.8702 27.304 19.2695 27.0164 21.6539C26.9717 22.0455 26.8577 22.9626 26.1337 23.5079C25.6924 23.84 25.1816 23.9143 24.765 23.9143L24.7601 23.9242ZM24.3733 21.9166C24.3733 21.9166 24.4031 21.9166 24.413 21.9166C24.5221 21.9265 24.8543 21.9612 24.9535 21.9166C24.9436 21.9166 24.9981 21.8075 25.0427 21.4208C25.3006 19.2595 25.1866 17.0833 24.7105 14.9617C24.5667 14.3321 24.3931 13.9157 24.1799 13.6976C24.1601 13.7125 24.1353 13.7273 24.1154 13.7422C23.8774 13.9058 23.5898 14.1289 23.441 14.3866C23.2179 14.7634 23.2129 15.3433 23.2377 15.9085C23.3319 17.8963 23.6939 19.8643 24.3188 21.753C24.3386 21.8174 24.3584 21.867 24.3733 21.9017V21.9166Z" fill="#FDE474"/>
<path d="M14.8325 24.9504C14.7383 24.9504 14.644 24.9356 14.5498 24.9108C14.4705 24.886 14.3911 24.8562 14.3118 24.8215C13.8953 24.9058 13.4589 24.7224 13.2456 24.3456C13.082 24.0581 13.0721 23.7161 13.206 23.4286C13.201 23.4038 13.1961 23.379 13.1911 23.3542C12.9134 23.2005 12.6258 22.8932 12.5861 22.2686C12.4671 22.0406 12.4026 21.8125 12.353 21.6043C11.4704 20.0874 11.4307 18.3524 11.4704 16.5629C11.4803 16.2307 11.4952 15.5367 12.0258 15.0311C12.3283 14.7436 12.7448 14.5949 13.1713 14.6048C13.6572 14.6197 14.1482 14.8427 14.4854 15.1996C14.9465 15.6904 15.0854 16.2902 15.1895 16.7314L15.7399 19.0861C15.8441 19.5322 15.9581 20.018 16.0276 20.5187C16.0524 20.6228 16.0722 20.7319 16.0871 20.836C16.1168 20.8856 16.1416 20.9351 16.1614 20.9896C16.4243 21.6836 16.3995 22.4718 16.097 23.1509C16.0127 23.3344 15.8986 23.498 15.7647 23.6269C15.854 23.8797 15.8391 24.1672 15.7052 24.42C15.5317 24.7521 15.1895 24.9454 14.8275 24.9454L14.8325 24.9504Z" fill="#FDE474"/>
<path d="M13.7713 20.3204C13.5977 20.3204 13.4242 20.2757 13.2655 20.1816C12.5167 19.7404 11.9861 18.9175 11.8125 17.926C11.7977 17.8517 11.7877 17.7774 11.7778 17.703C11.4952 17.584 11.272 17.3312 11.1976 17.009C11.0935 16.543 11.1976 16.0374 11.4803 15.6259C11.7629 15.2145 12.1993 14.9369 12.6754 14.8675C12.9828 14.8229 13.2853 14.922 13.5085 15.1351C13.7316 15.3483 13.8407 15.6507 13.806 15.9581C13.7465 16.5133 13.682 17.0883 13.7663 17.584C13.8407 18.0004 14.0291 18.3326 14.2771 18.4763C14.7482 18.7539 14.9069 19.3636 14.6242 19.8346C14.4407 20.1469 14.1085 20.3204 13.7713 20.3204Z" fill="#FDE474"/>
<path d="M24.6857 23.5177C24.4874 23.5177 24.294 23.4732 24.1105 23.3839C23.8477 23.255 23.6592 23.0171 23.5898 22.7395C23.3319 22.5362 23.1385 22.2289 23.0146 21.8125L22.3898 19.7503C22.2212 19.1951 22.0476 18.6151 21.9534 17.9954C21.7501 16.6768 21.9435 15.3037 22.4939 14.0892C22.5137 13.5786 22.6427 13.0581 23.0047 12.5921C23.1832 12.3641 23.451 12.2253 23.7386 12.2104C24.0262 12.2005 24.3088 12.3096 24.5072 12.5227C25.0279 13.0779 25.2957 13.7422 25.4444 14.3916C25.5386 14.4709 25.6229 14.5651 25.6824 14.6791C26.5701 16.2902 26.7387 18.278 26.1486 20.0229C26.1882 20.5881 26.2031 21.1581 26.1882 21.7232C26.1833 21.9562 26.1684 22.3974 25.9205 22.8089C25.6477 23.26 25.1667 23.5128 24.6857 23.5128V23.5177Z" fill="#FDE474"/>
</svg>
