<svg width="71" height="60" viewBox="0 0 71 60" fill="none" xmlns="http://www.w3.org/2000/svg">
<path d="M45.4335 0.386614C41.0772 1.27149 35.7679 4.47067 33.5897 7.46564C32.5687 8.89506 31.0032 11.89 30.2544 14.0682L28.825 18.0842L25.7619 15.4296C19.5678 9.91608 12.693 8.41859 6.77109 11.3455C-0.444077 14.8169 -2.14577 25.5036 2.89123 35.7818C5.2736 40.6826 14.2585 49.6675 20.4527 53.3432C28.3485 57.9718 33.9301 59.8096 40.1923 59.8777C45.0251 59.8777 46.0461 59.6735 49.3133 57.9037C51.3554 56.7466 54.7587 54.16 56.8688 52.0499C71.9798 37.1431 75.6555 14.9531 64.5605 5.15134C59.9319 1.13536 51.8999 -0.90667 45.4335 0.386614ZM58.0941 3.72193C63.6756 6.58076 66.5344 11.4136 66.9428 18.7649C67.5555 29.6557 62.7227 41.4314 54.1461 50.2121C48.6327 55.7936 44.5486 58.176 40.4645 58.2441C29.9821 58.3121 11.8762 45.7877 6.49882 34.8288C2.89123 27.6136 2.82317 19.4455 6.29461 15.2934C10.719 10.0522 15.6879 10.4606 22.2905 16.5867C24.4687 18.6287 26.783 21.1472 27.3956 22.2363C29.846 26.3884 32.0922 25.5036 32.5687 20.1943C33.3175 11.2774 38.7629 4.33453 46.3184 2.36057C49.3133 1.54376 55.2352 2.29251 58.0941 3.72193Z" fill="#FFDA03"/>
<path d="M52.4447 6.44458C52.2405 6.78492 52.9893 7.73787 54.0784 8.48661C56.4607 10.1883 58.2305 13.7959 58.2305 16.927C58.2305 19.5816 58.9112 20.3304 60.5448 19.7178C61.9742 19.1732 62.0423 14.0001 60.6129 11.3455C58.6389 7.53367 53.67 4.53869 52.4447 6.44458Z" fill="#FFDA03"/>
<path d="M58.3661 26.048C58.5022 26.8648 59.1829 27.2732 60.272 27.2732C62.7224 27.2732 62.5182 25.2992 60.0678 25.027C58.5022 24.8228 58.1619 25.027 58.3661 26.048Z" fill="#FFDA03"/>
</svg>
