<svg width="25" height="25" viewBox="0 0 25 25" fill="none" xmlns="http://www.w3.org/2000/svg">
<g clip-path="url(#clip0_0_1999)">
<path d="M21.7509 5.11012C21.2401 4.59912 20.6337 4.19376 19.9662 3.9172C19.2988 3.64064 18.5833 3.49829 17.8609 3.49829C17.1384 3.49829 16.423 3.64064 15.7555 3.9172C15.088 4.19376 14.4816 4.59912 13.9709 5.11012L12.9109 6.17012L11.8509 5.11012C10.8192 4.07842 9.41989 3.49883 7.96086 3.49883C6.50182 3.49883 5.10255 4.07842 4.07086 5.11012C3.03916 6.14181 2.45956 7.54108 2.45956 9.00012C2.45956 10.4591 3.03916 11.8584 4.07086 12.8901L5.13085 13.9501L12.9109 21.7301L20.6909 13.9501L21.7509 12.8901C22.2619 12.3794 22.6672 11.7729 22.9438 11.1055C23.2203 10.438 23.3627 9.7226 23.3627 9.00012C23.3627 8.27763 23.2203 7.56222 22.9438 6.89476C22.6672 6.2273 22.2619 5.62087 21.7509 5.11012Z" stroke="white" stroke-width="2" strokeLinecap="round" strokeLinejoin="round"/>
</g>
<defs>
<clipPath id="clip0_0_1999">
<rect width="24" height="24" fill="white" transform="translate(0.910858 0.5)"/>
</clipPath>
</defs>
</svg>
