<svg width="167" height="41" viewBox="0 0 167 41" fill="none" xmlns="http://www.w3.org/2000/svg">
<path d="M23.448 19.6441H19.5127V11.395H3.93533V19.6441H0V0.5H3.93533V8.002H19.5127V0.5H23.448V19.6441Z" fill="white"/>
<path d="M53.5469 13.3561C53.5469 17.3095 49.0869 20.2044 41.8393 20.2044C34.5589 20.2044 30.0989 17.3095 30.0989 13.3561V0.5H34.0342V12.609C34.0342 15.3484 36.6906 16.8425 41.8393 16.8425C46.9552 16.8425 49.6116 15.3172 49.6116 12.609V0.5H53.5469V13.3561Z" fill="white"/>
<path d="M81.2954 9.74521C83.5254 10.8347 84.5092 12.2666 84.5092 14.4768C84.5092 17.8075 81.7873 19.6441 76.6058 19.6441H60.2086V0.5H76.8026C81.1314 0.5 83.6894 2.67901 83.6894 5.823C83.6894 7.47282 82.9351 8.71796 81.2954 9.74521ZM76.8681 8.28216C78.7374 8.28216 79.8524 7.37943 79.8524 6.0409C79.8524 4.7335 78.803 3.89302 76.9993 3.89302H64.1439V8.28216H76.8681ZM76.6058 16.2511C79.131 16.2511 80.5411 15.3795 80.5411 14.0721C80.5411 12.5779 79.2949 11.6752 76.9337 11.6752H64.1439V16.2511H76.6058Z" fill="white"/>
<path d="M111.893 30.617C114.142 31.7048 115.134 33.1344 115.134 35.341C115.134 38.6664 112.389 40.5 107.164 40.5H90.6302V21.3867H107.363C111.728 21.3867 114.307 23.5622 114.307 26.7011C114.307 28.3483 113.547 29.5914 111.893 30.617ZM107.429 29.1563C109.314 29.1563 110.438 28.2551 110.438 26.9187C110.438 25.6134 109.38 24.7743 107.561 24.7743H94.5985V29.1563H107.429ZM107.164 37.1124C109.711 37.1124 111.133 36.2422 111.133 34.9369C111.133 33.4452 109.876 32.5439 107.495 32.5439H94.5985V37.1124H107.164Z" fill="white"/>
<path d="M140.597 40.5H120.921V21.3867H124.89V37.1124H140.597V40.5Z" fill="white"/>
<path d="M166.452 40.5H144.56V21.3867H165.691V24.7743H148.528V28.8766H160.466V32.2642H148.528V37.1124H166.452V40.5Z" fill="white"/>
</svg>
