<svg width="116" height="15" viewBox="0 0 116 15" fill="none" xmlns="http://www.w3.org/2000/svg">
<path d="M16.2851 14.09H13.5519V8.05444H2.73316V14.09H0V0.0828977H2.73316V5.57187H13.5519V0.0828977H16.2851V14.09Z" fill="white"/>
<path d="M37.1893 9.48932C37.1893 12.3818 34.0917 14.5 29.0581 14.5C24.0018 14.5 20.9042 12.3818 20.9042 9.48932V0.0828977H23.6374V8.9427C23.6374 10.947 25.4822 12.0402 29.0581 12.0402C32.6112 12.0402 34.4561 10.9242 34.4561 8.9427V0.0828977H37.1893V9.48932Z" fill="white"/>
<path d="M56.4611 6.84732C58.0098 7.64447 58.6931 8.69216 58.6931 10.3092C58.6931 12.7463 56.8027 14.09 53.204 14.09H41.8159V0.0828977H53.3407C56.3472 0.0828977 58.1237 1.67721 58.1237 3.97756C58.1237 5.18468 57.5999 6.09572 56.4611 6.84732ZM53.3863 5.77686C54.6845 5.77686 55.4589 5.11636 55.4589 4.137C55.4589 3.18041 54.73 2.56546 53.4774 2.56546H44.549V5.77686H53.3863ZM53.204 11.6075C54.9578 11.6075 55.9372 10.9697 55.9372 10.0132C55.9372 8.91992 55.0717 8.25942 53.4318 8.25942H44.549V11.6075H53.204Z" fill="white"/>
<path d="M77.7118 6.75353C79.2735 7.5494 79.9625 8.59541 79.9625 10.2099C79.9625 12.643 78.0563 13.9846 74.4276 13.9846H62.9443V0H74.5654C77.597 0 79.3884 1.59174 79.3884 3.8884C79.3884 5.09357 78.8601 6.00314 77.7118 6.75353ZM74.6113 5.68479C75.9204 5.68479 76.7013 5.02535 76.7013 4.04757C76.7013 3.09253 75.9664 2.47857 74.7032 2.47857H65.7003V5.68479H74.6113ZM74.4276 11.506C76.196 11.506 77.1836 10.8693 77.1836 9.91428C77.1836 8.8228 76.3109 8.16336 74.6573 8.16336H65.7003V11.506H74.4276Z" fill="white"/>
<path d="M97.6472 13.9846H83.9821V0H86.7381V11.506H97.6472V13.9846Z" fill="white"/>
<path d="M115.604 13.9846H100.4V0H115.075V2.47857H103.156V5.48014H111.447V7.95871H103.156V11.506H115.604V13.9846Z" fill="white"/>
</svg>
