<svg width="403" height="154" viewBox="0 0 403 154" fill="none" xmlns="http://www.w3.org/2000/svg">
<path d="M0 70.5919V0H21.1776V53.0447H70.1885V70.5919H0Z" fill="#FFDA03"/>
<path d="M179.615 70.5919H156.622L149.966 58.6921H102.367L95.7116 70.5919H72.7188L114.368 0H137.865L179.615 70.5919ZM111.645 42.3551H140.689L128.89 17.5471L128.587 16.7404H123.747L123.444 17.5471L111.645 42.3551Z" fill="#FFDA03"/>
<path d="M0 80.6764H62.7259C72.1045 80.6764 79.9705 83.9035 86.4246 90.4584C92.9795 97.0134 96.2066 104.98 96.2066 114.359V117.384C96.3075 137.654 79.8696 151.268 64.7428 151.268H0V80.6764ZM74.424 117.182V114.56C74.424 103.669 68.9783 98.2235 58.1879 98.2235H21.1776V133.721H58.087C68.9783 133.721 74.424 128.175 74.424 117.182Z" fill="#FFDA03"/>
<path d="M102.425 151.268V80.6764H178.967V98.0218H123.603V107.703H174.227V123.838H123.603V133.923H179.572V151.268H102.425Z" fill="#FFDA03"/>
<path d="M209.631 141.912C209.631 143.493 209.34 144.989 208.758 146.403C208.176 147.775 207.365 148.981 206.325 150.021C205.286 151.019 204.08 151.809 202.708 152.391C201.336 153.015 199.86 153.327 198.279 153.327C196.699 153.327 195.223 153.015 193.851 152.391C192.479 151.809 191.273 151.019 190.233 150.021C189.194 148.981 188.383 147.775 187.801 146.403C187.219 144.989 186.928 143.493 186.928 141.912C186.928 140.374 187.219 138.919 187.801 137.546C188.383 136.133 189.194 134.927 190.233 133.929C191.273 132.889 192.479 132.078 193.851 131.496C195.223 130.873 196.699 130.561 198.279 130.561C199.86 130.561 201.336 130.873 202.708 131.496C204.08 132.078 205.286 132.889 206.325 133.929C207.365 134.927 208.176 136.133 208.758 137.546C209.34 138.919 209.631 140.374 209.631 141.912Z" fill="#FFDA03"/>
<path d="M218.399 80.6764H278.805C297.058 80.6764 306.134 88.139 306.134 102.963V104.476C306.134 112.846 301.899 118.493 293.428 121.418V121.62C302.706 124.544 305.126 129.385 306.235 139.974C306.739 145.016 308.252 148.646 309.361 151.268H286.671C285.965 150.26 285.764 148.545 285.663 146.226C285.158 136.041 280.923 130.998 270.939 130.998H239.576V151.268H218.399V80.6764ZM284.352 106.695V105.384C284.352 100.039 281.831 98.2235 273.662 98.2235H239.576V114.157H273.46C281.831 114.157 284.352 112.342 284.352 106.695Z" fill="#FFDA03"/>
<path d="M381.178 106.695V80.6764H402.355V151.268H381.178V124.242H335.797V151.268H314.62V80.6764H335.797V106.695H381.178Z" fill="#FFDA03"/>
</svg>
