<svg width="324" height="114" viewBox="0 0 324 114" fill="none" xmlns="http://www.w3.org/2000/svg">
<path d="M0.355469 52.7242V0.698792H15.9754V39.7922H52.1244V52.7242H0.355469Z" fill="#FFDA03"/>
<path d="M132.834 52.7242H115.875L110.966 43.9542H75.8586L70.9495 52.7242H53.9907L84.7099 0.698792H102.041L132.834 52.7242ZM82.7016 31.9141H104.123L95.4207 13.6308L95.1976 13.0363H91.6273L91.4042 13.6308L82.7016 31.9141Z" fill="#FFDA03"/>
<path d="M0.355469 60.1564H46.6202C53.5376 60.1564 59.3393 62.5347 64.0997 67.3657C68.9344 72.1966 71.3146 78.068 71.3146 84.98V87.2097C71.389 102.148 59.2649 112.182 48.1079 112.182H0.355469V60.1564ZM55.2484 87.061V85.1286C55.2484 77.1019 51.2318 73.0885 43.2731 73.0885H15.9754V99.2498H43.1987C51.2318 99.2498 55.2484 95.1621 55.2484 87.061Z" fill="#FFDA03"/>
<path d="M75.9012 112.182V60.1564H132.356V72.9398H91.5212V80.0747H128.86V91.9663H91.5212V99.3985H132.802V112.182H75.9012Z" fill="#FFDA03"/>
<path d="M154.973 105.287C154.973 106.451 154.758 107.554 154.329 108.596C153.9 109.608 153.302 110.496 152.535 111.263C151.768 111.998 150.879 112.58 149.867 113.009C148.855 113.469 147.766 113.699 146.601 113.699C145.435 113.699 144.346 113.469 143.334 113.009C142.322 112.58 141.433 111.998 140.666 111.263C139.899 110.496 139.301 109.608 138.872 108.596C138.443 107.554 138.228 106.451 138.228 105.287C138.228 104.153 138.443 103.08 138.872 102.069C139.301 101.027 139.899 100.138 140.666 99.4029C141.433 98.6368 142.322 98.0392 143.334 97.6102C144.346 97.1505 145.435 96.9207 146.601 96.9207C147.766 96.9207 148.855 97.1505 149.867 97.6102C150.879 98.0392 151.768 98.6368 152.535 99.4029C153.302 100.138 153.9 101.027 154.329 102.069C154.758 103.08 154.973 104.153 154.973 105.287Z" fill="#FFDA03"/>
<path d="M161.44 60.1564H205.994C219.457 60.1564 226.151 65.6563 226.151 76.5816V77.6964C226.151 83.8652 223.027 88.0272 216.779 90.1825V90.3312C223.622 92.4865 225.407 96.054 226.225 103.858C226.597 107.574 227.713 110.249 228.531 112.182H211.796C211.275 111.439 211.126 110.175 211.052 108.466C210.68 100.959 207.556 97.2431 200.192 97.2431H177.06V112.182H161.44V60.1564ZM210.085 79.3315V78.3653C210.085 74.4263 208.225 73.0885 202.201 73.0885H177.06V84.8314H202.052C208.225 84.8314 210.085 83.4936 210.085 79.3315Z" fill="#FFDA03"/>
<path d="M281.501 79.3315V60.1564H297.121V112.182H281.501V92.2636H248.029V112.182H232.41V60.1564H248.029V79.3315H281.501Z" fill="#FFDA03"/>
<path d="M313.493 77.3101C311.959 77.3101 310.608 76.9985 309.439 76.3753C308.269 75.7261 307.359 74.8302 306.71 73.6876C306.086 72.519 305.774 71.1816 305.774 69.6755V67.5331C305.774 66.027 306.086 64.7026 306.71 63.56C307.359 62.3914 308.269 61.4955 309.439 60.8723C310.608 60.2231 311.959 59.8985 313.493 59.8985H315.637C317.17 59.8985 318.522 60.2231 319.691 60.8723C320.861 61.4955 321.757 62.3914 322.381 63.56C323.031 64.7026 323.355 66.027 323.355 67.5331V69.6755C323.355 71.1816 323.031 72.519 322.381 73.6876C321.757 74.8302 320.861 75.7261 319.691 76.3753C318.522 76.9985 317.17 77.3101 315.637 77.3101H313.493ZM315.754 75.5183C317.547 75.5183 318.937 75.012 319.925 73.9992C320.939 72.9864 321.445 71.5712 321.445 69.7534V67.4552C321.445 65.6374 320.939 64.2222 319.925 63.2094C318.937 62.1966 317.547 61.6903 315.754 61.6903H313.376C311.583 61.6903 310.179 62.1966 309.166 63.2094C308.152 64.2222 307.645 65.6374 307.645 67.4552V69.7534C307.645 71.5712 308.152 72.9864 309.166 73.9992C310.179 75.012 311.583 75.5183 313.376 75.5183H315.754ZM311.076 63.9105H315.325C316.261 63.9105 317.001 64.1572 317.547 64.6506C318.093 65.1181 318.366 65.7543 318.366 66.5593V67.0657C318.366 67.637 318.197 68.1563 317.859 68.6238C317.547 69.0652 317.131 69.3769 316.611 69.5586L318.755 72.9475H316.611L314.701 69.7534H312.908V72.9475H311.076V63.9105ZM315.208 68.1563C315.624 68.1563 315.949 68.0525 316.183 67.8447C316.416 67.637 316.533 67.3773 316.533 67.0657V66.6762C316.533 66.3645 316.416 66.1178 316.183 65.9361C315.949 65.7283 315.624 65.6245 315.208 65.6245H312.908V68.1563H315.208Z" fill="#FFDA03"/>
</svg>
