<svg width="78" height="50" viewBox="0 0 78 50" fill="none" xmlns="http://www.w3.org/2000/svg">
<path d="M1.80376 10.0104C11.0505 9.37792 20.2366 8.21675 29.4348 7.16132C38.6683 6.10185 47.8544 4.9407 56.9931 3.67785C62.2009 3.00888 67.4046 2.30468 72.6043 1.56522C72.29 1.31562 72.015 1.0972 71.7793 0.909998C72.2033 7.71735 72.588 14.4935 72.9335 21.2385C73.1103 24.6462 73.3223 28.0499 73.5695 31.4495C73.6227 33.1574 73.7111 34.8612 73.8347 36.561C73.859 36.7725 73.9075 37.1955 73.8382 37.5248C73.7688 37.8541 73.4517 37.8905 73.1345 37.9269C72.3008 38.1297 71.4428 38.121 70.597 38.2181C57.064 39.7709 43.5945 41.5664 30.1886 43.6045C22.6086 44.7599 15.0327 45.9505 7.46081 47.1764C7.7751 47.426 8.08939 47.6757 8.40368 47.9253C7.63072 35.5875 5.5648 23.1838 1.94935 11.2792C1.63737 11.6721 1.35656 12.0257 1.10697 12.34C10.9777 15.2782 20.9298 17.9927 30.9635 20.4837C33.5275 21.0465 36.0955 21.6446 38.6676 22.2778C39.8439 22.5714 41.0514 22.8256 42.2901 23.0405C42.8782 23.1873 43.4664 23.3341 44.0545 23.4809C44.831 23.7132 45.136 23.571 45.8397 23.1689C50.0214 20.4037 54.1165 17.5057 58.1249 14.4748C62.7353 11.0891 67.2549 7.53527 71.6839 3.81333C72.3633 3.19974 71.4777 2.01586 70.7982 2.62944C62.2915 9.71165 53.5006 16.1837 44.3318 22.1635C44.5433 22.1393 44.7154 22.0838 44.8483 21.9971C33.6517 19.6396 22.313 16.977 11.125 13.7615C7.9486 12.8405 4.73288 11.8882 1.47788 10.9048C0.807127 10.6604 0.221326 11.1561 0.411977 11.8841C3.80384 23.7072 5.95122 35.8873 6.81777 48.1073C6.76058 48.5423 7.23202 48.9167 7.65493 48.8682C21.5924 46.4834 35.5974 44.3765 49.67 42.5475C56.6318 41.6059 63.6058 40.77 70.5919 40.0398C71.4377 39.9427 72.2834 39.8457 73.1293 39.7486C73.7515 39.5701 74.3859 39.4973 74.866 39.0137C75.944 38.1402 75.5264 36.367 75.3929 35.2039C75.1919 31.5847 74.9596 28.0048 74.6962 24.4642C74.2132 16.5209 73.7343 8.61293 73.2594 0.740164C73.2109 0.317232 72.7516 0.0485393 72.4345 0.0849331C54.1027 2.7597 35.7386 5.15256 17.3421 7.26341C12.1615 7.85785 6.86306 8.35868 1.69458 9.05885C1.07235 9.23737 1.1694 10.0832 1.80376 10.0104Z" fill="white"/>
<path d="M6.0514 44.2317C8.10181 42.4967 9.9165 40.5744 11.8369 38.64C13.7654 36.7762 15.7251 34.8731 17.716 32.9306C19.6445 31.0668 21.573 29.2029 23.5016 27.339C24.4618 26.3718 25.3908 25.4439 26.2886 24.5553C27.2488 23.5882 28.5383 22.6904 29.0392 21.4545C29.2143 21.1131 28.8364 20.6208 28.4257 20.775C27.3112 21.3314 26.4689 22.3922 25.4965 23.2536C24.6068 24.2127 23.6778 25.1406 22.7095 26.0373C20.7186 27.9797 18.7629 29.9181 16.8425 31.8525C14.9844 33.7082 13.0953 35.6033 11.1748 37.5377C9.25442 39.472 7.11038 41.3249 5.31994 43.4586C4.94557 43.9301 5.55916 44.6095 6.0514 44.2317Z" fill="white"/>
<path d="M52.1004 18.9156C55.527 20.7721 59.3279 22.1571 62.9989 23.3427C66.701 24.4891 70.4847 25.4119 74.3498 26.111C75.3256 26.2133 75.5907 24.7903 74.6028 24.5823C70.8082 23.875 67.0638 22.9835 63.3698 21.9076C59.6052 20.8398 56.1093 19.3126 52.4384 18.127C51.9912 17.964 51.6411 18.647 52.1004 18.9156Z" fill="white"/>
</svg>
