<svg width="575" height="53" viewBox="0 0 575 53" fill="none" xmlns="http://www.w3.org/2000/svg">
<path fill-rule="evenodd" clip-rule="evenodd" d="M508.11 11.201C506.706 11.0319 497.547 10.4412 487.808 9.69516C478.044 9.04576 461.838 7.70585 451.765 6.66314C328.932 -5.13025 135.093 -0.750133 50.8628 15.7103C32.8286 19.2638 12.9555 25.4304 5.11708 29.9559C-1.12911 33.5621 -1.91759 35.732 4.1992 32.6087C12.8362 28.1937 34.8774 24.368 76.5981 20.1214C90.1077 18.772 106.439 16.9363 112.882 16.0744C126.179 14.3576 187.586 9.27783 210.288 8.01025C238.891 6.3568 291.14 4.93132 319.811 4.95276C357.482 5.00429 394.777 5.68021 395.105 6.38917C395.247 6.63412 382.601 7.07634 367.096 7.37341C338.295 7.83494 273.766 11.0429 247.675 13.3693C215.973 16.1592 178.752 22.5433 177.318 25.5756C176.389 27.5005 184.028 33.3779 189.437 34.8273C197.647 37.0273 224.783 38.9149 252.649 39.2381C411.722 40.9681 455.574 42.6761 545.631 50.4493C562.222 51.8928 575.452 52.746 574.995 52.52C574.036 51.8489 513.739 44.2852 496.085 42.5571C441.911 37.2552 373.145 34.2549 282.784 33.0259C216.675 32.0836 185.197 30.1714 186.077 26.8873C187.242 22.5406 236.797 16.8734 297.68 14.1377C365.043 11.1715 427.159 11.5615 494.043 15.4034C516.993 16.687 520.633 16.6269 520.036 14.6036C519.786 13.6048 512.857 11.6447 508.11 11.201ZM399.247 6.7742C398.879 6.98633 397.984 6.84997 397.385 6.37902C396.69 5.88218 397.058 5.67007 398.12 5.95477C399.209 6.14288 399.711 6.58795 399.247 6.7742Z" fill="#FDE474"/>
</svg>
