<svg width="87" height="93" viewBox="0 0 87 93" fill="none" xmlns="http://www.w3.org/2000/svg">
<circle cx="83.3848" cy="90.877" r="1.42672" transform="rotate(180 83.3848 90.877)" fill="#313652"/>
<circle cx="83.0664" cy="86.7774" r="1.42672" transform="rotate(180 83.0664 86.7774)" fill="#313652"/>
<circle cx="82.3496" cy="82.8174" r="1.42672" transform="rotate(180 82.3496 82.8174)" fill="#313652"/>
<circle cx="81.8311" cy="78.7002" r="1.42672" transform="rotate(180 81.8311 78.7002)" fill="#313652"/>
<circle cx="81.9854" cy="74.376" r="1.42672" transform="rotate(180 81.9854 74.376)" fill="#313652"/>
<circle cx="82.6446" cy="69.8584" r="1.42672" transform="rotate(180 82.6446 69.8584)" fill="#313652"/>
<circle cx="83.1026" cy="65.3584" r="1.42672" transform="rotate(180 83.1026 65.3584)" fill="#313652"/>
<circle cx="83.1143" cy="61.0713" r="1.42672" transform="rotate(180 83.1143 61.0713)" fill="#313652"/>
<circle cx="83.1436" cy="56.7754" r="1.42672" transform="rotate(180 83.1436 56.7754)" fill="#313652"/>
<circle cx="83.3272" cy="52.3907" r="1.42672" transform="rotate(180 83.3272 52.3907)" fill="#313652"/>
<circle cx="83.6836" cy="47.8799" r="1.42672" transform="rotate(180 83.6836 47.8799)" fill="#313652"/>
<circle cx="84.0313" cy="43.3369" r="1.42672" transform="rotate(180 84.0313 43.3369)" fill="#313652"/>
<circle cx="84.2032" cy="38.9121" r="1.42672" transform="rotate(180 84.2032 38.9121)" fill="#313652"/>
<circle cx="84.1231" cy="34.7002" r="1.42672" transform="rotate(180 84.1231 34.7002)" fill="#313652"/>
<circle cx="83.9815" cy="30.5371" r="1.42672" transform="rotate(180 83.9815 30.5371)" fill="#313652"/>
<circle cx="83.9278" cy="26.2989" r="1.42672" transform="rotate(180 83.9278 26.2989)" fill="#313652"/>
<circle cx="84.0694" cy="21.9053" r="1.42672" transform="rotate(180 84.0694 21.9053)" fill="#313652"/>
<circle cx="84.2403" cy="17.4786" r="1.42672" transform="rotate(180 84.2403 17.4786)" fill="#313652"/>
<circle cx="84.459" cy="12.9912" r="1.42672" transform="rotate(180 84.459 12.9912)" fill="#313652"/>
<circle cx="84.7832" cy="8.36234" r="1.42672" transform="rotate(180 84.7832 8.36234)" fill="#313652"/>
<circle cx="79.0938" cy="90.8838" r="1.42672" transform="rotate(180 79.0938 90.8838)" fill="#313652"/>
<circle cx="78.8741" cy="86.7305" r="1.42672" transform="rotate(180 78.8741 86.7305)" fill="#313652"/>
<circle cx="78.3692" cy="82.6973" r="1.42672" transform="rotate(180 78.3692 82.6973)" fill="#313652"/>
<circle cx="77.959" cy="78.5752" r="1.42672" transform="rotate(180 77.959 78.5752)" fill="#313652"/>
<circle cx="77.9317" cy="74.3047" r="1.42672" transform="rotate(180 77.9317 74.3047)" fill="#313652"/>
<circle cx="78.209" cy="69.9229" r="1.42672" transform="rotate(180 78.209 69.9229)" fill="#313652"/>
<circle cx="78.4239" cy="65.5528" r="1.42672" transform="rotate(180 78.4239 65.5528)" fill="#313652"/>
<circle cx="78.4532" cy="61.2588" r="1.42672" transform="rotate(180 78.4532 61.2588)" fill="#313652"/>
<circle cx="78.587" cy="56.917" r="1.42672" transform="rotate(180 78.587 56.917)" fill="#313652"/>
<circle cx="78.8477" cy="52.5039" r="1.42672" transform="rotate(180 78.8477 52.5039)" fill="#313652"/>
<circle cx="79.2149" cy="48.0069" r="1.42672" transform="rotate(180 79.2149 48.0069)" fill="#313652"/>
<circle cx="79.6192" cy="43.4424" r="1.42672" transform="rotate(180 79.6192 43.4424)" fill="#313652"/>
<circle cx="79.8428" cy="38.9815" r="1.42672" transform="rotate(180 79.8428 38.9815)" fill="#313652"/>
<circle cx="79.7618" cy="34.7686" r="1.42672" transform="rotate(180 79.7618 34.7686)" fill="#313652"/>
<circle cx="79.5528" cy="30.6514" r="1.42672" transform="rotate(180 79.5528 30.6514)" fill="#313652"/>
<circle cx="79.4268" cy="26.4629" r="1.42672" transform="rotate(180 79.4268 26.4629)" fill="#313652"/>
<circle cx="79.5704" cy="22.0782" r="1.42672" transform="rotate(180 79.5704 22.0782)" fill="#313652"/>
<circle cx="79.8467" cy="17.5762" r="1.42672" transform="rotate(180 79.8467 17.5762)" fill="#313652"/>
<circle cx="80.1836" cy="12.9864" r="1.42672" transform="rotate(180 80.1836 12.9864)" fill="#313652"/>
<circle cx="80.5303" cy="8.32914" r="1.42672" transform="rotate(180 80.5303 8.32914)" fill="#313652"/>
<circle cx="74.8897" cy="90.837" r="1.42672" transform="rotate(180 74.8897 90.837)" fill="#313652"/>
<circle cx="74.8643" cy="86.5723" r="1.42672" transform="rotate(180 74.8643 86.5723)" fill="#313652"/>
<circle cx="74.7608" cy="82.3545" r="1.42672" transform="rotate(180 74.7608 82.3545)" fill="#313652"/>
<circle cx="74.5352" cy="78.2022" r="1.42672" transform="rotate(180 74.5352 78.2022)" fill="#313652"/>
<circle cx="74.126" cy="74.1211" r="1.42672" transform="rotate(180 74.126 74.1211)" fill="#313652"/>
<circle cx="73.5879" cy="70.0459" r="1.42672" transform="rotate(180 73.5879 70.0459)" fill="#313652"/>
<circle cx="73.25" cy="65.8643" r="1.42672" transform="rotate(180 73.25 65.8643)" fill="#313652"/>
<circle cx="73.3145" cy="61.5674" r="1.42672" transform="rotate(180 73.3145 61.5674)" fill="#313652"/>
<circle cx="73.669" cy="57.1787" r="1.42672" transform="rotate(180 73.669 57.1787)" fill="#313652"/>
<circle cx="74.084" cy="52.7383" r="1.42672" transform="rotate(180 74.084 52.7383)" fill="#313652"/>
<circle cx="74.4551" cy="48.2832" r="1.42672" transform="rotate(180 74.4551 48.2832)" fill="#313652"/>
<circle cx="74.9737" cy="43.7012" r="1.42672" transform="rotate(180 74.9737 43.7012)" fill="#313652"/>
<circle cx="75.3116" cy="39.1827" r="1.42672" transform="rotate(180 75.3116 39.1827)" fill="#313652"/>
<circle cx="75.2256" cy="34.9668" r="1.42672" transform="rotate(180 75.2256 34.9668)" fill="#313652"/>
<circle cx="74.8682" cy="30.9278" r="1.42672" transform="rotate(180 74.8682 30.9278)" fill="#313652"/>
<circle cx="74.5801" cy="26.8155" r="1.42672" transform="rotate(180 74.5801 26.8155)" fill="#313652"/>
<circle cx="74.7295" cy="22.4512" r="1.42672" transform="rotate(180 74.7295 22.4512)" fill="#313652"/>
<circle cx="75.2491" cy="17.8291" r="1.42672" transform="rotate(180 75.2491 17.8291)" fill="#313652"/>
<circle cx="75.8409" cy="13.0489" r="1.42672" transform="rotate(180 75.8409 13.0489)" fill="#313652"/>
<circle cx="76.2364" cy="8.34574" r="1.42672" transform="rotate(180 76.2364 8.34574)" fill="#313652"/>
<circle cx="70.9756" cy="90.587" r="1.42672" transform="rotate(180 70.9756 90.587)" fill="#313652"/>
<circle cx="71.0342" cy="86.2627" r="1.42672" transform="rotate(180 71.0342 86.2627)" fill="#313652"/>
<circle cx="71.0821" cy="81.9454" r="1.42672" transform="rotate(180 71.0821 81.9454)" fill="#313652"/>
<circle cx="70.8702" cy="77.8233" r="1.42672" transform="rotate(180 70.8702 77.8233)" fill="#313652"/>
<circle cx="70.168" cy="73.9678" r="1.42672" transform="rotate(180 70.168 73.9678)" fill="#313652"/>
<circle cx="69.0713" cy="70.1172" r="1.42672" transform="rotate(180 69.0713 70.1172)" fill="#313652"/>
<circle cx="68.3409" cy="65.9922" r="1.42672" transform="rotate(180 68.3409 65.9922)" fill="#313652"/>
<circle cx="68.4092" cy="61.7012" r="1.42672" transform="rotate(180 68.4092 61.7012)" fill="#313652"/>
<circle cx="68.8623" cy="57.3311" r="1.42672" transform="rotate(180 68.8623 57.3311)" fill="#313652"/>
<circle cx="69.3223" cy="52.9209" r="1.42672" transform="rotate(180 69.3223 52.9209)" fill="#313652"/>
<circle cx="69.6436" cy="48.5235" r="1.42672" transform="rotate(180 69.6436 48.5235)" fill="#313652"/>
<circle cx="70.2041" cy="43.9873" r="1.42672" transform="rotate(180 70.2041 43.9873)" fill="#313652"/>
<circle cx="70.6045" cy="39.4776" r="1.42672" transform="rotate(180 70.6045 39.4776)" fill="#313652"/>
<circle cx="70.5147" cy="35.253" r="1.42672" transform="rotate(180 70.5147 35.253)" fill="#313652"/>
<circle cx="70.0567" cy="31.2217" r="1.42672" transform="rotate(180 70.0567 31.2217)" fill="#313652"/>
<circle cx="69.6641" cy="27.1153" r="1.42672" transform="rotate(180 69.6641 27.1153)" fill="#313652"/>
<circle cx="69.8213" cy="22.7696" r="1.42672" transform="rotate(180 69.8213 22.7696)" fill="#313652"/>
<circle cx="70.5108" cy="18.1338" r="1.42672" transform="rotate(180 70.5108 18.1338)" fill="#313652"/>
<circle cx="71.2784" cy="13.3037" r="1.42672" transform="rotate(180 71.2784 13.3037)" fill="#313652"/>
<circle cx="71.709" cy="8.61918" r="1.42672" transform="rotate(180 71.709 8.61918)" fill="#313652"/>
<circle cx="67.3487" cy="90.0254" r="1.42672" transform="rotate(180 67.3487 90.0254)" fill="#313652"/>
<circle cx="67.3057" cy="85.7862" r="1.42672" transform="rotate(180 67.3057 85.7862)" fill="#313652"/>
<circle cx="67.1231" cy="81.6768" r="1.42672" transform="rotate(180 67.1231 81.6768)" fill="#313652"/>
<circle cx="66.6885" cy="77.751" r="1.42672" transform="rotate(180 66.6885 77.751)" fill="#313652"/>
<circle cx="65.9004" cy="73.961" r="1.42672" transform="rotate(180 65.9004 73.961)" fill="#313652"/>
<circle cx="64.8955" cy="70.087" r="1.42672" transform="rotate(180 64.8955 70.087)" fill="#313652"/>
<circle cx="64.2608" cy="65.959" r="1.42672" transform="rotate(180 64.2608 65.959)" fill="#313652"/>
<circle cx="64.2618" cy="61.6787" r="1.42672" transform="rotate(180 64.2618 61.6787)" fill="#313652"/>
<circle cx="64.502" cy="57.3496" r="1.42672" transform="rotate(180 64.502 57.3496)" fill="#313652"/>
<circle cx="64.7539" cy="53.0069" r="1.42672" transform="rotate(180 64.7539 53.0069)" fill="#313652"/>
<circle cx="64.9483" cy="48.67" r="1.42672" transform="rotate(180 64.9483 48.67)" fill="#313652"/>
<circle cx="65.3526" cy="44.2481" r="1.42672" transform="rotate(180 65.3526 44.2481)" fill="#313652"/>
<circle cx="65.6514" cy="39.8409" r="1.42672" transform="rotate(180 65.6514 39.8409)" fill="#313652"/>
<circle cx="65.5655" cy="35.5987" r="1.42672" transform="rotate(180 65.5655 35.5987)" fill="#313652"/>
<circle cx="65.2256" cy="31.4561" r="1.42672" transform="rotate(180 65.2256 31.4561)" fill="#313652"/>
<circle cx="64.9737" cy="27.2608" r="1.42672" transform="rotate(180 64.9737 27.2608)" fill="#313652"/>
<circle cx="65.1573" cy="22.92" r="1.42672" transform="rotate(180 65.1573 22.92)" fill="#313652"/>
<circle cx="65.7403" cy="18.3985" r="1.42672" transform="rotate(180 65.7403 18.3985)" fill="#313652"/>
<circle cx="66.3936" cy="13.753" r="1.42672" transform="rotate(180 66.3936 13.753)" fill="#313652"/>
<circle cx="66.7959" cy="9.18754" r="1.42672" transform="rotate(180 66.7959 9.18754)" fill="#313652"/>
<circle cx="63.7315" cy="89.2344" r="1.42672" transform="rotate(180 63.7315 89.2344)" fill="#313652"/>
<circle cx="63.543" cy="85.209" r="1.42672" transform="rotate(180 63.543 85.209)" fill="#313652"/>
<circle cx="62.9991" cy="81.5323" r="1.42672" transform="rotate(180 62.9991 81.5323)" fill="#313652"/>
<circle cx="62.2354" cy="77.8741" r="1.42672" transform="rotate(180 62.2354 77.8741)" fill="#313652"/>
<circle cx="61.5166" cy="74.0127" r="1.42672" transform="rotate(180 61.5166 74.0127)" fill="#313652"/>
<circle cx="61.043" cy="69.9405" r="1.42672" transform="rotate(180 61.043 69.9405)" fill="#313652"/>
<circle cx="60.8194" cy="65.7412" r="1.42672" transform="rotate(180 60.8194 65.7412)" fill="#313652"/>
<circle cx="60.7041" cy="61.4991" r="1.42672" transform="rotate(180 60.7041 61.4991)" fill="#313652"/>
<circle cx="60.5147" cy="57.2754" r="1.42672" transform="rotate(180 60.5147 57.2754)" fill="#313652"/>
<circle cx="60.3887" cy="53.0293" r="1.42672" transform="rotate(180 60.3887 53.0293)" fill="#313652"/>
<circle cx="60.416" cy="48.7422" r="1.42672" transform="rotate(180 60.416 48.7422)" fill="#313652"/>
<circle cx="60.5039" cy="44.4375" r="1.42672" transform="rotate(180 60.5039 44.4375)" fill="#313652"/>
<circle cx="60.543" cy="40.1465" r="1.42672" transform="rotate(180 60.543 40.1465)" fill="#313652"/>
<circle cx="60.4795" cy="35.8838" r="1.42672" transform="rotate(180 60.4795 35.8838)" fill="#313652"/>
<circle cx="60.4961" cy="31.5996" r="1.42672" transform="rotate(180 60.4961 31.5996)" fill="#313652"/>
<circle cx="60.625" cy="27.2823" r="1.42672" transform="rotate(180 60.625 27.2823)" fill="#313652"/>
<circle cx="60.8487" cy="22.9297" r="1.42672" transform="rotate(180 60.8487 22.9297)" fill="#313652"/>
<circle cx="61.0889" cy="18.5606" r="1.42672" transform="rotate(180 61.0889 18.5606)" fill="#313652"/>
<circle cx="61.3389" cy="14.1748" r="1.42672" transform="rotate(180 61.3389 14.1748)" fill="#313652"/>
<circle cx="61.626" cy="9.75492" r="1.42672" transform="rotate(180 61.626 9.75492)" fill="#313652"/>
<circle cx="59.8799" cy="88.5176" r="1.42672" transform="rotate(180 59.8799 88.5176)" fill="#313652"/>
<circle cx="59.6407" cy="84.6651" r="1.42672" transform="rotate(180 59.6407 84.6651)" fill="#313652"/>
<circle cx="58.9229" cy="81.3252" r="1.42672" transform="rotate(180 58.9229 81.3252)" fill="#313652"/>
<circle cx="57.9727" cy="77.8623" r="1.42672" transform="rotate(180 57.9727 77.8623)" fill="#313652"/>
<circle cx="57.3418" cy="73.96" r="1.42672" transform="rotate(180 57.3418 73.96)" fill="#313652"/>
<circle cx="57.25" cy="69.7256" r="1.42672" transform="rotate(180 57.25 69.7256)" fill="#313652"/>
<circle cx="57.2998" cy="65.4219" r="1.42672" transform="rotate(180 57.2998 65.4219)" fill="#313652"/>
<circle cx="57.1114" cy="61.2325" r="1.42672" transform="rotate(180 57.1114 61.2325)" fill="#313652"/>
<circle cx="56.6485" cy="57.1436" r="1.42672" transform="rotate(180 56.6485 57.1436)" fill="#313652"/>
<circle cx="56.2764" cy="52.9834" r="1.42672" transform="rotate(180 56.2764 52.9834)" fill="#313652"/>
<circle cx="56.2032" cy="48.7237" r="1.42672" transform="rotate(180 56.2032 48.7237)" fill="#313652"/>
<circle cx="56.0791" cy="44.4766" r="1.42672" transform="rotate(180 56.0791 44.4766)" fill="#313652"/>
<circle cx="55.9395" cy="40.2295" r="1.42672" transform="rotate(180 55.9395 40.2295)" fill="#313652"/>
<circle cx="55.9004" cy="35.958" r="1.42672" transform="rotate(180 55.9004 35.958)" fill="#313652"/>
<circle cx="56.1719" cy="31.6114" r="1.42672" transform="rotate(180 56.1719 31.6114)" fill="#313652"/>
<circle cx="56.5528" cy="27.2159" r="1.42672" transform="rotate(180 56.5528 27.2159)" fill="#313652"/>
<circle cx="56.7793" cy="22.8526" r="1.42672" transform="rotate(180 56.7793 22.8526)" fill="#313652"/>
<circle cx="56.7471" cy="18.584" r="1.42672" transform="rotate(180 56.7471 18.584)" fill="#313652"/>
<circle cx="56.6612" cy="14.336" r="1.42672" transform="rotate(180 56.6612 14.336)" fill="#313652"/>
<circle cx="56.8184" cy="9.99613" r="1.42672" transform="rotate(180 56.8184 9.99613)" fill="#313652"/>
<circle cx="55.8155" cy="88.0362" r="1.42672" transform="rotate(180 55.8155 88.0362)" fill="#313652"/>
<circle cx="55.6123" cy="84.211" r="1.42672" transform="rotate(180 55.6123 84.211)" fill="#313652"/>
<circle cx="54.9727" cy="80.9414" r="1.42672" transform="rotate(180 54.9727 80.9414)" fill="#313652"/>
<circle cx="54.1123" cy="77.544" r="1.42672" transform="rotate(180 54.1123 77.544)" fill="#313652"/>
<circle cx="53.5528" cy="73.6748" r="1.42672" transform="rotate(180 53.5528 73.6748)" fill="#313652"/>
<circle cx="53.4883" cy="69.4356" r="1.42672" transform="rotate(180 53.4883 69.4356)" fill="#313652"/>
<circle cx="53.5362" cy="65.125" r="1.42672" transform="rotate(180 53.5362 65.125)" fill="#313652"/>
<circle cx="53.3369" cy="60.9678" r="1.42672" transform="rotate(180 53.3369 60.9678)" fill="#313652"/>
<circle cx="52.8594" cy="56.9395" r="1.42672" transform="rotate(180 52.8594 56.9395)" fill="#313652"/>
<circle cx="52.4639" cy="52.8262" r="1.42672" transform="rotate(180 52.4639 52.8262)" fill="#313652"/>
<circle cx="52.3887" cy="48.5743" r="1.42672" transform="rotate(180 52.3887 48.5743)" fill="#313652"/>
<circle cx="52.3379" cy="44.3135" r="1.42672" transform="rotate(180 52.3379 44.3135)" fill="#313652"/>
<circle cx="52.2803" cy="40.0537" r="1.42672" transform="rotate(180 52.2803 40.0537)" fill="#313652"/>
<circle cx="52.2666" cy="35.7774" r="1.42672" transform="rotate(180 52.2666 35.7774)" fill="#313652"/>
<circle cx="52.5088" cy="31.4092" r="1.42672" transform="rotate(180 52.5088 31.4092)" fill="#313652"/>
<circle cx="52.833" cy="26.9903" r="1.42672" transform="rotate(180 52.833 26.9903)" fill="#313652"/>
<circle cx="53.002" cy="22.6289" r="1.42672" transform="rotate(180 53.002 22.6289)" fill="#313652"/>
<circle cx="52.8692" cy="18.4131" r="1.42672" transform="rotate(180 52.8692 18.4131)" fill="#313652"/>
<circle cx="52.6592" cy="14.2266" r="1.42672" transform="rotate(180 52.6592 14.2266)" fill="#313652"/>
<circle cx="52.7188" cy="9.92093" r="1.42672" transform="rotate(180 52.7188 9.92093)" fill="#313652"/>
<circle cx="51.6768" cy="87.6329" r="1.42672" transform="rotate(180 51.6768 87.6329)" fill="#313652"/>
<circle cx="51.5147" cy="83.8077" r="1.42672" transform="rotate(180 51.5147 83.8077)" fill="#313652"/>
<circle cx="50.9961" cy="80.5196" r="1.42672" transform="rotate(180 50.9961 80.5196)" fill="#313652"/>
<circle cx="50.3457" cy="77.0635" r="1.42672" transform="rotate(180 50.3457 77.0635)" fill="#313652"/>
<circle cx="50.003" cy="73.1172" r="1.42672" transform="rotate(180 50.003 73.1172)" fill="#313652"/>
<circle cx="50.0244" cy="68.8174" r="1.42672" transform="rotate(180 50.0244 68.8174)" fill="#313652"/>
<circle cx="50.083" cy="64.4834" r="1.42672" transform="rotate(180 50.083 64.4834)" fill="#313652"/>
<circle cx="49.8897" cy="60.375" r="1.42672" transform="rotate(180 49.8897 60.375)" fill="#313652"/>
<circle cx="49.417" cy="56.458" r="1.42672" transform="rotate(180 49.417 56.458)" fill="#313652"/>
<circle cx="48.9922" cy="52.4444" r="1.42672" transform="rotate(180 48.9922 52.4444)" fill="#313652"/>
<circle cx="48.9209" cy="48.2041" r="1.42672" transform="rotate(180 48.9209 48.2041)" fill="#313652"/>
<circle cx="49.1026" cy="43.8194" r="1.42672" transform="rotate(180 49.1026 43.8194)" fill="#313652"/>
<circle cx="49.2862" cy="39.4239" r="1.42672" transform="rotate(180 49.2862 39.4239)" fill="#313652"/>
<circle cx="49.3125" cy="35.128" r="1.42672" transform="rotate(180 49.3125 35.128)" fill="#313652"/>
<circle cx="49.4375" cy="30.7627" r="1.42672" transform="rotate(180 49.4375 30.7627)" fill="#313652"/>
<circle cx="49.6172" cy="26.3526" r="1.42672" transform="rotate(180 49.6172 26.3526)" fill="#313652"/>
<circle cx="49.7119" cy="21.9991" r="1.42672" transform="rotate(180 49.7119 21.9991)" fill="#313652"/>
<circle cx="49.4453" cy="17.917" r="1.42672" transform="rotate(180 49.4453 17.917)" fill="#313652"/>
<circle cx="49.0528" cy="13.8887" r="1.42672" transform="rotate(180 49.0528 13.8887)" fill="#313652"/>
<circle cx="48.9952" cy="9.64164" r="1.42672" transform="rotate(180 48.9952 9.64164)" fill="#313652"/>
<circle cx="47.4268" cy="87.5352" r="1.42672" transform="rotate(180 47.4268 87.5352)" fill="#313652"/>
<circle cx="47.294" cy="83.6553" r="1.42672" transform="rotate(180 47.294 83.6553)" fill="#313652"/>
<circle cx="46.9024" cy="80.211" r="1.42672" transform="rotate(180 46.9024 80.211)" fill="#313652"/>
<circle cx="46.5127" cy="76.5293" r="1.42672" transform="rotate(180 46.5127 76.5293)" fill="#313652"/>
<circle cx="46.4463" cy="72.337" r="1.42672" transform="rotate(180 46.4463 72.337)" fill="#313652"/>
<circle cx="46.6045" cy="67.8418" r="1.42672" transform="rotate(180 46.6045 67.8418)" fill="#313652"/>
<circle cx="46.7012" cy="63.42" r="1.42672" transform="rotate(180 46.7012 63.42)" fill="#313652"/>
<circle cx="46.542" cy="59.3692" r="1.42672" transform="rotate(180 46.542 59.3692)" fill="#313652"/>
<circle cx="46.1172" cy="55.6065" r="1.42672" transform="rotate(180 46.1172 55.6065)" fill="#313652"/>
<circle cx="45.6866" cy="51.7481" r="1.42672" transform="rotate(180 45.6866 51.7481)" fill="#313652"/>
<circle cx="45.5869" cy="47.5537" r="1.42672" transform="rotate(180 45.5869 47.5537)" fill="#313652"/>
<circle cx="45.8741" cy="43.0147" r="1.42672" transform="rotate(180 45.8741 43.0147)" fill="#313652"/>
<circle cx="46.168" cy="38.4297" r="1.42672" transform="rotate(180 46.168 38.4297)" fill="#313652"/>
<circle cx="46.2149" cy="34.0977" r="1.42672" transform="rotate(180 46.2149 34.0977)" fill="#313652"/>
<circle cx="46.2637" cy="29.7608" r="1.42672" transform="rotate(180 46.2637 29.7608)" fill="#313652"/>
<circle cx="46.3448" cy="25.3828" r="1.42672" transform="rotate(180 46.3448 25.3828)" fill="#313652"/>
<circle cx="46.3946" cy="21.042" r="1.42672" transform="rotate(180 46.3946 21.042)" fill="#313652"/>
<circle cx="46.084" cy="17.1202" r="1.42672" transform="rotate(180 46.084 17.1202)" fill="#313652"/>
<circle cx="45.6143" cy="13.2901" r="1.42672" transform="rotate(180 45.6143 13.2901)" fill="#313652"/>
<circle cx="45.4785" cy="9.12211" r="1.42672" transform="rotate(180 45.4785 9.12211)" fill="#313652"/>
<circle cx="43.0332" cy="87.8809" r="1.42672" transform="rotate(180 43.0332 87.8809)" fill="#313652"/>
<circle cx="42.9258" cy="83.8741" r="1.42672" transform="rotate(180 42.9258 83.8741)" fill="#313652"/>
<circle cx="42.6719" cy="80.1221" r="1.42672" transform="rotate(180 42.6719 80.1221)" fill="#313652"/>
<circle cx="42.5381" cy="76.0743" r="1.42672" transform="rotate(180 42.5381 76.0743)" fill="#313652"/>
<circle cx="42.6953" cy="71.5186" r="1.42672" transform="rotate(180 42.6953 71.5186)" fill="#313652"/>
<circle cx="42.9395" cy="66.7207" r="1.42672" transform="rotate(180 42.9395 66.7207)" fill="#313652"/>
<circle cx="43.0498" cy="62.1534" r="1.42672" transform="rotate(180 43.0498 62.1534)" fill="#313652"/>
<circle cx="42.9483" cy="58.1397" r="1.42672" transform="rotate(180 42.9483 58.1397)" fill="#313652"/>
<circle cx="42.6397" cy="54.4981" r="1.42672" transform="rotate(180 42.6397 54.4981)" fill="#313652"/>
<circle cx="42.2725" cy="50.794" r="1.42672" transform="rotate(180 42.2725 50.794)" fill="#313652"/>
<circle cx="42.1328" cy="46.6993" r="1.42672" transform="rotate(180 42.1328 46.6993)" fill="#313652"/>
<circle cx="42.3321" cy="42.1494" r="1.42672" transform="rotate(180 42.3321 42.1494)" fill="#313652"/>
<circle cx="42.5586" cy="37.5186" r="1.42672" transform="rotate(180 42.5586 37.5186)" fill="#313652"/>
<circle cx="42.6026" cy="33.1651" r="1.42672" transform="rotate(180 42.6026 33.1651)" fill="#313652"/>
<circle cx="42.6241" cy="28.8467" r="1.42672" transform="rotate(180 42.6241 28.8467)" fill="#313652"/>
<circle cx="42.6651" cy="24.4932" r="1.42672" transform="rotate(180 42.6651 24.4932)" fill="#313652"/>
<circle cx="42.7012" cy="20.1446" r="1.42672" transform="rotate(180 42.7012 20.1446)" fill="#313652"/>
<circle cx="42.4932" cy="16.2246" r="1.42672" transform="rotate(180 42.4932 16.2246)" fill="#313652"/>
<circle cx="42.1524" cy="12.4317" r="1.42672" transform="rotate(180 42.1524 12.4317)" fill="#313652"/>
<circle cx="42.0284" cy="8.30668" r="1.42672" transform="rotate(180 42.0284 8.30668)" fill="#313652"/>
<circle cx="38.4864" cy="88.501" r="1.42672" transform="rotate(180 38.4864 88.501)" fill="#313652"/>
<circle cx="38.4336" cy="84.3243" r="1.42672" transform="rotate(180 38.4336 84.3243)" fill="#313652"/>
<circle cx="38.3623" cy="80.1758" r="1.42672" transform="rotate(180 38.3623 80.1758)" fill="#313652"/>
<circle cx="38.4561" cy="75.7198" r="1.42672" transform="rotate(180 38.4561 75.7198)" fill="#313652"/>
<circle cx="38.7168" cy="70.8575" r="1.42672" transform="rotate(180 38.7168 70.8575)" fill="#313652"/>
<circle cx="38.9327" cy="65.8907" r="1.42672" transform="rotate(180 38.9327 65.8907)" fill="#313652"/>
<circle cx="39.0059" cy="61.2725" r="1.42672" transform="rotate(180 39.0059 61.2725)" fill="#313652"/>
<circle cx="38.9541" cy="57.2393" r="1.42672" transform="rotate(180 38.9541 57.2393)" fill="#313652"/>
<circle cx="38.7832" cy="53.5557" r="1.42672" transform="rotate(180 38.7832 53.5557)" fill="#313652"/>
<circle cx="38.5362" cy="49.878" r="1.42672" transform="rotate(180 38.5362 49.878)" fill="#313652"/>
<circle cx="38.4014" cy="45.8623" r="1.42672" transform="rotate(180 38.4014 45.8623)" fill="#313652"/>
<circle cx="38.542" cy="41.3057" r="1.42672" transform="rotate(180 38.542 41.3057)" fill="#313652"/>
<circle cx="38.7129" cy="36.627" r="1.42672" transform="rotate(180 38.7129 36.627)" fill="#313652"/>
<circle cx="38.7412" cy="32.2705" r="1.42672" transform="rotate(180 38.7412 32.2705)" fill="#313652"/>
<circle cx="38.6914" cy="28.1202" r="1.42672" transform="rotate(180 38.6914 28.1202)" fill="#313652"/>
<circle cx="38.6475" cy="23.9473" r="1.42672" transform="rotate(180 38.6475 23.9473)" fill="#313652"/>
<circle cx="38.6778" cy="19.5957" r="1.42672" transform="rotate(180 38.6778 19.5957)" fill="#313652"/>
<circle cx="38.6582" cy="15.3633" r="1.42672" transform="rotate(180 38.6582 15.3633)" fill="#313652"/>
<circle cx="38.5938" cy="11.2315" r="1.42672" transform="rotate(180 38.5938 11.2315)" fill="#313652"/>
<circle cx="38.5508" cy="7.04691" r="1.42672" transform="rotate(180 38.5508 7.04691)" fill="#313652"/>
<circle cx="34.0381" cy="88.8135" r="1.42672" transform="rotate(180 34.0381 88.8135)" fill="#313652"/>
<circle cx="34.0459" cy="84.5196" r="1.42672" transform="rotate(180 34.0459 84.5196)" fill="#313652"/>
<circle cx="34.125" cy="80.0977" r="1.42672" transform="rotate(180 34.125 80.0977)" fill="#313652"/>
<circle cx="34.3457" cy="75.3604" r="1.42672" transform="rotate(180 34.3457 75.3604)" fill="#313652"/>
<circle cx="34.6133" cy="70.3174" r="1.42672" transform="rotate(180 34.6133 70.3174)" fill="#313652"/>
<circle cx="34.7676" cy="65.2969" r="1.42672" transform="rotate(180 34.7676 65.2969)" fill="#313652"/>
<circle cx="34.8057" cy="60.6787" r="1.42672" transform="rotate(180 34.8057 60.6787)" fill="#313652"/>
<circle cx="34.7842" cy="56.6075" r="1.42672" transform="rotate(180 34.7842 56.6075)" fill="#313652"/>
<circle cx="34.7032" cy="52.8301" r="1.42672" transform="rotate(180 34.7032 52.8301)" fill="#313652"/>
<circle cx="34.5577" cy="49.1084" r="1.42672" transform="rotate(180 34.5577 49.1084)" fill="#313652"/>
<circle cx="34.4561" cy="45.127" r="1.42672" transform="rotate(180 34.4561 45.127)" fill="#313652"/>
<circle cx="34.5606" cy="40.5391" r="1.42672" transform="rotate(180 34.5606 40.5391)" fill="#313652"/>
<circle cx="34.6817" cy="35.8057" r="1.42672" transform="rotate(180 34.6817 35.8057)" fill="#313652"/>
<circle cx="34.6993" cy="31.4444" r="1.42672" transform="rotate(180 34.6993 31.4444)" fill="#313652"/>
<circle cx="34.6289" cy="27.46" r="1.42672" transform="rotate(180 34.6289 27.46)" fill="#313652"/>
<circle cx="34.545" cy="23.4668" r="1.42672" transform="rotate(180 34.545 23.4668)" fill="#313652"/>
<circle cx="34.5713" cy="19.1036" r="1.42672" transform="rotate(180 34.5713 19.1036)" fill="#313652"/>
<circle cx="34.6504" cy="14.5352" r="1.42672" transform="rotate(180 34.6504 14.5352)" fill="#313652"/>
<circle cx="34.708" cy="10.002" r="1.42672" transform="rotate(180 34.708 10.002)" fill="#313652"/>
<circle cx="34.709" cy="5.71781" r="1.42672" transform="rotate(180 34.709 5.71781)" fill="#313652"/>
<circle cx="29.9327" cy="88.4864" r="1.42672" transform="rotate(180 29.9327 88.4864)" fill="#313652"/>
<circle cx="29.961" cy="84.1504" r="1.42672" transform="rotate(180 29.961 84.1504)" fill="#313652"/>
<circle cx="30.0703" cy="79.6299" r="1.42672" transform="rotate(180 30.0703 79.6299)" fill="#313652"/>
<circle cx="30.2735" cy="74.8028" r="1.42672" transform="rotate(180 30.2735 74.8028)" fill="#313652"/>
<circle cx="30.462" cy="69.7412" r="1.42672" transform="rotate(180 30.462 69.7412)" fill="#313652"/>
<circle cx="30.5371" cy="64.7715" r="1.42672" transform="rotate(180 30.5371 64.7715)" fill="#313652"/>
<circle cx="30.544" cy="60.1895" r="1.42672" transform="rotate(180 30.544 60.1895)" fill="#313652"/>
<circle cx="30.542" cy="56.0762" r="1.42672" transform="rotate(180 30.542 56.0762)" fill="#313652"/>
<circle cx="30.5176" cy="52.2012" r="1.42672" transform="rotate(180 30.5176 52.2012)" fill="#313652"/>
<circle cx="30.4512" cy="48.4024" r="1.42672" transform="rotate(180 30.4512 48.4024)" fill="#313652"/>
<circle cx="30.3926" cy="44.4073" r="1.42672" transform="rotate(180 30.3926 44.4073)" fill="#313652"/>
<circle cx="30.4493" cy="39.8516" r="1.42672" transform="rotate(180 30.4493 39.8516)" fill="#313652"/>
<circle cx="30.5098" cy="35.1485" r="1.42672" transform="rotate(180 30.5098 35.1485)" fill="#313652"/>
<circle cx="30.5205" cy="30.7637" r="1.42672" transform="rotate(180 30.5205 30.7637)" fill="#313652"/>
<circle cx="30.4922" cy="26.7412" r="1.42672" transform="rotate(180 30.4922 26.7412)" fill="#313652"/>
<circle cx="30.4512" cy="22.7168" r="1.42672" transform="rotate(180 30.4512 22.7168)" fill="#313652"/>
<circle cx="30.4698" cy="18.3301" r="1.42672" transform="rotate(180 30.4698 18.3301)" fill="#313652"/>
<circle cx="30.5147" cy="13.7051" r="1.42672" transform="rotate(180 30.5147 13.7051)" fill="#313652"/>
<circle cx="30.5381" cy="9.10843" r="1.42672" transform="rotate(180 30.5381 9.10843)" fill="#313652"/>
<circle cx="30.5391" cy="4.79496" r="1.42672" transform="rotate(180 30.5391 4.79496)" fill="#313652"/>
<circle cx="25.8311" cy="88.0918" r="1.42672" transform="rotate(180 25.8311 88.0918)" fill="#313652"/>
<circle cx="25.9161" cy="83.5918" r="1.42672" transform="rotate(180 25.9161 83.5918)" fill="#313652"/>
<circle cx="26.0918" cy="78.7305" r="1.42672" transform="rotate(180 26.0918 78.7305)" fill="#313652"/>
<circle cx="26.2246" cy="73.7178" r="1.42672" transform="rotate(180 26.2246 73.7178)" fill="#313652"/>
<circle cx="26.2627" cy="68.877" r="1.42672" transform="rotate(180 26.2627 68.877)" fill="#313652"/>
<circle cx="26.2637" cy="64.4092" r="1.42672" transform="rotate(180 26.2637 64.4092)" fill="#313652"/>
<circle cx="26.2637" cy="60.1465" r="1.42672" transform="rotate(180 26.2637 60.1465)" fill="#313652"/>
<circle cx="26.2637" cy="55.8887" r="1.42672" transform="rotate(180 26.2637 55.8887)" fill="#313652"/>
<circle cx="26.2637" cy="51.5596" r="1.42672" transform="rotate(180 26.2637 51.5596)" fill="#313652"/>
<circle cx="26.2637" cy="47.3428" r="1.42672" transform="rotate(180 26.2637 47.3428)" fill="#313652"/>
<circle cx="26.2598" cy="43.2998" r="1.42672" transform="rotate(180 26.2598 43.2998)" fill="#313652"/>
<circle cx="26.252" cy="39.169" r="1.42672" transform="rotate(180 26.252 39.169)" fill="#313652"/>
<circle cx="26.252" cy="34.8975" r="1.42672" transform="rotate(180 26.252 34.8975)" fill="#313652"/>
<circle cx="26.2578" cy="30.5108" r="1.42672" transform="rotate(180 26.2578 30.5108)" fill="#313652"/>
<circle cx="26.2598" cy="26.1758" r="1.42672" transform="rotate(180 26.2598 26.1758)" fill="#313652"/>
<circle cx="26.2618" cy="21.8545" r="1.42672" transform="rotate(180 26.2618 21.8545)" fill="#313652"/>
<circle cx="26.2637" cy="17.4786" r="1.42672" transform="rotate(180 26.2637 17.4786)" fill="#313652"/>
<circle cx="26.2627" cy="13.0196" r="1.42672" transform="rotate(180 26.2627 13.0196)" fill="#313652"/>
<circle cx="26.2578" cy="8.585" r="1.42672" transform="rotate(180 26.2578 8.585)" fill="#313652"/>
<circle cx="26.2578" cy="4.30179" r="1.42672" transform="rotate(180 26.2578 4.30179)" fill="#313652"/>
<circle cx="21.6963" cy="87.6934" r="1.42672" transform="rotate(180 21.6963 87.6934)" fill="#313652"/>
<circle cx="21.8086" cy="83.0245" r="1.42672" transform="rotate(180 21.8086 83.0245)" fill="#313652"/>
<circle cx="21.9629" cy="77.8213" r="1.42672" transform="rotate(180 21.9629 77.8213)" fill="#313652"/>
<circle cx="21.9727" cy="72.6748" r="1.42672" transform="rotate(180 21.9727 72.6748)" fill="#313652"/>
<circle cx="21.9512" cy="68.1455" r="1.42672" transform="rotate(180 21.9512 68.1455)" fill="#313652"/>
<circle cx="21.9795" cy="64.2559" r="1.42672" transform="rotate(180 21.9795 64.2559)" fill="#313652"/>
<circle cx="21.9825" cy="60.3428" r="1.42672" transform="rotate(180 21.9825 60.3428)" fill="#313652"/>
<circle cx="21.9844" cy="55.9014" r="1.42672" transform="rotate(180 21.9844 55.9014)" fill="#313652"/>
<circle cx="21.9512" cy="51.0254" r="1.42672" transform="rotate(180 21.9512 51.0254)" fill="#313652"/>
<circle cx="21.8828" cy="46.2813" r="1.42672" transform="rotate(180 21.8828 46.2813)" fill="#313652"/>
<circle cx="21.9004" cy="42.0957" r="1.42672" transform="rotate(180 21.9004 42.0957)" fill="#313652"/>
<circle cx="21.9668" cy="38.3545" r="1.42672" transform="rotate(180 21.9668 38.3545)" fill="#313652"/>
<circle cx="21.9844" cy="34.5147" r="1.42672" transform="rotate(180 21.9844 34.5147)" fill="#313652"/>
<circle cx="21.9825" cy="30.127" r="1.42672" transform="rotate(180 21.9825 30.127)" fill="#313652"/>
<circle cx="21.9649" cy="25.4922" r="1.42672" transform="rotate(180 21.9649 25.4922)" fill="#313652"/>
<circle cx="21.9336" cy="20.92" r="1.42672" transform="rotate(180 21.9336 20.92)" fill="#313652"/>
<circle cx="21.9336" cy="16.6368" r="1.42672" transform="rotate(180 21.9336 16.6368)" fill="#313652"/>
<circle cx="21.9434" cy="12.4356" r="1.42672" transform="rotate(180 21.9434 12.4356)" fill="#313652"/>
<circle cx="21.9522" cy="8.23148" r="1.42672" transform="rotate(180 21.9522 8.23148)" fill="#313652"/>
<circle cx="21.9571" cy="4.00687" r="1.42672" transform="rotate(180 21.9571 4.00687)" fill="#313652"/>
<circle cx="17.5489" cy="87.2198" r="1.42672" transform="rotate(180 17.5489 87.2198)" fill="#313652"/>
<circle cx="17.627" cy="82.5469" r="1.42672" transform="rotate(180 17.627 82.5469)" fill="#313652"/>
<circle cx="17.7032" cy="77.3672" r="1.42672" transform="rotate(180 17.7032 77.3672)" fill="#313652"/>
<circle cx="17.6592" cy="72.3252" r="1.42672" transform="rotate(180 17.6592 72.3252)" fill="#313652"/>
<circle cx="17.6495" cy="67.9688" r="1.42672" transform="rotate(180 17.6495 67.9688)" fill="#313652"/>
<circle cx="17.6983" cy="64.2461" r="1.42672" transform="rotate(180 17.6983 64.2461)" fill="#313652"/>
<circle cx="17.7002" cy="60.3877" r="1.42672" transform="rotate(180 17.7002 60.3877)" fill="#313652"/>
<circle cx="17.7022" cy="55.8233" r="1.42672" transform="rotate(180 17.7022 55.8233)" fill="#313652"/>
<circle cx="17.626" cy="50.6963" r="1.42672" transform="rotate(180 17.626 50.6963)" fill="#313652"/>
<circle cx="17.4483" cy="45.6553" r="1.42672" transform="rotate(180 17.4483 45.6553)" fill="#313652"/>
<circle cx="17.3946" cy="41.2061" r="1.42672" transform="rotate(180 17.3946 41.2061)" fill="#313652"/>
<circle cx="17.5088" cy="37.3028" r="1.42672" transform="rotate(180 17.5088 37.3028)" fill="#313652"/>
<circle cx="17.5928" cy="33.3916" r="1.42672" transform="rotate(180 17.5928 33.3916)" fill="#313652"/>
<circle cx="17.5655" cy="28.9795" r="1.42672" transform="rotate(180 17.5655 28.9795)" fill="#313652"/>
<circle cx="17.4786" cy="24.3555" r="1.42672" transform="rotate(180 17.4786 24.3555)" fill="#313652"/>
<circle cx="17.417" cy="19.8711" r="1.42672" transform="rotate(180 17.417 19.8711)" fill="#313652"/>
<circle cx="17.4737" cy="15.7754" r="1.42672" transform="rotate(180 17.4737 15.7754)" fill="#313652"/>
<circle cx="17.5537" cy="11.8037" r="1.42672" transform="rotate(180 17.5537 11.8037)" fill="#313652"/>
<circle cx="17.6075" cy="7.78715" r="1.42672" transform="rotate(180 17.6075 7.78715)" fill="#313652"/>
<circle cx="17.628" cy="3.62797" r="1.42672" transform="rotate(180 17.628 3.62797)" fill="#313652"/>
<circle cx="13.3848" cy="86.5547" r="1.42672" transform="rotate(180 13.3848 86.5547)" fill="#313652"/>
<circle cx="13.4112" cy="81.9873" r="1.42672" transform="rotate(180 13.4112 81.9873)" fill="#313652"/>
<circle cx="13.417" cy="77.0625" r="1.42672" transform="rotate(180 13.417 77.0625)" fill="#313652"/>
<circle cx="13.3682" cy="72.2412" r="1.42672" transform="rotate(180 13.3682 72.2412)" fill="#313652"/>
<circle cx="13.3584" cy="67.8936" r="1.42672" transform="rotate(180 13.3584 67.8936)" fill="#313652"/>
<circle cx="13.3995" cy="63.96" r="1.42672" transform="rotate(180 13.3995 63.96)" fill="#313652"/>
<circle cx="13.4151" cy="59.8858" r="1.42672" transform="rotate(180 13.4151 59.8858)" fill="#313652"/>
<circle cx="13.3916" cy="55.3155" r="1.42672" transform="rotate(180 13.3916 55.3155)" fill="#313652"/>
<circle cx="13.2901" cy="50.4014" r="1.42672" transform="rotate(180 13.2901 50.4014)" fill="#313652"/>
<circle cx="13.0977" cy="45.4385" r="1.42672" transform="rotate(180 13.0977 45.4385)" fill="#313652"/>
<circle cx="12.9092" cy="40.6846" r="1.42672" transform="rotate(180 12.9092 40.6846)" fill="#313652"/>
<circle cx="12.8106" cy="36.1953" r="1.42672" transform="rotate(180 12.8106 36.1953)" fill="#313652"/>
<circle cx="12.751" cy="31.7989" r="1.42672" transform="rotate(180 12.751 31.7989)" fill="#313652"/>
<circle cx="12.6426" cy="27.3233" r="1.42672" transform="rotate(180 12.6426 27.3233)" fill="#313652"/>
<circle cx="12.4834" cy="22.7813" r="1.42672" transform="rotate(180 12.4834 22.7813)" fill="#313652"/>
<circle cx="12.4356" cy="18.4287" r="1.42672" transform="rotate(180 12.4356 18.4287)" fill="#313652"/>
<circle cx="12.6485" cy="14.4922" r="1.42672" transform="rotate(180 12.6485 14.4922)" fill="#313652"/>
<circle cx="12.9571" cy="10.834" r="1.42672" transform="rotate(180 12.9571 10.834)" fill="#313652"/>
<circle cx="13.1729" cy="7.14945" r="1.42672" transform="rotate(180 13.1729 7.14945)" fill="#313652"/>
<circle cx="13.2432" cy="3.12113" r="1.42672" transform="rotate(180 13.2432 3.12113)" fill="#313652"/>
<circle cx="9.14359" cy="85.8672" r="1.42672" transform="rotate(180 9.14359 85.8672)" fill="#313652"/>
<circle cx="9.13968" cy="81.4151" r="1.42672" transform="rotate(180 9.13968 81.4151)" fill="#313652"/>
<circle cx="9.11429" cy="76.7383" r="1.42672" transform="rotate(180 9.11429 76.7383)" fill="#313652"/>
<circle cx="9.06547" cy="72.0928" r="1.42672" transform="rotate(180 9.06547 72.0928)" fill="#313652"/>
<circle cx="9.03812" cy="67.6612" r="1.42672" transform="rotate(180 9.03812 67.6612)" fill="#313652"/>
<circle cx="9.04203" cy="63.3965" r="1.42672" transform="rotate(180 9.04203 63.3965)" fill="#313652"/>
<circle cx="9.0264" cy="59.0362" r="1.42672" transform="rotate(180 9.0264 59.0362)" fill="#313652"/>
<circle cx="8.96488" cy="54.4903" r="1.42672" transform="rotate(180 8.96488 54.4903)" fill="#313652"/>
<circle cx="8.88383" cy="49.9209" r="1.42672" transform="rotate(180 8.88383 49.9209)" fill="#313652"/>
<circle cx="8.71586" cy="45.168" r="1.42672" transform="rotate(180 8.71586 45.168)" fill="#313652"/>
<circle cx="8.37113" cy="40.1778" r="1.42672" transform="rotate(180 8.37113 40.1778)" fill="#313652"/>
<circle cx="7.87015" cy="35.1602" r="1.42672" transform="rotate(180 7.87015 35.1602)" fill="#313652"/>
<circle cx="7.40922" cy="30.3653" r="1.42672" transform="rotate(180 7.40922 30.3653)" fill="#313652"/>
<circle cx="7.17191" cy="25.8633" r="1.42672" transform="rotate(180 7.17191 25.8633)" fill="#313652"/>
<circle cx="6.94828" cy="21.3946" r="1.42672" transform="rotate(180 6.94828 21.3946)" fill="#313652"/>
<circle cx="6.93558" cy="17.1045" r="1.42672" transform="rotate(180 6.93558 17.1045)" fill="#313652"/>
<circle cx="7.35746" cy="13.1944" r="1.42672" transform="rotate(180 7.35746 13.1944)" fill="#313652"/>
<circle cx="8.04886" cy="9.71586" r="1.42672" transform="rotate(180 8.04886 9.71586)" fill="#313652"/>
<circle cx="8.56937" cy="6.31449" r="1.42672" transform="rotate(180 8.56937 6.31449)" fill="#313652"/>
<circle cx="8.73636" cy="2.41703" r="1.42672" transform="rotate(180 8.73636 2.41703)" fill="#313652"/>
<circle cx="4.84574" cy="85.4307" r="1.42672" transform="rotate(180 4.84574 85.4307)" fill="#313652"/>
<circle cx="4.83207" cy="81.002" r="1.42672" transform="rotate(180 4.83207 81.002)" fill="#313652"/>
<circle cx="4.78422" cy="76.3692" r="1.42672" transform="rotate(180 4.78422 76.3692)" fill="#313652"/>
<circle cx="4.71293" cy="71.7276" r="1.42672" transform="rotate(180 4.71293 71.7276)" fill="#313652"/>
<circle cx="4.65238" cy="67.209" r="1.42672" transform="rotate(180 4.65238 67.209)" fill="#313652"/>
<circle cx="4.60746" cy="62.7754" r="1.42672" transform="rotate(180 4.60746 62.7754)" fill="#313652"/>
<circle cx="4.53031" cy="58.2569" r="1.42672" transform="rotate(180 4.53031 58.2569)" fill="#313652"/>
<circle cx="4.40531" cy="53.6553" r="1.42672" transform="rotate(180 4.40531 53.6553)" fill="#313652"/>
<circle cx="4.29203" cy="49.1221" r="1.42672" transform="rotate(180 4.29203 49.1221)" fill="#313652"/>
<circle cx="4.05375" cy="44.3936" r="1.42672" transform="rotate(180 4.05375 44.3936)" fill="#313652"/>
<circle cx="3.5225" cy="39.3575" r="1.42672" transform="rotate(180 3.5225 39.3575)" fill="#313652"/>
<circle cx="2.7266" cy="34.2832" r="1.42672" transform="rotate(180 2.7266 34.2832)" fill="#313652"/>
<circle cx="2.00394" cy="29.4952" r="1.42672" transform="rotate(180 2.00394 29.4952)" fill="#313652"/>
<circle cx="1.68363" cy="25.0381" r="1.42672" transform="rotate(180 1.68363 25.0381)" fill="#313652"/>
<circle cx="1.42679" cy="20.6338" r="1.42672" transform="rotate(180 1.42679 20.6338)" fill="#313652"/>
<circle cx="1.44437" cy="16.3614" r="1.42672" transform="rotate(180 1.44437 16.3614)" fill="#313652"/>
<circle cx="1.99418" cy="12.3682" r="1.42672" transform="rotate(180 1.99418 12.3682)" fill="#313652"/>
<circle cx="2.93851" cy="8.78422" r="1.42672" transform="rotate(180 2.93851 8.78422)" fill="#313652"/>
<circle cx="3.71097" cy="5.3555" r="1.42672" transform="rotate(180 3.71097 5.3555)" fill="#313652"/>
<circle cx="3.99027" cy="1.48734" r="1.42672" transform="rotate(180 3.99027 1.48734)" fill="#313652"/>
</svg>
