<svg width="119" height="96" viewBox="0 0 119 96" fill="none" xmlns="http://www.w3.org/2000/svg">
<g clip-path="url(#clip0_144_374)">
<path fill-rule="evenodd" clip-rule="evenodd" d="M9.93237 52.4993C13.4124 51.2593 17.0744 49.6113 19.8984 47.2253C23.2524 44.3913 24.6165 40.7413 25.5325 36.8993C26.7085 31.9633 27.1784 26.7053 28.6044 21.7613C29.1324 19.9253 30.1485 19.2313 30.5845 18.9233C31.6865 18.1453 32.8004 17.9373 33.8484 18.0153C35.0904 18.1053 36.7965 18.5753 37.9185 20.6573C38.0785 20.9553 38.2864 21.4093 38.4264 22.0313C38.5284 22.4873 38.5944 23.9133 38.7024 24.5013C38.9724 25.9493 39.1984 27.3973 39.4104 28.8533C40.1164 33.6993 40.5224 37.8153 42.7524 42.2673C45.7784 48.3113 48.8105 52.0093 52.9225 53.6473C56.8985 55.2313 61.6524 54.9333 67.7264 53.6913C68.3044 53.5513 68.8764 53.4313 69.4424 53.3333C72.1204 52.8653 74.6804 54.6233 75.2064 57.2913C75.7324 59.9573 74.0305 62.5553 71.3765 63.1413C70.8225 63.2633 70.2764 63.3793 69.7364 63.4853C61.5284 65.5173 52.0264 72.7693 46.5044 79.1193C44.8024 81.0773 42.3104 86.5513 39.7684 90.0433C37.8924 92.6193 35.7844 94.3173 34.0144 94.9173C32.8284 95.3213 31.8284 95.2594 31.0024 95.0554C29.8024 94.7594 28.8065 94.1093 28.0425 93.0753C27.6265 92.5092 27.2404 91.7513 27.0564 90.7833C26.9684 90.3173 26.9584 89.1333 26.9604 88.5973C26.4424 86.8153 25.8084 85.0753 25.3464 83.2773C24.2444 78.9873 22.0824 76.2713 19.5144 72.6833C17.1124 69.3253 14.5325 67.2153 10.7505 65.5313C10.2585 65.4113 6.28847 64.4393 4.88647 63.8813C2.83847 63.0633 1.86242 61.6932 1.50842 60.9552C0.906419 59.7032 0.844474 58.6093 0.964474 57.6973C1.14247 56.3513 1.74648 55.1993 2.81848 54.2693C3.48248 53.6913 4.47449 53.1293 5.80249 52.8553C6.82849 52.6413 9.55037 52.5173 9.93237 52.4993ZM33.2224 45.5072C33.4064 45.9172 33.6024 46.3293 33.8104 46.7453C38.2424 55.5973 43.1984 60.5393 49.2224 62.9373L49.4244 63.0153C45.3944 66.0073 41.7464 69.3513 38.9584 72.5573C37.8104 73.8773 36.2904 76.6193 34.6484 79.4313C33.1564 74.5813 30.7164 71.1533 27.6484 66.8633C25.3044 63.5893 22.8484 61.1254 19.8304 59.1174C22.1724 57.9154 24.4064 56.5073 26.3524 54.8633C29.5924 52.1253 31.7344 48.9532 33.2224 45.5072Z" fill="#F6DA4D"/>
</g>
<g clip-path="url(#clip1_144_374)">
<path fill-rule="evenodd" clip-rule="evenodd" d="M69.2583 25.211C71.8013 24.3049 74.4775 23.1005 76.5412 21.3569C78.9922 19.2859 79.989 16.6187 80.6583 13.8111C81.5177 10.204 81.8611 6.36155 82.9032 2.74862C83.289 1.40693 84.0316 0.899767 84.3502 0.67469C85.1555 0.106151 85.9695 -0.0458186 86.7354 0.0111814C87.643 0.0769506 88.8897 0.420389 89.7096 1.94185C89.8266 2.15962 89.9785 2.49141 90.0808 2.94594C90.1554 3.27918 90.2036 4.32123 90.2825 4.75092C90.4798 5.80908 90.645 6.86727 90.7999 7.93127C91.3158 11.4726 91.6125 14.4804 93.2422 17.7338C95.4535 22.1505 97.6692 24.8529 100.674 26.0499C103.58 27.2075 107.054 26.9897 111.492 26.0821C111.915 25.9798 112.333 25.8921 112.746 25.8205C114.703 25.4785 116.574 26.7632 116.959 28.7129C117.343 30.6611 116.099 32.5596 114.16 32.9879C113.755 33.077 113.356 33.1618 112.961 33.2392C106.963 34.7242 100.019 40.0237 95.984 44.6641C94.7402 46.095 92.9192 50.0952 91.0615 52.647C89.6906 54.5295 88.1501 55.7703 86.8567 56.2088C85.99 56.504 85.2592 56.4588 84.6556 56.3097C83.7787 56.0934 83.0509 55.6183 82.4926 54.8627C82.1886 54.4491 81.9064 53.8952 81.772 53.1878C81.7077 52.8472 81.7004 51.9821 81.7019 51.5904C81.3233 50.2881 80.86 49.0165 80.5224 47.7026C79.7171 44.5676 78.1371 42.5829 76.2605 39.9609C74.5052 37.5069 72.6199 35.965 69.8561 34.7344C69.4966 34.6467 66.5954 33.9364 65.5709 33.5286C64.0743 32.9309 63.361 31.9297 63.1023 31.3904C62.6624 30.4755 62.6171 29.676 62.7048 29.0096C62.8349 28.026 63.2763 27.1841 64.0597 26.5045C64.5449 26.0821 65.2698 25.6714 66.2403 25.4712C66.99 25.3148 68.9791 25.2242 69.2583 25.211ZM86.2779 20.1015C86.4124 20.4011 86.5556 20.7022 86.7076 21.0062C89.9464 27.4749 93.5681 31.0864 97.9702 32.8388L98.1179 32.8958C95.1729 35.0823 92.507 37.526 90.4696 39.8688C89.6307 40.8334 88.5199 42.8372 87.32 44.8921C86.2297 41.3479 84.4466 38.8428 82.2046 35.7078C80.4917 33.3153 78.6969 31.5147 76.4915 30.0473C78.2029 29.1689 79.8355 28.14 81.2575 26.9386C83.6252 24.9377 85.1905 22.6197 86.2779 20.1015Z" fill="#F6DA4D"/>
</g>
<g clip-path="url(#clip2_144_374)">
<path fill-rule="evenodd" clip-rule="evenodd" d="M89.9475 78.7113C91.3306 78.2184 92.786 77.5635 93.9084 76.6152C95.2414 75.4888 95.7835 74.0382 96.1475 72.5113C96.6149 70.5495 96.8017 68.4598 97.3684 66.4949C97.5782 65.7652 97.9821 65.4893 98.1554 65.3669C98.5933 65.0577 99.0361 64.9751 99.4526 65.0061C99.9462 65.0419 100.624 65.2286 101.07 66.0561C101.134 66.1745 101.216 66.355 101.272 66.6022C101.313 66.7834 101.339 67.3501 101.382 67.5838C101.489 68.1593 101.579 68.7348 101.663 69.3135C101.944 71.2395 102.105 72.8753 102.991 74.6447C104.194 77.0468 105.399 78.5165 107.033 79.1675C108.613 79.797 110.503 79.6786 112.917 79.185C113.147 79.1294 113.374 79.0817 113.599 79.0427C114.663 78.8567 115.681 79.5554 115.89 80.6158C116.099 81.6753 115.422 82.7079 114.368 82.9408C114.147 82.9893 113.93 83.0354 113.716 83.0775C110.454 83.8851 106.677 86.7673 104.483 89.291C103.806 90.0692 102.816 92.2447 101.805 93.6326C101.06 94.6564 100.222 95.3312 99.5185 95.5697C99.0472 95.7303 98.6498 95.7056 98.3215 95.6246C97.8446 95.5069 97.4487 95.2485 97.1451 94.8376C96.9798 94.6126 96.8263 94.3114 96.7532 93.9267C96.7182 93.7415 96.7143 93.2709 96.715 93.0579C96.5092 92.3497 96.2572 91.6581 96.0736 90.9435C95.6356 89.2385 94.7763 88.1591 93.7557 86.7331C92.8011 85.3985 91.7757 84.5599 90.2726 83.8906C90.0771 83.843 88.4993 83.4566 87.9421 83.2349C87.1281 82.9098 86.7402 82.3653 86.5995 82.072C86.3602 81.5744 86.3356 81.1396 86.3833 80.7771C86.4541 80.2422 86.6941 79.7844 87.1202 79.4147C87.3841 79.185 87.7783 78.9616 88.3061 78.8527C88.7139 78.7677 89.7957 78.7184 89.9475 78.7113ZM99.2038 75.9324C99.2769 76.0953 99.3548 76.2591 99.4375 76.4244C101.199 79.9425 103.169 81.9066 105.563 82.8597L105.643 82.8907C104.041 84.0798 102.592 85.4088 101.483 86.683C101.027 87.2076 100.423 88.2974 99.7705 89.415C99.1776 87.4874 98.2078 86.125 96.9885 84.42C96.0569 83.1188 95.0808 82.1396 93.8813 81.3415C94.8121 80.8638 95.7 80.3042 96.4734 79.6508C97.7611 78.5626 98.6124 77.3019 99.2038 75.9324Z" fill="#F6DA4D"/>
</g>
<defs>
<clipPath id="clip0_144_374">
<rect width="78" height="78" fill="white" transform="translate(0 18)"/>
</clipPath>
<clipPath id="clip1_144_374">
<rect width="57" height="57" fill="white" transform="translate(62)"/>
</clipPath>
<clipPath id="clip2_144_374">
<rect width="31" height="31" fill="white" transform="translate(86 65)"/>
</clipPath>
</defs>
</svg>
