<svg width="20" height="21" viewBox="0 0 20 21" fill="none" xmlns="http://www.w3.org/2000/svg">
<path d="M10.1554 0.838867C4.76168 0.838867 0.38916 5.21146 0.38916 10.6051C0.38916 15.9991 4.76175 20.3713 10.1554 20.3713C15.5494 20.3713 19.9216 15.9991 19.9216 10.6051C19.9216 5.21184 15.5494 0.839401 10.1552 0.839401L10.1553 0.838943L10.1554 0.838867ZM14.634 14.9246C14.4591 15.2115 14.0835 15.3025 13.7966 15.1264C11.5036 13.7258 8.61712 13.4085 5.21764 14.1852C5.06022 14.2211 4.89501 14.1929 4.75835 14.107C4.62168 14.021 4.52474 13.8843 4.48883 13.7269C4.47094 13.649 4.46859 13.5683 4.48193 13.4895C4.49526 13.4106 4.52401 13.3352 4.56653 13.2675C4.60906 13.1998 4.66452 13.1412 4.72974 13.0949C4.79496 13.0487 4.86866 13.0157 4.94662 12.998C8.66694 12.1481 11.858 12.514 14.4323 14.0873C14.7192 14.2634 14.8101 14.6378 14.634 14.9246ZM15.8294 12.2654C15.6089 12.6236 15.1401 12.7368 14.7821 12.5164C12.157 10.9028 8.15536 10.4355 5.05039 11.378C4.64769 11.4996 4.2224 11.2727 4.10017 10.8707C3.97885 10.468 4.20592 10.0434 4.60793 9.92106C8.15467 8.8448 12.564 9.36614 15.5787 11.2187C15.9367 11.4392 16.0498 11.9079 15.8294 12.2654ZM15.932 9.49631C12.7844 7.62669 7.59128 7.45471 4.58611 8.36694C4.10352 8.51328 3.59316 8.24082 3.44698 7.75823C3.30071 7.27541 3.57287 6.76543 4.05584 6.61871C7.50552 5.57144 13.2404 5.77386 16.8642 7.92517C17.2993 8.18275 17.4415 8.74339 17.1838 9.17685C16.9272 9.61098 16.3651 9.75404 15.9325 9.49631H15.932Z" fill="white"/>
</svg>
