<svg width="289" height="289" viewBox="0 0 289 289" fill="none" xmlns="http://www.w3.org/2000/svg">
<path d="M109.677 37.0837C115.729 41.1218 124.853 50.9622 124.005 52.4319C122.496 55.0447 117.609 54.8358 116.043 52.0807C115.208 50.5099 110.934 46.4096 106.541 42.8935C102.182 39.5061 98.5713 36.3326 98.4678 35.9462C98.3643 35.5599 99.7119 34.9227 101.386 34.4741C103.318 33.9564 106.471 34.906 109.677 37.0837Z" fill="#FFDA03"/>
<path d="M96.996 61.8772C103.192 64.9102 108.418 67.9272 108.59 68.5711C108.763 69.2151 107.613 70.0753 105.939 70.5239C102.977 71.3176 82.7391 62.2464 82.0835 59.7994C81.1172 56.1932 86.7267 57.0368 96.996 61.8772Z" fill="#FFDA03"/>
<path d="M167.112 59.7921C170.542 61.772 170.878 62.5103 174.625 79.5888C176.699 89.3861 179.135 101.571 180.095 106.697L181.678 116.211L203.258 120.506C226.754 125.253 235.123 128.67 236.538 133.95C238.195 140.132 232.282 144.339 207.877 154.744C198.855 158.679 191.215 162.107 191.155 162.399C190.966 162.726 191.818 171.056 193.213 180.897C196.202 202.872 196.437 213.023 193.832 217.725C187.37 229.671 176.74 224.513 151.053 197.163L140.776 186.113L130.588 191.879C116.976 199.806 100.992 207.126 93.0071 209.265C85.2797 211.336 81.0777 209.563 81.0197 204.195C80.8515 199.961 89.8235 175.747 97.191 159.969L102.622 148.299L93.5138 137.488C79.1933 120.62 74.4662 110.706 78.2812 104.852C81.496 99.8495 90.454 99.7959 110.712 104.306L128.667 108.468L140.666 87.3078C155.776 60.7591 160.417 55.9266 167.112 59.7921Z" fill="#FFDA03"/>
<path d="M227.297 47.9451C228.366 51.9375 207.352 67.7832 203.124 66.4312C201.303 65.815 201.293 65.2654 202.94 63.1677C204.081 61.7578 205.771 60.3386 206.672 60.0971C207.703 59.821 211.341 56.9136 215.039 53.7142C222.048 47.4188 226.606 45.3693 227.297 47.9451Z" fill="#FFDA03"/>
<path d="M245.674 67.5912C246.99 68.8951 247.213 68.6973 233.06 77.1827C221.851 83.7752 215.49 86.3079 214.903 84.1184C214.696 83.3457 214.687 82.796 214.945 82.727C215.073 82.6925 220.772 79.233 227.69 75.1708C241.139 67.15 243.869 66.0044 245.674 67.5912Z" fill="#FFDA03"/>
<path d="M61.9886 155.322C62.7108 155.957 63.1502 157.081 62.9363 157.829C62.3201 159.65 34.6857 170.368 31.413 170.002C26.8776 169.561 30.5157 166.654 40.7314 162.536C46.0969 160.408 52.9388 157.609 55.6686 156.463C58.9734 154.888 61.2319 154.559 61.9886 155.322Z" fill="#FFDA03"/>
<path d="M75.9298 178.504C76.4819 180.564 57.4771 196.699 52.9695 197.907C47.6891 199.322 48.3213 196.53 54.2592 191.902C57.3569 189.554 62.2047 185.494 65.1047 182.923C71.0931 177.453 75.2051 175.799 75.9298 178.504Z" fill="#FFDA03"/>
<path d="M245.782 172.056C256.231 176.02 258.991 178.593 254.226 179.87C251.135 180.698 232.995 173.274 233.122 171.169C233.298 168.223 235.952 168.34 245.782 172.056Z" fill="#FFDA03"/>
<path d="M235.953 197.19C241.53 199.975 247.876 206.142 247.329 208.222C246.593 210.627 241.903 210.642 239.728 208.188C238.541 206.849 234.939 204.225 231.767 202.177C222.553 196.639 226.233 192.34 235.953 197.19Z" fill="#FFDA03"/>
<path d="M136.121 236.225C138.485 238.353 129.179 256.168 125.187 257.238C121.838 258.135 120.916 255.208 123.411 251.64C124.671 249.646 126.865 245.469 128.201 242.213C130.341 236.808 133.885 234.064 136.121 236.225Z" fill="#FFDA03"/>
<path d="M160.451 234.813C162.247 235.85 164.932 247.416 165.112 254.27C165.101 259.38 164.698 260.454 162.123 261.145C158.645 262.076 158.749 262.463 156.91 247.357C155.999 239.319 156.132 235.695 157.479 235.057C158.475 234.653 159.797 234.436 160.451 234.813Z" fill="#FFDA03"/>
</svg>
