<svg width="111" height="19" viewBox="0 0 111 19" fill="none" xmlns="http://www.w3.org/2000/svg">
<g clip-path="url(#clip0_0_1496)">
<path d="M9.66699 2L11.9845 6.695L17.167 7.4525L13.417 11.105L14.302 16.265L9.66699 13.8275L5.03199 16.265L5.91699 11.105L2.16699 7.4525L7.34949 6.695L9.66699 2Z" fill="#FAE55D" stroke="#FAE55D" stroke-width="2" strokeLinecap="round" strokeLinejoin="round"/>
</g>
<g clip-path="url(#clip1_0_1496)">
<path d="M32.667 2L34.9845 6.695L40.167 7.4525L36.417 11.105L37.302 16.265L32.667 13.8275L28.032 16.265L28.917 11.105L25.167 7.4525L30.3495 6.695L32.667 2Z" fill="#FAE55D" stroke="#FAE55D" stroke-width="2" strokeLinecap="round" strokeLinejoin="round"/>
</g>
<g clip-path="url(#clip2_0_1496)">
<path d="M55.667 2L57.9845 6.695L63.167 7.4525L59.417 11.105L60.302 16.265L55.667 13.8275L51.032 16.265L51.917 11.105L48.167 7.4525L53.3495 6.695L55.667 2Z" fill="#FAE55D" stroke="#FAE55D" stroke-width="2" strokeLinecap="round" strokeLinejoin="round"/>
</g>
<g clip-path="url(#clip3_0_1496)">
<path d="M78.667 2L80.9845 6.695L86.167 7.4525L82.417 11.105L83.302 16.265L78.667 13.8275L74.032 16.265L74.917 11.105L71.167 7.4525L76.3495 6.695L78.667 2Z" fill="#FAE55D" stroke="#FAE55D" stroke-width="2" strokeLinecap="round" strokeLinejoin="round"/>
</g>
<g clip-path="url(#clip4_0_1496)">
<path d="M101.667 2L103.984 6.695L109.167 7.4525L105.417 11.105L106.302 16.265L101.667 13.8275L97.032 16.265L97.917 11.105L94.167 7.4525L99.3495 6.695L101.667 2Z" fill="#FAE55D" stroke="#FAE55D" stroke-width="2" strokeLinecap="round" strokeLinejoin="round"/>
</g>
<defs>
<clipPath id="clip0_0_1496">
<rect width="18" height="18" fill="white" transform="translate(0.666992 0.5)"/>
</clipPath>
<clipPath id="clip1_0_1496">
<rect width="18" height="18" fill="white" transform="translate(23.667 0.5)"/>
</clipPath>
<clipPath id="clip2_0_1496">
<rect width="18" height="18" fill="white" transform="translate(46.667 0.5)"/>
</clipPath>
<clipPath id="clip3_0_1496">
<rect width="18" height="18" fill="white" transform="translate(69.667 0.5)"/>
</clipPath>
<clipPath id="clip4_0_1496">
<rect width="18" height="18" fill="white" transform="translate(92.667 0.5)"/>
</clipPath>
</defs>
</svg>
