<svg width="81" height="80" viewBox="0 0 81 80" fill="none" xmlns="http://www.w3.org/2000/svg">
<rect x="0.875" width="80" height="80" rx="40" fill="#EA6891"/>
<path d="M55.875 39.1667C55.8807 41.3665 55.3668 43.5365 54.375 45.5C53.1991 47.853 51.3912 49.832 49.1541 51.2155C46.9169 52.599 44.3387 53.3324 41.7083 53.3334C39.5086 53.3391 37.3385 52.8252 35.375 51.8334L25.875 55L29.0417 45.5C28.0499 43.5365 27.5359 41.3665 27.5417 39.1667C27.5427 36.5363 28.276 33.9581 29.6595 31.721C31.043 29.4838 33.0221 27.676 35.375 26.5C37.3385 25.5083 39.5086 24.9943 41.7083 25H42.5417C46.0156 25.1917 49.2967 26.658 51.7569 29.1181C54.2171 31.5783 55.6833 34.8595 55.875 38.3334V39.1667Z" stroke="white" stroke-width="2" strokeLinecap="round" strokeLinejoin="round"/>
</svg>
