<svg width="34" height="34" viewBox="0 0 34 34" fill="none" xmlns="http://www.w3.org/2000/svg">
<path d="M0 10.8574V14.0067H3.4425V23.1428H7.225V14.0053H10.6675V10.8588L0 10.8574ZM11.2554 10.8574V23.1428H21.6112V19.9935H15.0407V18.4635H21.6098V15.5367H15.0407V14.0067H21.6098V10.8574H11.2554ZM22.2473 10.8574V23.1428H27.7199C32.0039 23.1428 34 20.7514 34 16.9817C34 13.8863 32.5536 10.8574 28.458 10.8574H22.2473ZM26.0327 14.0067H27.2368C29.9724 14.0067 30.2147 16.1572 30.2147 16.9293C30.2147 18.0838 29.8704 19.9935 27.5131 19.9935H26.0327V14.0067Z" fill="white"/>
</svg>
