<svg width="18" height="20" viewBox="0 0 18 20" fill="none" xmlns="http://www.w3.org/2000/svg">
<path d="M13.6143 3.11335C12.8962 2.29361 12.5005 1.24088 12.5008 0.151123H9.25499V13.1765C9.22995 13.8814 8.93237 14.549 8.4249 15.0389C7.91742 15.5287 7.23967 15.8025 6.53436 15.8026C5.04274 15.8026 3.80323 14.5841 3.80323 13.0715C3.80323 11.2647 5.54695 9.90967 7.34319 10.4664V7.14702C3.71919 6.66382 0.546875 9.47899 0.546875 13.0715C0.546875 16.5694 3.44608 19.059 6.52385 19.059C9.82222 19.059 12.5008 16.3804 12.5008 13.0715V6.46424C13.817 7.40948 15.3973 7.91662 17.0177 7.91384V4.668C17.0177 4.668 15.0429 4.76254 13.6143 3.11335Z" fill="white"/>
</svg>
