<svg width="194" height="16" viewBox="0 0 194 16" fill="none" xmlns="http://www.w3.org/2000/svg">
<path fill-rule="evenodd" clip-rule="evenodd" d="M64.3151 1.41336C42.9218 1.08181 21.4412 2.29346 0.734152 7.38116C0.364704 7.47158 0.211333 7.64942 0.181106 7.69011C0.00421838 7.93123 -0.0148466 8.18742 0.0075442 8.3984C0.0209787 8.5265 0.111701 9.06751 0.607657 9.12327C0.950236 9.16094 3.38184 8.89722 4.32001 8.82941C8.7366 8.51143 13.1443 8.05782 17.5497 7.53337C27.5382 6.34885 37.5133 5.32408 47.5175 4.39124C53.1342 3.86679 58.7532 3.43276 64.3688 3.0771C77.8783 3.28959 91.3542 4.11846 104.578 4.97445C99.322 5.40998 94.4923 5.85153 90.4877 6.13787C83.7346 6.62012 76.9939 7.18976 70.2542 7.94026C66.7915 8.32455 63.3332 8.74201 59.8772 9.23481C59.4943 9.29057 58.6222 9.34783 58.2001 9.41564C58.021 9.44277 57.8912 9.48648 57.8329 9.51662C57.468 9.7065 57.4221 10.0953 57.4176 10.2912C57.4154 10.4103 57.4456 11.0598 58.0613 11.1864C86.6913 17.1271 116.561 10.2159 145.294 15.9908C145.631 16.0586 145.946 15.7451 145.997 15.29C146.047 14.8364 145.814 14.4114 145.476 14.3436C118.415 8.90475 90.3444 14.7204 63.2482 10.451C65.616 10.142 67.9849 9.86322 70.3561 9.59949C77.0834 8.8505 83.8119 8.28237 90.5537 7.80012C97.3381 7.31636 106.509 6.37145 116.109 5.77618C124.348 6.39406 132.582 7.08729 140.822 7.67502C144.298 7.92218 147.776 8.12714 151.251 8.37881C152.679 8.48129 156.355 8.91078 156.888 8.75104C157.302 8.62596 157.401 8.22661 157.426 8.02617C157.452 7.80916 157.436 7.53939 157.248 7.28169C157.19 7.20031 157.015 7.03153 156.657 6.89289C146.967 3.15698 131.101 3.21575 116.242 4.11846C113.045 3.87733 109.849 3.64827 106.652 3.4418C99.3321 2.96709 91.9319 2.49087 84.4892 2.11562C105.464 1.41787 126.448 1.61831 147.439 2.12316C156.252 2.33565 180.007 3.61663 189.363 4.7484C189.249 4.90664 189.182 5.12666 189.19 5.36627C189.205 5.82441 189.495 6.18007 189.837 6.15897C191.767 6.03841 192.883 5.88469 193.325 5.72646C193.601 5.6285 193.751 5.47177 193.82 5.36929C193.99 5.12214 194.022 4.85689 193.988 4.60522C193.967 4.44849 193.914 4.27669 193.793 4.11846C193.713 4.00995 193.516 3.84419 193.18 3.73116C189.502 2.49992 157.955 0.711074 147.461 0.457894C119.731 -0.208209 92.0125 -0.343828 64.3151 1.41336ZM149.156 6.56435C143.738 5.57424 137.385 5.22612 130.759 5.24872C134.134 5.51245 137.511 5.77016 140.888 6.01128C143.643 6.2087 146.4 6.37748 149.156 6.56435ZM38.7582 3.56388C31.6491 4.26917 24.5479 5.03172 17.441 5.87565C16.6204 5.9721 15.8009 6.06704 14.9803 6.16048C22.8395 4.86444 30.7804 4.0401 38.7582 3.56388Z" fill="#FFDA03"/>
</svg>
