<svg width="787" height="25" viewBox="0 0 787 25" fill="none" xmlns="http://www.w3.org/2000/svg">
<path fill-rule="evenodd" clip-rule="evenodd" d="M260.907 2.20837C174.121 1.69034 86.9804 3.58353 2.97824 11.5331C1.47949 11.6743 0.857316 11.9522 0.734692 12.0158C0.0171127 12.3926 -0.0602282 12.7928 0.0306046 13.1225C0.0851042 13.3227 0.453137 14.168 2.46508 14.2551C3.85482 14.314 13.7191 13.9019 17.525 13.7959C35.4418 13.2991 53.3224 12.5903 71.1937 11.7709C111.714 9.92008 152.18 8.31888 192.764 6.86131C215.55 6.04186 238.344 5.36368 261.125 4.80797C315.929 5.13998 370.597 6.4351 424.243 7.77258C402.92 8.4531 383.327 9.14302 367.082 9.59042C339.686 10.3439 312.341 11.234 285.001 12.4067C270.953 13.0071 256.924 13.6594 242.904 14.4294C241.351 14.5165 237.813 14.606 236.1 14.7119C235.374 14.7543 234.847 14.8226 234.611 14.8697C233.13 15.1664 232.944 15.7739 232.926 16.08C232.917 16.266 233.04 17.2809 235.537 17.4787C351.681 26.761 472.852 15.9623 589.413 24.9856C590.78 25.0916 592.061 24.6018 592.265 23.8906C592.469 23.1819 591.525 22.5178 590.153 22.4119C480.373 13.9137 366.5 23.0006 256.579 16.3296C266.184 15.8469 275.794 15.4113 285.414 14.9992C312.704 13.8289 340 12.9412 367.349 12.1877C394.872 11.4318 432.077 9.9554 471.021 9.02528C504.443 9.99072 537.847 11.0739 571.273 11.9922C585.375 12.3784 599.482 12.6987 613.579 13.0919C619.374 13.252 634.284 13.9231 636.446 13.6735C638.126 13.4781 638.531 12.8541 638.631 12.5409C638.735 12.2018 638.672 11.7803 637.909 11.3776C637.672 11.2505 636.964 10.9868 635.511 10.7701C596.203 4.93278 531.839 5.02461 471.557 6.43509C458.591 6.05833 445.625 5.70042 432.654 5.37782C402.96 4.63608 372.94 3.89198 342.747 3.30565C427.835 2.21542 512.963 2.52861 598.115 3.31744C633.866 3.64945 730.235 5.65098 768.19 7.41937C767.727 7.66662 767.454 8.0104 767.486 8.3848C767.55 9.10064 768.726 9.65636 770.111 9.62339C777.941 9.43501 782.469 9.19483 784.263 8.94759C785.38 8.79453 785.989 8.54964 786.27 8.38952C786.961 8.00334 787.088 7.5889 786.951 7.19566C786.865 6.95077 786.652 6.68233 786.161 6.43509C785.834 6.26555 785.035 6.00654 783.673 5.82994C768.753 3.90613 640.774 1.11105 598.206 0.71546C485.714 -0.325327 373.267 -0.537231 260.907 2.20837ZM605.082 10.2568C583.1 8.70974 557.331 8.16581 530.449 8.20113C544.142 8.6132 557.839 9.01588 571.542 9.39263C582.719 9.7011 593.9 9.96481 605.082 10.2568ZM157.231 5.56857C128.391 6.67058 99.5834 7.86206 70.7531 9.1807C67.4241 9.3314 64.0996 9.47975 60.7706 9.62575C92.6529 7.60069 124.867 6.31266 157.231 5.56857Z" fill="#FFDA03"/>
</svg>
